<?xml version="1.0" encoding="UTF-8"?>
<svg xmlns="http://www.w3.org/2000/svg" version="1.1" viewBox="0 0 507.4 195.9">
  <defs>
    <style>
      .cls-1 {
        fill: #b7202a;
      }

      .cls-1, .cls-2, .cls-3, .cls-4, .cls-5 {
        stroke-width: 0px;
      }

      .cls-2 {
        fill: #b72029;
      }

      .cls-3 {
        fill: none;
      }

      .cls-4 {
        fill: #434647;
      }

      .cls-5 {
        fill: #fff;
      }

      .cls-6 {
        display: none;
      }
    </style>
  </defs>
  <!-- Generator: Adobe Illustrator 28.6.0, SVG Export Plug-In . SVG Version: 1.0.2 Build 62)  -->
  <g>
    <g id="Layer_1">
      <g>
        <circle class="cls-5" cx="97.9" cy="97.9" r="97.9"/>
        <circle class="cls-3" cx="97.9" cy="97.9" r="97.9"/>
        <path class="cls-2" d="M72.7,111.6c1.1,1.8,2.6,3.3,4.3,4.4,2,1.2,4.3,1.8,6.6,1.7,4,0,7.1-1.1,9.3-3.3,2.2-2.4,3.7-5.5,4.1-8.7,0,0,0-.1.2-.1h12.5c.2-.6.5-1.2.8-1.8,1.1-2.1,2.8-3.9,4.7-5.3,2-1.4,4.3-2.4,6.6-3,2.5-.6,5-1.1,7.5-1.5,2.5-.4,5-.7,7.4-.9,2.2-.2,4.4-.5,6.5-1,1.6-.3,3.2-1,4.5-2,1.1-1,1.7-2.4,1.5-3.9,0-1.5-.2-2.9-.9-4.2-.5-1-1.3-1.9-2.3-2.5-1.1-.6-2.2-1-3.4-1.2-1.4-.2-2.8-.3-4.2-.3-3.3,0-5.9.7-7.8,2.1-1.9,1.4-3,3.7-3.3,9.5,0,0,0,.2-.2.2h-30.6c0,0-.1,0-.2-.1-1.1-6.8-5.2-10.2-12.3-10.2-2.4,0-4.7.5-6.7,1.8-1.8,1.2-3.3,2.8-4.4,4.6-1.2,1.9-2,4-2.4,6.3-.5,2.2-.7,4.5-.7,6.8,0,2.2.2,4.4.7,6.6.4,2.1,1.2,4.2,2.3,6.1Z"/>
        <path class="cls-2" d="M143.1,101.5c-1.2.2-2.5.4-3.8.6s-2.7.3-4,.6c-1.3.2-2.5.5-3.7.9-1.1.4-2.2.9-3.2,1.6-.9.7-1.7,1.5-2.2,2.5-.6,1.2-.9,2.5-.8,3.8,0,1.3.2,2.6.8,3.7.5,1,1.3,1.8,2.2,2.4,1,.6,2.1,1,3.3,1.2,1.3.2,2.6.3,3.9.3,3.3,0,5.9-.5,7.7-1.6,1.6-.9,3-2.3,4-3.9.8-1.4,1.4-3,1.6-4.6.2-1.2.3-2.5.3-3.7v-6.1c-.8.7-1.7,1.2-2.7,1.4-1.1.4-2.3.7-3.4.9Z"/>
        <path class="cls-2" d="M18,111.6c1.1,1.8,2.5,3.3,4.3,4.4,2,1.2,4.3,1.8,6.6,1.7,4,0,7.1-1.1,9.3-3.3,2.3-2.4,3.7-5.5,4.1-8.7,0,0,0-.1.2-.1h11c-.3-2-.5-4.1-.5-6.1,0-3.3.4-6.5,1.1-9.7h-12.2c0,0-.1,0-.2-.1-1.1-6.8-5.3-10.2-12.4-10.2-2.4,0-4.7.5-6.7,1.8-1.8,1.2-3.3,2.8-4.4,4.6-1.2,1.9-2,4.1-2.4,6.3-.5,2.2-.7,4.5-.7,6.8,0,2.2.2,4.4.7,6.6.4,2.1,1.2,4.2,2.3,6.1Z"/>
        <path class="cls-2" d="M97.9,0C48.9,0,7.5,36.3.9,84.8c1.3-3.2,3.1-6.1,5.4-8.6,2.7-2.9,6.1-5.3,9.8-6.8,4.2-1.7,8.7-2.5,13.2-2.4,3.5,0,7.1.5,10.5,1.4,3.2.9,6.3,2.3,9,4.2,2.6,1.9,4.8,4.3,6.5,7.1.5.9,1,1.9,1.4,2.9,2.9-6,8-10.7,14.2-13.2,4.2-1.7,8.7-2.5,13.2-2.4,3.5,0,7.1.5,10.5,1.4,3.2.9,6.3,2.3,9,4.2,2.6,1.9,4.8,4.3,6.5,7,.5.9.9,1.8,1.3,2.7.5-2.3,1.6-4.5,3.1-6.3,1.7-2.1,3.8-3.8,6.1-5.1,2.7-1.4,5.6-2.4,8.5-3,3.3-.7,6.7-1,10.1-1,3.1,0,6.2.2,9.3.6,3,.4,5.9,1.2,8.6,2.5,2.5,1.2,4.7,2.9,6.4,5.2,1.8,2.6,2.6,5.6,2.5,8.7v31.2c0,2.6.1,5.2.5,7.8.2,1.8.7,3.6,1.4,5.2,0,.1,0,.2,0,.3,0,0,0,0-.1,0h-16.5c0,0-.1,0-.1-.1-.3-.9-.5-1.8-.7-2.7-.2-1-.3-2-.4-3-2.6,2.7-5.9,4.6-9.5,5.7-3.6,1.1-7.3,1.6-11.1,1.6-2.8,0-5.5-.3-8.2-1-2.4-.6-4.6-1.7-6.6-3.2-1.9-1.5-3.4-3.4-4.4-5.6-.4-.9-.8-1.8-1-2.8-1.4,2.4-3.3,4.6-5.5,6.3-5.2,4.2-11.9,6.3-20,6.3-4.3,0-8.6-.7-12.6-2.3-6.6-2.5-11.9-7.3-15-13.6-1.5,3.8-3.9,7.1-7.1,9.6-5.2,4.1-11.9,6.2-20,6.2-4.3,0-8.6-.7-12.6-2.3-3.7-1.4-7-3.6-9.8-6.3-2.2-2.3-4-4.9-5.4-7.7,8.7,53.4,59,89.6,112.4,80.9,53.4-8.7,89.6-59,80.9-112.4C186.9,34.8,146,0,97.9,0Z"/>
        <path class="cls-4" d="M222.7,86.3c-.2-2.4-2.3-4.3-4.7-4.1,0,0,0,0,0,0-4.1,0-5.5,4.2-5.5,7.7s1.3,7.4,5.4,7.4,4.8-1.9,5.2-4.8h6.2c-.8,6.3-5.2,9.7-11.4,9.7s-11.9-5-11.9-12.1,4.4-12.8,12.1-12.8,10.7,2.9,11.1,9h-6.4Z"/>
        <path class="cls-4" d="M242.1,77.3c7.4,0,12.2,4.9,12.2,12.5s-4.8,12.4-12.2,12.4-12.1-4.9-12.1-12.4,4.8-12.5,12.1-12.5ZM242.1,97.3c4.4,0,5.8-3.8,5.8-7.5s-1.3-7.6-5.8-7.6-5.7,3.8-5.7,7.6,1.3,7.5,5.7,7.5Z"/>
        <path class="cls-4" d="M290.7,81.2c-1.3-2.8-4.2-3.9-7.7-3.9-2.9,0-5.6,1.5-7.1,3.9-.5-1.1-1.3-2.1-2.3-2.7-1.4-.8-2.9-1.2-4.5-1.2-2.9,0-5.6,1.4-7.2,3.8h0v-3.2h-6.1v23.6h6.5v-13.7c0-4.6,3.1-5.4,4.4-5.4,4.1,0,3.9,3.2,3.9,5.9v13.2h6.5v-13.2c0-3,.7-6,4.3-6s4,2.6,4,5.8v13.4h6.5v-13.2c0-3.2.1-5-1-7.2Z"/>
        <path class="cls-4" d="M328.6,81.2c-1.3-2.8-4.2-3.9-7.7-3.9-2.9,0-5.6,1.5-7.1,3.9-.5-1.1-1.3-2.1-2.4-2.7-1.4-.8-2.9-1.2-4.5-1.2-2.9,0-5.6,1.4-7.2,3.8h0v-3.2h-6.1v23.6h6.5v-13.7c0-4.6,3.1-5.4,4.4-5.4,4.1,0,3.9,3.2,3.9,5.9v13.2h6.5v-13.2c0-3,.7-6,4.3-6s4,2.6,4,5.8v13.4h6.5v-13.2c0-3.2,0-5-1-7.2Z"/>
        <path class="cls-4" d="M343.2,77.3c7.4,0,12.2,4.9,12.2,12.5s-4.8,12.4-12.2,12.4-12.2-4.9-12.2-12.4,4.8-12.5,12.2-12.5ZM343.2,97.3c4.4,0,5.8-3.8,5.8-7.5s-1.3-7.6-5.8-7.6-5.7,3.8-5.7,7.6,1.3,7.5,5.7,7.5Z"/>
        <path class="cls-4" d="M356.6,77.9h6.2v3.3h.2c1.6-2.5,4.3-4,7.2-3.9,6.9,0,8.6,3.9,8.6,9.7v14.5h-6.5v-13.3c0-3.9-1.1-5.8-4.1-5.8s-5,2-5,6.8v12.4h-6.5v-23.6Z"/>
        <path class="cls-4" d="M407.3,101.6h-6.7l-4.2-15.8h0l-4,15.8h-6.7l-7.5-23.6h6.9l4.3,16h0l3.9-16h6.3l4,16h0l4.3-16h6.7l-7.4,23.6Z"/>
        <path class="cls-4" d="M419.4,91.3c.2,4.1,2.2,6,5.8,6s4.7-1.6,5.1-3.1h5.7c-1.8,5.6-5.7,8-11,8s-12-5.1-12-12.4,4.9-12.5,12-12.5,11.9,6.8,11.5,14h-17.1ZM429.9,87.2c-.6-3.3-2-5-5.2-5-2.8-.2-5.2,2-5.4,4.8,0,0,0,.1,0,.2h10.6Z"/>
        <path class="cls-4" d="M461.2,70.9h6.5v30.7h-6.5v-30.7Z"/>
        <path class="cls-4" d="M479.3,78h4.7v4.3h-4.8v11.7c0,2.2.5,2.7,2.7,2.7.7,0,1.3,0,2-.2v5.1c-1.3.2-2.5.2-3.8.2-4,0-7.4-.9-7.4-5.6v-13.9h-3.9v-4.3h3.9v-7.1h6.5v7.1Z"/>
        <path class="cls-4" d="M485.2,70.9h6.5v10.4h.1c1.5-2.4,4.1-3.9,6.9-3.9,6.9,0,8.6,3.9,8.6,9.7v14.5h-6.5v-13.3c0-3.9-1.1-5.8-4.2-5.8s-5,2-5,6.8v12.4h-6.5v-30.7Z"/>
        <path class="cls-4" d="M319.5,133.9c0,1.4,0,2.9,1.6,2.9.4,0,.9,0,1.3-.1v1.5c-.5.1-1,.2-1.5.2-2.8,0-3.2-1.6-3.2-3.5v-1.3h0c-1.1,2.9-4.4,5.4-9,5.4s-8.1-1.7-8.1-6.8,4.9-6.8,8.9-7.1c8-.6,8.3-1.1,8.3-5s-1.2-4.7-6.7-4.7-7.2,2.2-7.4,6.4h-1.8c.2-5.3,3.5-8,9.2-8s8.5,1.3,8.5,6.3v13.9ZM317.7,124.7c-1.4,1.6-5.2,1.4-8.7,1.9-4.2.5-6.6,2-6.6,5.6s2.1,5.3,6.3,5.3c8.1,0,9-7,9-8.2v-4.5Z"/>
        <path class="cls-4" d="M327.3,108.1v30.3h-1.8v-30.3h1.8Z"/>
        <path class="cls-4" d="M335.2,108.1v30.3h-1.8v-30.3h1.8Z"/>
        <path class="cls-4" d="M341.3,138.4v-24.1h1.8v24.1h-1.8Z"/>
        <path class="cls-4" d="M366.6,133.9c0,1.4,0,2.9,1.6,2.9.4,0,.9,0,1.3-.1v1.5c-.5.1-1,.2-1.5.2-2.8,0-3.2-1.6-3.2-3.5v-1.3h0c-1.1,2.9-4.4,5.4-9,5.4s-8.1-1.7-8.1-6.8,4.9-6.8,8.9-7.1c8-.6,8.3-1.1,8.3-5s-1.2-4.7-6.7-4.7-7.2,2.2-7.4,6.4h-1.8c.2-5.3,3.5-8,9.2-8s8.5,1.3,8.5,6.3v13.9ZM364.8,124.7c-1.4,1.6-5.3,1.4-8.7,1.9-4.2.5-6.6,2-6.6,5.6s2.1,5.3,6.3,5.3c8.1,0,9-7,9-8.2v-4.5Z"/>
        <path class="cls-4" d="M372.3,114.3h1.8v5.2h0c1.4-3.6,4.8-5.9,8.6-5.7,8.5,0,8.6,6.8,8.6,9.8v14.9h-1.8v-15.2c0-2.5-.3-7.9-6.9-7.9s-8.7,4.2-8.7,10.1v13h-1.8v-24.1Z"/>
        <path class="cls-4" d="M414.2,121.7c-.3-4.3-3.8-6.5-8.2-6.5s-9.3,5.3-9.3,10.8,3,11.3,9.3,11.3c4.3,0,8-3.2,8.4-7.5h1.8c-.8,5.8-5,9.1-10.2,9.1-7.8,0-11.1-6.2-11.1-12.9s3.9-12.4,11.1-12.4,9.4,2.5,10,8h-1.8Z"/>
        <path class="cls-4" d="M421.1,126.6c-.1,5.7,2.9,10.8,8.9,10.8,4.3.2,8-2.9,8.6-7.2h1.8c-.9,5.6-4.7,8.7-10.4,8.7s-10.8-5.5-10.7-12.2c0-6.6,3.4-13.1,10.7-13.1s10.9,6,10.6,12.9h-19.5ZM438.8,125c0-5.1-3.3-9.8-8.8-9.8s-8.5,5-8.9,9.8h17.7Z"/>
        <rect class="cls-4" x="341.3" y="108.1" width="1.8" height="3.9"/>
        <path class="cls-4" d="M222.7,122.5c-.2-2.4-2.3-4.3-4.8-4.1,0,0,0,0,0,0-4.1,0-5.5,4.2-5.5,7.7s1.3,7.4,5.4,7.4,4.8-1.9,5.2-4.8h6.2c-.8,6.3-5.2,9.7-11.4,9.7s-11.9-5-11.9-12.1,4.4-12.8,12.1-12.8,10.7,2.9,11.1,9h-6.4Z"/>
        <path class="cls-4" d="M230.6,122.5c.4-7.1,5.8-8.9,11.1-8.9s10.4,1,10.4,6.7v12.3c0,2.2.2,4.3.8,5.2h-6.6c-.2-.7-.4-1.5-.5-2.3-2.1,2-5,3.1-7.9,2.9-4.5,0-8-2.2-8-7.1s4-6.6,8-7.2,7.7-.5,7.7-3.1-1.9-3.2-4.2-3.2-4.1,1-4.3,4.6h-6.5ZM245.6,126.2c-1.1,1-3.4,1-5.4,1.4s-3.8,1.1-3.8,3.5,1.9,3,4,3c5.1,0,5.2-4,5.2-5.4v-2.4Z"/>
        <path class="cls-4" d="M254,114.2h6.2v4.4h0c1.3-3,4.3-5,7.5-5,.5,0,1,0,1.4.2v6c-.8-.2-1.5-.2-2.3-.2-4.8,0-6.4,3.4-6.4,7.6v10.6h-6.5v-23.6Z"/>
        <path class="cls-4" d="M274.4,127.5c.2,4.1,2.2,6,5.8,6s4.7-1.6,5.1-3.1h5.7c-1.8,5.6-5.7,7.9-11,7.9s-12.1-5.1-12.1-12.4,4.9-12.5,12.1-12.5,11.9,6.8,11.5,14h-17ZM285,123.4c-.6-3.3-2-5-5.1-5-2.8-.2-5.2,2-5.4,4.8,0,0,0,.1,0,.2h10.5Z"/>
        <path class="cls-4" d="M437.9,86.3c.4-7.1,5.8-8.9,11.1-8.9s10.4,1,10.4,6.7v12.3c0,2.2.2,4.3.8,5.3h-6.6c-.2-.7-.4-1.5-.5-2.3-2.1,2-5,3.1-8,2.9-4.5,0-8-2.2-8-7.1s4-6.6,8-7.2,7.7-.5,7.7-3.1-1.9-3.2-4.2-3.2-4.1,1-4.3,4.6h-6.5ZM452.9,90c-1.1,1-3.4,1-5.4,1.4s-3.8,1.1-3.8,3.5,1.9,3,4,3c5.1,0,5.2-4,5.2-5.4v-2.4Z"/>
        <path class="cls-4" d="M445.1,112.4c.8.3,1.4,1,1.8,1.8.3.8.3,1.8,0,2.6-.2.4-.4.7-.7,1-.3.3-.7.5-1.1.7-.4.2-.9.3-1.3.3-.5,0-.9,0-1.3-.3-.8-.3-1.4-1-1.8-1.8-.3-.8-.3-1.8,0-2.6.2-.4.4-.8.7-1.1.3-.3.7-.6,1.1-.7.4-.2.9-.3,1.3-.2.5,0,.9.1,1.3.3ZM442.6,112.9c-.3.1-.6.4-.9.6-.3.3-.4.6-.6.9-.3.7-.3,1.5,0,2.2.1.3.3.6.6.9.8.8,2.1,1.1,3.1.6.3-.1.6-.4.9-.6.3-.3.5-.6.6-.9.3-.7.3-1.5,0-2.2-.1-.3-.3-.6-.6-.9-.3-.3-.6-.5-.9-.6-.7-.3-1.5-.3-2.2,0ZM442.5,117.4v-3.9h1.5c.4,0,.7,0,1,.3.2.2.3.5.3.8,0,.2,0,.3,0,.4,0,.1-.1.2-.2.3,0,0-.2.2-.3.2-.1,0-.2,0-.4.1l1.1,1.7h-.6l-1.1-1.7h-.8v1.7h-.5ZM444.1,115.3c.1,0,.3,0,.4,0,.1,0,.2-.1.3-.2,0-.1.1-.2.1-.4,0-.1,0-.2,0-.3,0,0-.1-.1-.2-.2,0,0-.2,0-.3-.1-.1,0-.2,0-.4,0h-.9v1.3h1.1Z"/>
      </g>
      <g class="cls-6">
        <path class="cls-1" d="M210,120l8,21.3,8.4-21.3h3.4v24.3h-2.3v-21h0l-8.3,21h-2.2l-8-21h0v21h-2.3v-24.3h3.4Z"/>
        <path class="cls-1" d="M244.3,120l9.5,24.3h-2.5l-3-7.6h-11l-2.9,7.6h-2.4l9.8-24.3h2.6ZM247.6,134.8l-4.7-12.4-4.9,12.5h9.6Z"/>
        <path class="cls-1" d="M257.7,139.4c.4.8,1,1.5,1.7,2,.8.5,1.6.9,2.5,1.1,1,.2,2.1.3,3.1.3.7,0,1.4,0,2.1-.3.7-.2,1.4-.5,2.1-.9.6-.4,1.2-.9,1.6-1.5.4-.7.7-1.5.6-2.3,0-.6-.1-1.2-.5-1.8-.3-.5-.7-.9-1.2-1.3-.5-.3-1-.6-1.6-.8-.6-.2-1.2-.4-1.7-.5l-5.4-1.3c-.7-.2-1.4-.4-2.1-.7-.6-.3-1.2-.6-1.8-1.1-.5-.5-.9-1-1.2-1.7-.3-.8-.5-1.6-.5-2.4,0-.7.1-1.4.3-2.1.2-.8.7-1.6,1.3-2.2.7-.8,1.6-1.4,2.6-1.8,1.3-.5,2.8-.8,4.2-.7,1.2,0,2.3.2,3.4.5,1,.3,2,.8,2.9,1.4.8.6,1.5,1.4,2,2.4.5,1,.8,2.1.7,3.3h-2.3c0-.8-.2-1.7-.6-2.4-.4-.7-.9-1.3-1.5-1.7-.6-.5-1.3-.8-2.1-1-.8-.2-1.6-.4-2.5-.4-.8,0-1.5,0-2.3.3-.7.2-1.3.4-1.9.8-.6.4-1,.9-1.3,1.5-.4.7-.5,1.5-.5,2.3,0,.5,0,1,.3,1.5.2.4.5.8.8,1.1.3.3.7.5,1.2.7.5.2.9.3,1.4.4l5.9,1.5c.8.2,1.6.5,2.4.8.7.3,1.4.7,2,1.2.6.5,1,1.1,1.4,1.8.3.8.5,1.7.5,2.6,0,.4,0,.7,0,1.1,0,.5-.2,1-.4,1.4-.2.5-.6,1.1-.9,1.5-.4.6-1,1.1-1.6,1.4-.8.5-1.7.8-2.6,1-2.5.6-5.1.5-7.6-.1-1.1-.3-2.2-.8-3.1-1.5-.9-.7-1.6-1.6-2-2.6-.5-1.2-.7-2.5-.6-3.8h2.3c0,1.1.2,2.1.6,3.1Z"/>
        <path class="cls-1" d="M279.1,139.4c.4.8,1,1.5,1.7,2,.8.5,1.6.9,2.5,1.1,1,.2,2.1.3,3.1.3.7,0,1.4,0,2.1-.3.7-.2,1.4-.5,2.1-.9.6-.4,1.2-.9,1.6-1.5.4-.7.7-1.5.6-2.3,0-.6-.1-1.2-.5-1.8-.3-.5-.7-.9-1.2-1.3-.5-.3-1-.6-1.6-.8-.6-.2-1.1-.4-1.7-.5l-5.4-1.3c-.7-.2-1.4-.4-2.1-.7-.6-.3-1.2-.6-1.8-1.1-.5-.5-.9-1-1.2-1.7-.3-.8-.5-1.6-.5-2.4,0-.7.1-1.4.3-2.1.2-.9.7-1.6,1.3-2.3.7-.8,1.6-1.4,2.6-1.8,1.3-.5,2.8-.8,4.2-.7,1.2,0,2.3.2,3.4.5,1,.3,2,.8,2.9,1.4.8.6,1.5,1.4,2,2.4.5,1,.8,2.1.7,3.3h-2.4c0-.8-.2-1.7-.6-2.4-.4-.7-.9-1.3-1.5-1.7-.6-.5-1.3-.8-2.1-1-.8-.2-1.6-.4-2.5-.4-.8,0-1.5,0-2.3.3-.7.2-1.3.4-1.9.8-.6.4-1,.9-1.4,1.5-.4.7-.5,1.5-.5,2.3,0,.5,0,1,.3,1.5.2.4.5.8.8,1.1.3.3.7.5,1.2.7.5.2,1,.3,1.5.4l5.9,1.5c.8.2,1.6.5,2.4.8.7.3,1.4.7,2,1.2.6.5,1,1.1,1.4,1.8.3.8.5,1.7.5,2.6,0,.4,0,.7,0,1.1,0,.5-.2,1-.4,1.4-.2.5-.6,1.1-.9,1.5-.4.6-1,1.1-1.6,1.4-.8.5-1.7.8-2.6,1-1.2.3-2.4.4-3.7.4-1.3,0-2.7-.2-4-.5-1.1-.3-2.2-.8-3.1-1.5-.9-.7-1.6-1.6-2-2.6-.5-1.2-.7-2.5-.6-3.8h2.3c0,1.1.1,2.2.6,3.2Z"/>
        <path class="cls-1" d="M308.5,120l9.5,24.3h-2.5l-3-7.6h-11l-2.9,7.6h-2.4l9.8-24.3h2.6ZM311.8,134.8l-4.7-12.4-4.9,12.4h9.5Z"/>
        <path class="cls-1" d="M337,124.9c-.5-.7-1-1.3-1.7-1.8-.7-.5-1.4-.9-2.2-1.1-.8-.3-1.7-.4-2.5-.4-1.4,0-2.9.3-4.1.9-1.1.6-2.1,1.4-2.8,2.4-.7,1-1.3,2.2-1.6,3.4-.4,1.3-.5,2.6-.5,3.9,0,1.3.2,2.6.5,3.9.3,1.2.9,2.4,1.6,3.4.7,1,1.7,1.9,2.8,2.4,1.3.6,2.7,1,4.1.9,1.1,0,2.1-.2,3.1-.6.9-.4,1.7-1,2.4-1.7.7-.7,1.2-1.6,1.6-2.5.4-1,.7-2,.8-3.1h2.3c-.1,1.4-.5,2.8-1,4.1-.5,1.1-1.2,2.2-2.1,3.1-.9.8-1.9,1.5-3,1.9-1.2.5-2.6.7-3.9.7-1.7,0-3.4-.3-5-1-1.4-.7-2.6-1.6-3.6-2.8-1-1.2-1.7-2.5-2.1-4-.9-3.1-.9-6.5,0-9.6.5-1.5,1.2-2.8,2.1-4,1-1.2,2.2-2.1,3.6-2.8,2.6-1.2,5.6-1.4,8.4-.5,1.1.3,2.1.8,3,1.5.9.7,1.7,1.5,2.2,2.5.6,1,1,2.2,1.1,3.4h-2.4c-.2-.9-.5-1.8-1-2.6Z"/>
        <path class="cls-1" d="M346.5,120v10.5h14.4v-10.5h2.3v24.3h-2.3v-11.7h-14.4v11.8h-2.3v-24.3h2.3Z"/>
        <path class="cls-1" d="M370.2,120v15c0,1.2.1,2.4.5,3.6.3.9.7,1.7,1.4,2.4.6.6,1.4,1.1,2.2,1.4,2,.6,4,.6,6,0,.8-.3,1.6-.7,2.2-1.4.7-.7,1.1-1.5,1.4-2.4.3-1.2.5-2.4.5-3.6v-15h2.3v15.5c0,1.2-.2,2.4-.5,3.6-.3,1.1-.9,2.1-1.7,2.9-.8.9-1.8,1.6-2.9,2-2.8,1-5.8,1-8.6,0-1.1-.4-2.1-1.1-2.9-2-.8-.8-1.3-1.9-1.7-2.9-.4-1.2-.5-2.4-.5-3.6v-15.5h2.3Z"/>
        <path class="cls-1" d="M393.1,139.4c.4.8,1,1.5,1.7,2,.8.5,1.6.9,2.5,1.1,1,.2,2.1.3,3.1.3.7,0,1.4,0,2.1-.3.7-.2,1.4-.5,2.1-.9.6-.4,1.2-.9,1.6-1.5.4-.7.7-1.5.6-2.3,0-.6-.1-1.2-.5-1.8-.3-.5-.7-.9-1.2-1.3-.5-.3-1-.6-1.6-.8-.6-.2-1.2-.4-1.7-.5l-5.4-1.3c-.7-.2-1.4-.4-2-.7-.6-.3-1.2-.6-1.8-1.1-.5-.5-.9-1-1.2-1.7-.3-.8-.5-1.6-.5-2.4,0-.7.1-1.4.3-2.1.3-.8.7-1.6,1.3-2.2.7-.8,1.6-1.4,2.6-1.8,1.3-.5,2.8-.8,4.2-.7,1.2,0,2.3.2,3.4.5,1,.3,2,.8,2.9,1.4,1.8,1.3,2.8,3.4,2.7,5.7h-2.3c0-.8-.2-1.7-.6-2.4-.4-.7-.9-1.3-1.5-1.7-.6-.5-1.3-.8-2.1-1-.8-.2-1.6-.4-2.5-.4-.8,0-1.5,0-2.3.3-.7.2-1.3.4-1.9.8-.6.4-1,.9-1.3,1.5-.4.7-.5,1.5-.5,2.3,0,.5,0,1,.3,1.5.2.4.5.8.8,1.1.3.3.7.5,1.2.7.5.2.9.3,1.4.4l5.9,1.5c.8.2,1.6.5,2.4.8.7.3,1.4.7,2,1.2.6.5,1,1.1,1.4,1.8.4.8.5,1.7.5,2.6,0,.4,0,.7,0,1.1,0,.5-.2,1-.4,1.4-.2.5-.5,1.1-.9,1.5-.5.6-1,1.1-1.6,1.4-.8.5-1.7.8-2.6,1-1.2.3-2.4.4-3.7.4-1.3,0-2.7-.2-4-.5-1.1-.3-2.2-.8-3.1-1.5-.9-.7-1.6-1.6-2-2.6-.5-1.2-.7-2.5-.6-3.8h2.3c0,1.1.2,2.1.6,3.1Z"/>
        <path class="cls-1" d="M429.6,120v2h-14.4v8.8h13.5v2h-13.5v9.6h14.6v2h-16.9v-24.4h16.8Z"/>
        <path class="cls-1" d="M449.6,120v2h-8.5v22.3h-2.3v-22.3h-8.4v-2h19.2Z"/>
        <path class="cls-1" d="M468.5,120v2h-8.5v22.3h-2.3v-22.3h-8.4v-2h19.2Z"/>
        <path class="cls-1" d="M472.4,139.4c.4.8,1,1.5,1.7,2,.8.5,1.6.9,2.5,1.1,1,.2,2.1.3,3.1.3.7,0,1.4,0,2.1-.3.7-.2,1.4-.5,2.1-.9.6-.4,1.2-.9,1.6-1.5.4-.7.7-1.5.6-2.3,0-.6-.1-1.2-.5-1.8-.3-.5-.7-.9-1.2-1.3-.5-.3-1-.6-1.6-.8-.6-.2-1.1-.4-1.7-.5l-5.4-1.3c-.7-.2-1.4-.4-2.1-.7-.6-.3-1.2-.6-1.8-1.1-.5-.5-.9-1-1.2-1.7-.3-.8-.5-1.6-.5-2.4,0-.7.1-1.4.3-2.1.3-.9.7-1.6,1.3-2.3.7-.8,1.6-1.4,2.6-1.8,1.3-.5,2.8-.8,4.2-.7,1.2,0,2.3.2,3.4.5,1,.3,2,.8,2.9,1.4.8.6,1.5,1.4,2,2.4.5,1,.8,2.1.7,3.3h-2.3c0-.8-.2-1.7-.6-2.4-.4-.7-.9-1.3-1.5-1.7-.6-.5-1.3-.8-2.1-1-.8-.2-1.6-.4-2.5-.4-.8,0-1.5,0-2.3.3-.7.2-1.3.4-1.9.8-.6.4-1,.9-1.4,1.5-.4.7-.5,1.5-.5,2.3,0,.5,0,1,.3,1.5.2.4.5.8.8,1.1.4.3.8.5,1.2.7.5.2.9.3,1.4.4l5.9,1.5c.8.2,1.6.5,2.4.8.7.3,1.4.7,2,1.2.6.5,1,1.1,1.4,1.8.3.8.5,1.7.5,2.6,0,.4,0,.7,0,1.1,0,.5-.2,1-.4,1.4-.2.5-.6,1.1-.9,1.5-.4.6-1,1.1-1.6,1.4-.8.5-1.7.8-2.6,1-1.2.3-2.4.4-3.7.4-1.3,0-2.7-.2-4-.5-1.1-.3-2.2-.8-3.1-1.5-.9-.7-1.6-1.6-2-2.6-.5-1.2-.7-2.5-.6-3.8h2.3c0,1.1.1,2.2.5,3.1Z"/>
      </g>
    </g>
  </g>
</svg>