<svg version="1.2" xmlns="http://www.w3.org/2000/svg" viewBox="0 0 1533 424" width="1533" height="424">
	<title>cimb-ar21-230322-1-pdf-svg</title>
	<defs>
		<clipPath clipPathUnits="userSpaceOnUse" id="cp1">
			<path d="m-498.35-1703.22h7615.48v10757.49h-7615.48z"/>
		</clipPath>
	</defs>
	<style>
		.s0 { fill: #790008 } 
		.s1 { fill: #ffffff } 
		.s2 { fill: #ed1d24 } 
	</style>
	<g id="Clip-Path: Page 1" clip-path="url(#cp1)">
		<g id="Page 1">
			<path id="Path 293" class="s0" d="m0.4 0.5h422.7v422.9h-422.7z"/>
			<path id="Path 294" class="s1" d="m381.5 211.9h-224.4l-99.8-131.6h225.1z"/>
			<path id="Path 295" class="s2" d="m282.4 343.5h-225.1l99.8-131.6h224.4z"/>
			<path id="Path 296" fill-rule="evenodd" class="s0" d="m1532.4 270c0 49.9-32.6 80.5-85 80.5h-116.4v-277.2h111.3c53.1 0 86.3 30 86.3 78.6 0 30.6-20.5 49.8-32.6 56.2 14.7 7.6 36.4 24.9 36.4 61.9zm-145.7-85.6h51.7c21.1 0 33.9-11.5 33.9-30.6 0-19.2-12.8-30-33.9-30h-51.7zm89.5 82.4c0-15.4-9-32-34.6-32h-54.9v65.2h54.9c25.6 0 34.6-17.3 34.6-33.2zm-265.4-194.2h54.4v276.6h-55.7v-165.5c-4.4 7.7-96.5 168-96.5 168 0 0-92.1-160.3-96.6-168v165.5h-56.2v-276.6h55c0 0 95.9 173.7 97.8 177.6 1.9-3.9 97.8-177.6 97.8-177.6zm-374.7 0.6h55.6v276.6h-55.6zm-92.1 209.5l39 39-1.2 1.3c-26.3 23-60.8 35.8-95.3 35.8-81.9 0-149-65.8-149-147 0-80.5 67.1-146.3 149-146.3 34.5 0 69 12.2 95.3 35.2l1.2 1.3-39 38.9-0.6-0.6c-16.6-13.4-36.4-19.8-56.9-19.8-51.2 0-90.2 40.2-90.2 91.3 0 51.8 39 91.4 90.2 91.4 20.5 0 40.3-6.4 56.9-19.8z"/>
		</g>
	</g>
</svg>