<svg version="1.2" xmlns="http://www.w3.org/2000/svg" viewBox="0 0 1593 1289" width="1593" height="1289">
	<title>generali-logo-big-svg</title>
	<style>
		.s0 { fill: #c5281c } 
	</style>
	<g id="Layer">
		<path id="Layer" class="s0" d="m305.7 1143.5v-108.9c67.9 0 92.9-3.6 105.4 80.3h7.1v-92.8h-187.5v12.5h32.2v241h-35.7v12.5h192.8v-98.2h-8.9c-9 75-28.6 85.7-82.2 85.7h-25v-116h14.3c23.2 0 37.5 14.2 42.9 55.3h8.9v-121.4h-8.9c0 0-1.8 51.8-42.9 51.8h-12.5z"/>
		<path id="Layer" class="s0" d="m229 1147.1h-105.4v12.5h35.7v85.6c-5.3 21.5-39.2 30.4-48.2 30.4-67.8 0-62.5-98.2-62.5-125 0-23.2-1.8-124.9 62.5-124.9 46.4 0 69.7 44.6 78.6 85.7h7.1c0-16.1 0-96.4 0-96.4 0 0-32.1 23.2-32.1 21.4 0 0-14.3-21.4-55.4-21.4-78.5 0-108.9 78.5-108.9 133.9 0 49.9 23.2 137.4 108.9 137.4 26.8 0 44.7-14.3 55.4-28.6l33.9 26.8v-126.7h28.6v-10.7z"/>
		<path id="Layer" fill-rule="evenodd" class="s0" d="m1471.6 1188.1v98.2h-241v-12.5h30.3c-1.8 0-28.5-71.4-28.5-71.4h-89.3c0 0-17.9 42.8-16.1 55.3 1.8 16.1 25 16.1 28.6 16.1v12.5h-64.3c-103.5 0-10.7-121.4-89.3-128.5h-44.6v116h33.9v12.5h-108.9v-12.5h33.9v-241h-33.9v-12.5h132.1c46.5 1.8 75 21.5 75 62.5 0 57.1-60.7 69.6-60.7 69.6 0 1.8 23.2 1.8 37.5 16.1 10.7 12.5 12.5 39.3 12.5 51.7v46.5c0 3.5-1.8 8.9 10.7 8.9 14.3-3.6 19.7-23.2 19.7-23.2 0-1.8 82.1-237.4 82.1-237.4h14.3l98.2 260.6h26.7v-241h-33.9v-12.5h110.7v12.5h-33.9v239.2h3.6c53.5 0 73.2-10.7 82.1-85.7zm-424.9-99.9c0-10.7-1.8-48.2-34-53.6h-55.3v110.7h42.9c33.9 0 46.4-28.6 46.4-57.1zm183.9 103.5l-41.1-114.2-39.3 114.2z"/>
		<path id="Layer" class="s0" d="m750.3 1032.8c67.8 0 94.6-3.5 105.3 80.4h7.2v-92.9h-271.4v12.5h7.1c9 0 32.2 0 34 21.4v153.6l-126.8-187.5h-69.6v12.5h10.7c14.3 0 32.1 0 33.9 21.4v196.4c0 19.6-28.6 26.8-41.1 26.8v8.9h94.7v-8.9c-12.5 0-41.1-7.2-41.1-26.8v-173.1c50 71.4 144.6 208.8 146.4 208.8h5.4v-232.1c1.7-19.6 23.2-21.4 33.9-21.4h30.3v241h-35.7v12.5h192.8v-98.2h-8.9c-8.9 75-28.5 85.7-82.1 85.7h-25v-116h14.3c23.2 0 37.5 14.3 42.8 55.3h9v-121.4h-9c0 0-1.8 51.8-42.8 51.8h-12.5v-110.7z"/>
		<path id="Layer" class="s0" d="m1591.2 1034.6v-14.3h-108.9v14.3h33.9v239.2h-33.9v12.5h108.9v-12.5h-35.7v-239.2z"/>
		<path id="Layer" fill-rule="evenodd" class="s0" d="m1303.8 857.9h289.2v82.1h-1589v-414.1l89.3-25c-14.3-23.2-19.7-53.5-7.2-71.4 10.7-16 32.2-30.3 58.9-30.3 1.8-3.6 3.6-5.4 7.2-8.9 10.7-10.8 25-14.3 41.1-14.3 24.9 1.8 53.5 14.3 78.5 37.5l37.5-57.2-8.9-7.1-1.8-1.8c-3.6-3.6-8.9-10.7-8.9-21.4 0-10.7 10.7-23.2 33.9-25l32.1-3.6c16.1 0 37.5-8.9 37.5-26.7 0-7.2-5.3-12.5-12.5-12.5-5.3 0-21.4 10.7-26.8 14.2-14.2 10.8-28.5 17.9-44.6 17.9-23.2 0-41.1-16.1-41.1-37.5 0-5.3 1.8-12.5 5.4-17.8q-8-8.1-10.7-21.5c0-7.1 0-19.6 10.7-32.1 10.7-14.3 25-32.1 35.7-57.1v-1.8l8.9-17.8q2.7-5.4 10.7-10.7c7.2-14.3 16.1-30.4 26.8-42.9 8.9-12.5 23.2-21.4 32.2-28.5 10.7-7.2 25-12.5 37.5-16.1 39.2-12.5 89.2-3.6 133.9 23.2 32.1 19.6 55.3 51.8 69.6 89.2v-1.7c17.8-53.6 62.5-87.5 114.3-87.5h796.2l-8.9 16.1q-40.2 85.6-133.9 85.6h-8.9c-26.8 51.8-69.7 80.4-130.4 80.4-24.9 53.5-69.6 80.3-130.3 80.3h-235.7c1.8 5.3 1.8 12.5 1.8 19.6 0 5.4 0 10.7-1.8 16.1 17.9 1.8 39.3 3.6 62.5 5.3 34 3.6 67.9 5.4 83.9 7.2 7.2 1.8 16.1 1.8 23.3 1.8 37.4 1.7 66 3.5 107.1 10.7q88.4 16 144.6 80.3c14.3 16.1 26.8 33.9 39.3 55.3 12.5 23.2 25 46.4 35.7 71.4v1.8c3.6 7.1 5.3 14.3 8.9 21.4l3.6 9c17.8 46.4 32.1 83.8 46.4 112.4 32.1-14.3 71.4-5.4 87.5 21.4 3.6 5.4 5.3 10.7 8.9 16.1 7.2 12.5 12.5 23.2 25 35.7l19.6 21.4-26.7 5.4c-10.7 1.7-21.5 3.5-30.4 3.5-69.6 0-105.3-64.2-141-157v128.5c3.5 32.1-3.6 44.6-51.8 64.2l-33.9 12.5zm164.2-123.1c16.1 25 35.7 39.2 60.7 41-3.5-7.1-7.1-12.5-10.7-17.8-3.6-3.6-5.3-9-8.9-14.3-7.2-10.7-26.8-16.1-41.1-8.9zm-249.9 119.6l108.9-44.7c5.3-1.8 25-10.7 30.3-16 0-1.8 0-216 0-224.9-7.1-17.9-16-35.7-25-51.8-128.5-16.1-162.4-30.3-228.5-137.4-12.5 0-26.8-1.8-41.1-1.8-8.9-1.8-16-1.8-25-1.8-17.8-1.8-49.9-3.6-85.7-7.1-30.3-1.8-60.7-3.6-78.5-5.4-14.3 12.5-32.2 21.4-51.8 21.4-16.1 0-28.6-5.3-50-14.3-5.3-1.7-8.9-3.5-14.3-5.3l25-23.2c5.4 1.8 9 3.5 14.3 5.3 10.7 5.4 17.9 7.2 25 7.2 21.4 0 39.3-16.1 39.3-37.5 0-12.5-1.8-17.9-3.6-19.6h-108.9l16.1-32.2h103.5c42.9 0 71.4-14.3 92.9-46.4h-169.6l16-32.1h191.1c42.8 0 73.2-16.1 94.6-48.2h-264.2l16-32.1h291c41.1 0 69.7-14.3 91.1-42.9h-485.6c-37.5 0-69.7 25-82.2 64.3l-26.7 98.2c-7.2 28.5-16.1 55.3-21.5 71.4 19.7 10.7 41.1 30.3 41.1 71.4 0 41-26.8 71.3-58.9 87.4q10.7 16.1 10.7 37.5c0 35.7-26.8 64.3-60.7 69.6-5.4 12.5-8.9 25-16.1 33.9v141c0 19.7-16 37.5-37.5 37.5h-5.3c-9 0-28.6 1.8-39.3 16.1q-13.4 18.7 0 58.9c19.6 5.3 50 0 64.3-19.7l5.3-7.1h8.9c23.3 0 50 0 59-8.9 1.8-1.8 5.3-5.4 5.3-23.2 0-3.6 0-17.9 17.9-32.1-19.7-50 1.8-130.3 3.5-139.3l3.6-12.5h12.5c71.4 3.6 112.5-10.7 162.5-26.7 12.5-3.6 25-9 39.3-12.5 5.3-1.8 60.7-19.7 105.3-19.7 3.6 0 44.6 0 85.7 26.8l1.8 1.8c39.3 25 75 48.2 232.1 60.7 41.1 3.5 48.2 33.9 50 44.6v1.8l7.1 78.5-87.5 19.7c-8.9 1.7-14.2 7.1-17.8 16-5.4 16.1 0 35.7 14.3 55.4zm0-635.5h-219.6c-9 17.9-19.7 33.9-34 46.4h162.5c42.9 0 73.2-14.3 91.1-46.4zm130.3-80.3h-219.6c-8.9 19.6-21.4 35.7-35.7 48.2h162.5c44.6 0 74.9-16.1 92.8-48.2zm-116-32.1h162.4c41.1 0 69.7-14.3 91.1-42.9h-217.8c-9 16.1-21.5 30.4-35.7 42.9zm-851.3-34.4c6.8-1.3 15-1.3 24.6-1.3 7.2 0 14.3 1.8 21.4 1.8l59-35.7c-17.9-3.6-35.8-3.6-51.8 0-10.7 1.7-21.4 7.1-28.6 12.4-8.9 7.2-17.8 14.3-23.2 21.5-0.6 0.6-1 1-1.4 1.3zm-2.2 0.5c1.2 0 1.6 0 2.2-0.5q-1.1 0.2-2.2 0.5zm-62.5 257c7.2 5.3 35.8 7.1 37.5 7.1h1.8c44.7 1.8 98.2-23.2 98.2-62.5 0-12.4-3.6-24.9-5.3-37.4-1.8-9-3.6-17.9-3.6-25 0-19.7 14.3-35.7 35.7-42.9l-7.1-37.4 10.7-5.4c25-14.3 39.2-42.8 35.7-67.8 0 0-1.8-1.8-1.8-3.6l-82.1 50h-5.4c-8.9-1.8-16.1-1.8-23.2-1.8-37.5 0-57.1 14.3-60.7 19.6l-3.6 5.4c-10.7 35.7 28.6 19.6 37.5 26.8 8.9 7.1-7.1 21.4-7.1 21.4-3.6 3.5-7.2 8.9-14.3 8.9-7.1 0-12.5-3.6-12.5-8.9 0-8.9-7.1-14.3-14.3-14.3-7.1 0-8.9 3.6-14.3 10.7-7.1 12.5-14.3 21.4-21.4 28.6 0 1.8-1.8 3.5-1.8 5.3 0 1.8 5.4 7.2 8.9 8.9l16.1 10.8-17.8 24.9c0 1.8 0 1.8 0 1.8 0 1.8 3.5 5.4 7.1 5.4 5.4 0 14.3-5.4 25-12.5 16.1-10.7 32.1-19.6 44.6-19.6 23.2 0 41.1 23.2 41.1 48.1-3.6 35.7-39.3 50-73.2 51.8l-28.6-1.8c-1.8 0-3.5 1.8-3.5 3.6 0 1.8 0 3.6 1.7 1.8zm-191 164.2l66.1-17.9 187.4 50v32.2c17.9-3.6 34-10.8 42.9-19.7l26.8-26.8 1.7 37.5c0 3.6 0 14.3 0 17.9 0 16 0 28.5 0 41 42.9-5.3 55.4-25 67.9-64.2l3.6-10.7h12.5c21.4 0 39.2-16.1 39.2-37.5 0-12.5-7.1-25-17.8-32.1l-33.9-23.3 41-7.1c28.6-5.3 58.9-30.3 58.9-64.2 0-28.6-14.2-37.5-35.7-50l-12.5-7.2 5.4-12.5c5.4-14.2 16.1-44.6 23.2-73.1l1.8-7.2c3.6-17.8 7.1-33.9 5.3-46.4-3.5-41-23.2-80.3-53.5-103.5 1.8 30.3-16.1 64.2-42.9 83.9l9 50h-19.7c-12.5 0-21.4 7.1-21.4 14.2 0 3.6 1.8 10.7 3.6 19.7 1.8 12.5 5.3 26.7 5.3 42.8v1.8c0 57.1-62.5 92.8-123.2 92.8h-1.8c-5.3 0-14.2 0-24.9-1.8l-42.9 67.8c1.8 1.8 5.4 7.2 7.1 10.8 0 1.7 1.8 3.5 1.8 3.5l1.8 1.8c1.8 3.6 5.4 8.9 7.2 12.5v1.8c-5.4 8.9-12.5 19.6-19.7 28.6 0-1.8-10.7-16.1-10.7-17.9 0 0-1.8-3.6-3.6-5.4-1.7-1.7-1.7-3.5-3.5-5.3-5.4-8.9-12.5-19.6-19.7-26.8-19.6-21.4-44.6-35.7-64.2-35.7-7.2 0-14.3 1.8-17.9 5.4-1.8 1.8-3.6 5.3-5.4 8.9l-5.3 12.5-14.3-1.8c-17.9-1.8-32.1 5.4-39.3 16.1-3.5 5.3 0 30.3 14.3 44.6zm203.5 362.3l-135.6-35.7-135.7 35.7zm17.8-305.2l-155.3-41-155.3 41v276.7l155.3-41.1 155.3 41.1zm139.3 194.5h5.3q5.4 0 5.4-5.3v-110.7c-17.9 7.2-39.3 12.5-67.9 12.5h-19.6l3.6-19.6c0-3.6 1.8-5.4 1.8-8.9 1.7-10.8 3.5-21.5 3.5-32.2q-18.7 8.1-37.5 10.7v264.2h34c-10.8-33.9-9-62.5 5.3-82.1 12.5-19.6 37.5-30.3 66.1-28.6zm357.1 10.7l53.5 10.8 32.2-35.7c12.5-12.5 12.5-19.7 5.3-28.6v-1.8l-66-108.9c-17.9 5.4-32.2 9-32.2 9-12.5 5.3-25 8.9-37.5 12.5-46.4 14.2-91 28.5-158.9 28.5h-1.8c-5.3 32.1-14.2 89.3 3.6 116l10.7 16.1-17.8 7.1c-10.7 5.4-12.5 9-12.5 10.7 0 14.3-1.8 32.2-14.3 46.5-10.7 10.7-26.8 16-48.2 17.8h201.7c-7.1-37.5 3.6-60.7 16.1-75 16.1-17.8 42.8-28.5 66.1-25zm-48.3 101.8h128.6l112.5-119.6c14.3-16.1 10.7-28.6 8.9-32.1-3.6-12.5-19.6-44.7-32.1-69.6-5.4-14.3-12.5-26.8-16.1-35.7-32.1-17.9-62.5-17.9-62.5-17.9-8.9 0-19.6 0-28.6 1.8l59 96.4c23.2 33.9 0 60.7-7.2 69.6l-44.6 48.2h-10.7l-62.5-10.7c-12.5 0-26.8 1.8-37.5 14.3-10.7 12.4-12.5 30.3-7.2 53.5zm376.8-71.4c7.1-19.6 23.2-32.1 42.8-35.7l58.9-12.5-5.3-48.2c-1.8-12.5-5.4-16-19.7-17.8-112.4-9-167.8-25-203.5-41.1 12.5 26.8 25 51.8 28.6 64.3 8.9 21.4 1.8 44.6-16.1 64.2l-91.1 96.4h214.3c-12.5-23.2-16.1-48.2-8.9-69.6zm-26.8-399.8c48.2 73.2 78.5 85.7 164.2 96.4-7.1-9-12.5-17.9-19.6-25-32.1-35.7-73.2-58.9-125-67.9-7.1-1.7-12.5-3.5-19.6-3.5z"/>
		<path id="Layer" class="s0" d="m312.9 593.7l-103.6-26.7v33.9l103.6 26.8z"/>
		<path id="Layer" class="s0" d="m71.8 627.7l103.6-26.8v-33.9l-103.6 26.7z"/>
		<path id="Layer" class="s0" d="m71.8 695.5l103.6-26.8v-33.9l-103.6 26.8z"/>
		<path id="Layer" class="s0" d="m312.9 661.6l-103.6-26.8v33.9l103.6 26.8z"/>
		<path id="Layer" class="s0" d="m312.9 729.4l-103.6-26.8v33.9l103.6 26.8z"/>
		<path id="Layer" class="s0" d="m71.8 763.3l103.6-26.8v-33.9l-103.6 26.8z"/>
	</g>
</svg>