<?xml version="1.0" encoding="UTF-8"?>
<svg id="Layer_1" data-name="Layer 1" xmlns="http://www.w3.org/2000/svg" viewBox="0 0 1047.07 391.63">
  <defs>
    <style>
      .cls-1 {
        fill: #1f36c7;
        fill-rule: evenodd;
      }
    </style>
  </defs>
  <path class="cls-1" d="M149.07,291.6c-.21-2.41-2.1-4.06-4.66-4.06-2.86,0-5.54,3-5.26,6.76.18,2.48,1.65,4.52,4.52,4.52,3.3,0,5.7-3.76,5.4-7.23h0ZM410.16,330.27c-1.06,2.95-5.72,10.02-9.48,10.02-6.33,0-7.67-16.69-13.24-16.69-4.36,0-18.14,16.96-21.89,16.57-1.51-.16-2.14-1.28-1.98-2.79v-.03c-2.6,1.68-5.18,3.47-8.18,2.45-3-1.02-4.82-5.01-5.36-6.48-.55-1.47-1.13-1.49-1.7-.58-2.05,3.28-4.31,5.08-6.95,6.38-2.64,1.31-5.82.99-7.1.49-1.65-.64-2.83-2.01-3.58-3.47-.2-.4-.37-.8-.5-1.2-1.56,2.15-3.03,4.73-8.13,5.31-5.1.58-9.26-4.46-10.53-8.15-.48-1.39-.98-1.47-1.41-1.01-1.69,1.8-3.54,3.63-6.44,5.74-2.9,2.11-5.75,3.21-9.36,3.57-3.61.37-7.01-.7-8.52-2.56-1.51-1.86-1.38-3.51.02-5.31,1.4-1.8,2.72,1.29,6.86.35,4.14-.93,4.02-9.24.35-12.76-1.35-1.29-2.25-1.17-3.11.1-4.02,7.32-8.01,12.57-14.5,18-2.37,1.5-4.65,2.09-6.49,1.28-4.02-3.31-2.35-12.61-4.77-12.67-2.42-.06-9.45,11.43-13.93,12.68-4.47,1.25-6.32-.76-7.28-2.2-.96-1.44-1.21-2.94-2.35-2.1-2.27,1.67-7.24,5.78-11.1,4.54-3.86-1.24-6.38-5.92-6.96-7.38-.58-1.47-1.35-.64-1.96.36-2.05,3.35-4.46,5.22-7.16,6.59-2.7,1.36-6.04,1.21-7.39.71-1.74-.64-2.97-2.01-3.77-3.47-.31-.56-.41-3.02-.55-3.61-1.7,3.44-6.96,7.37-8.97,7.37-6.33,0-7.67-16.69-13.24-16.69-4.36,0-18.14,16.96-21.89,16.57-1.51-.16-2.14-1.28-1.98-2.79.04-.42.15-.98.3-1.63-2.8,2.47-5.1,4.4-7.51,4.4-7.22,0-7.83-10.62-9.68-8.87-1.29,1.23-4.22,5.39-6.94,7.28-2.71,1.89-6.47,2.05-9.25,1.6-2.78-.45-5.97-1.99-7.8-6.82-1.83-4.83-2.66-15.91-2.56-17.46s-19.77,1.38-19.61,3.51c.16,2.13-.17,12.52-1.43,18.85-.67,3.38-9.79,3.74-9.2-.76,1.23-16.03,3.37-31.14-.84-46.33-1.24-4.48,8.56-5.99,9.23-2.03,1.07,6.28,1.38,14.27,1.9,20.72,1.88.91,19.65-1.44,19.76-2.22.66-4.92.71-10.03,1.89-16.14,1.17-6.11,12.15-5.57,10.02.5-4.95,14.09-2.3,34.22-.96,37.96,1.34,3.74,5.42,4.67,8.13,2.8,2.72-1.87,5.33-6.06,5.87-7.95.15-5.58,1.65-13.53,6.17-13.53,3.16,0,4.67,7.06,2.4,13.24,0,7.37,2.4,9.06,5.55,8.93s5.98-3.18,7.06-5.45c.09-.31.17-.6.24-.86,1.22-4.58,2.33-9.59,2.96-11.19.62-1.61,2.29-2.76,3.63-2.64.68.06.88,1.32,1.09,2.36.76,3.72,1.82,7.51,3.02,7.51,2.11,0,9.09-13.39,13.15-13.39,4.97,0,6.07,21.82,12.84,21.82,2.22,0,5.95-2.97,6.58-6.22,1.08-5.54,5.51-14.68,11.4-15.74,3.41-.61,5.09,2.8,5.77,1.46.35-5.2,1.13-17.84,2.08-22.92.56-1.87,6.61-.11,6.51,1.8-.64,11.48-.69,24.78.5,31.41,1.19,6.63,4.33,15.29,9.15,11.35,5.6-4.57,5.67-20.6,7.56-22.92,1.1-.83,4.74.45,4.8,1.72.8,3.5-1.87,12.35-1.91,15.12-.04,3.54,3.21,3.69,8.25-.82,2.68-2.39,5.77-6.97,7.71-10.79,1.71-3.37,2.75-6.01,4.15-5.32,1.4.69,1.88,1.32,2.22,2.63,1.75,6.65-2.24,19.81,4.88,18.5,5.34-.98,11.43-13.12,12.18-15.3.75-2.19-1.53-4.34.68-5.66,2.21-1.32,5.16-.08,7.08,1.39,2.3,1.75,4.76,4.62,6.27,7.3,1.51,2.68,2.3,6.66,2.39,10.27.06,2.28,6.04-.96,7.1-5.62.77-3.4,1.15-10.64,2.88-18.4-1.53-.11-12.26.18-8.62-4.82.88-1.21,5.26-1.05,9.27-1.17.66-2.2,2-7.81,3.59-10.9.57-1.11,4.89-.33,5.21,1.2.32,1.55-.73,8.17-.95,9.82,3.19.12,6.21-.55,9.24.47,2.81.95,2.8,4.48-.71,5.08-3.14.54-6.52.12-9.71.24-1.15,5.11-2.67,13.9-2.06,19.52.62,5.62,3.44,8.31,4.91,8.64,1.47.33,2.66-.51,4.16-2.04h0s.02-.03.02-.03c.17-.17.33-.35.49-.54,1.18-1.48,2.02-3.92,2.3-5.09,1.34-5.47,5.46-13.78,11.11-14.35,3.57-.36,5.34,3.99,6.26,3.28.72-.56.34-2.6.91-3.31.83-1.03,5.38-.14,5.47,2.19.12,3.06.4,6.03.88,9.34s1.42,12.4,7.06,10.54c.8-.26,2.58-1.71,3.23-2.62.36-1.23.7-2.37.94-3.21,1.22-4.58,2.33-9.59,2.96-11.19.62-1.61,2.29-2.76,3.63-2.64.68.06.88,1.32,1.09,2.36.76,3.72,1.82,7.51,3.02,7.51,2.11,0,9.09-13.39,13.15-13.39,4.97,0,5.57,21.07,12.33,21.07,2.46,0,4.89-3.8,5.87-5.11.98-1.32,2.87,1.63,1.81,4.57h0ZM337.27,326.23c.74-2.8,2.03-5.99,4.64-7.9,1.18-.87,4.02-.62,4.74,1.62.72,2.25.37,5.72-.31,7.87-.67,2.15-2.56,5.66-6,6.09-3.45.43-3.81-4.88-3.07-7.69h0ZM208.95,326.44c.54-2.8,2.72-8.41,5.47-10.32,1.47-1.02,3.92-.41,4.7,1.12.78,1.53.88,6.32-.29,9.8-1.17,3.49-3.38,6.57-6.9,7.06-3.52.48-3.52-4.87-2.98-7.67h0ZM647.3,110.1c1.04,7.58,12.53,17.8,15.64,17.56,2.08-.18,2.88-9.9,2.88-17.56,0-4.39.24-7.82-2.08-8.62-3.68,7.43-13.33,8.94-16.44,8.62h0ZM647.94,106.74c8.29,0,15.89-6.62,15.89-12.45,0-2.72-1.28-4.95-4.55-5.35.56.72.8,1.28.8,2.55,0,4.39-6.69,9.26-13.96,9.26-2.64,0-3.44,1.83-3.44,2.79,0,2.24,2.16,3.19,5.27,3.19h0ZM646.19,97.72c-1.12,0-2.72,0-3.6-1.75-.72-1.44-.48-3.76-1.84-4.79,1.36.4,2.79.4,3.91.4,3.6,0,7.03-2.47,9.67-2.47,1.74,0,2.3,1.12,2.3,2.23,0,3.52-7.09,6.39-10.45,6.39h0ZM467.64,160.3c2.71,0,2.15-16.61,6.54-16.61,1.04,0,1.36,1.04,1.36,2.32,0,3.75-1.84,9.26-1.84,12.29,0,1.52.4,2,1.12,2,1.92,0,5.27-18.28,8.54-18.28,1.04,0,1.52,1.04,1.52,2.08,0,3.83-4.87,14.85-4.87,17.96,0,.48.16.88.56.88,2,0,5.99-8.62,7.26-12.93.72-2.24,1.68-3.43,2.56-3.43.8,0,1.52.88,1.52,2.72,0,4.31-3.99,14.45-7.5,21.23-2.71,5.27-6.94,12.85-6.94,17.08,0,2.16.4,4.39,3.51,7.1-5.11-.32-7.18-.8-9.1-4.79-8.54,17,15.73,15.33,7.42,30.41-1.52-2.71-13.49-5.5-13.49-21.31,0-13.65,11.97-21.63,11.97-27.3,0-1.11-.4-2.07-1.43-2.95-2.64-2.24-2.72-4.07-4.79-4.07-1.52,0-3.36,3.51-1.44,6.62.64,1.04,1.2,1.68,1.2,2.64,0,2.23-3.51,8.22-5.98,8.22s-4.39-6.14-4.39-16.04c0-8.78,1.99-17.64,4.47-17.64.72,0,.96.48.96,1.12,0,1.04-.32,3.11-.32,6.62,0,3.75.88,4.08,1.6,4.08h0ZM487.99,183.69c3.36,0,6.15-2.48,6.15-7.98v-8.14c0-3.11.24-6.62,2.32-9.1-.24,1.04-.24,2.16-.24,3.19,0,6.87,3.83,11.58,3.83,18.2,0,2.47-.72,3.83-2.63,3.83s-1.68-1.68-2.08-1.68c-.32,0-.8,1.04-.8,2.16,0,1.68,1.2,4.31,4.55,4.31,2.88,0,5.19-2.63,5.19-5.59,0-7.18-5.59-15.16-5.59-22.82,0-3.36.88-5.59,1.6-7.35,0,15.89,13.49,27.46,13.49,34.08,0,1.52-1.12,2.72-2.79,2.72-1.84,0-2.72-1.44-2.72-2.56,0-.56-.08-.72-.32-.72-.47,0-1.91,1.6-1.91,3.68,0,2.63,2.15,5.83,6.15,5.83,4.55,0,7.02-3.84,7.02-7.27,0-8.38-16.36-21.07-16.36-34.64,0-2.32.4-6.07,2.08-8.94-10.54,6.78-13.81,15.8-13.81,23.71,0,6.87-.24,10.29-3.75,10.29-1.84,0-2.32-1.67-2.95-1.67-.48,0-.72,1.44-.72,1.83,0,2.95,2.16,4.63,4.31,4.63h0ZM626.32,103.95c3.52,0,6.15-1.6,6.15-2.56,0-.31-.48-.55-1.52-.55s-3.12-.08-7.03-.72c-3.36-.56-5.91-1.84-6.87-1.84-.32,0-.48.16-.48.4,0,2.08,3.83,5.27,9.75,5.27h0ZM608.92,93.81c1.01-.68,5.51.4,11.33-2.48.72-.39,1.44-.56,2.07-.56,2.8,0,2.08,3.19,4.64,3.19,1.99,0,4.55-1.68,6.07-1.68,2.38,0,5.81,7.51,5.81,11.02,0,4.07-6.13,6.55-13.4,6.55-10.61,0-17-9.26-17-15.25,0-.48.24-.64.48-.8h0ZM489.67,213.78c-2.63.64-6.87,4.79-6.87,11.34,0,7.82,8.38,19.87,22.19,19.87,11.65,0,14.52-8.06,14.52-13.49,0-12.05-7.42-20.51-17.08-20.51-5.27,0-9.98,3.83-9.98,9.5,0,5.27,3.99,13.17,13.49,13.17,4.47,0,7.1-3.2,7.1-6.86s-3.27-8.54-8.06-8.54c-1.44,0-2.47.95-2.47,2.47,0,1.91,2.63,3.83,5.9,3.83.8,0,1.44-.16,1.76-.32.16.24.24.64.24.96,0,1.84-1.76,2.96-4.47,2.96-4.07,0-7.98-3.03-7.98-7.83,0-2.87,2.48-4.94,6.07-4.94,7.1,0,11.33,6.3,11.33,12.61,0,5.66-3.11,8.94-9.5,8.94-12.77,0-19-11.5-16.21-23.15h0ZM574.59,244.59c0,1.76,1.44,3.19,3.19,3.19s3.19-1.44,3.19-3.19-1.44-3.2-3.19-3.2-3.19,1.44-3.19,3.2h0ZM580.78,260.55c3.83,0,3.63-.32,4.83-.32s1.28.72,1.28,1.2c0,1.76-3.92,3.92-10.86,3.92-4.07,0-6.55-2.16-7.27-4.55-3.99,2.56-10.05,4.87-16.04,4.87-16.36,0-20.51-7.11-25.62-9.42-3.91-1.76-9.9,1.68-18.28-7.66,1.12.24,2.64.32,3.83.32,7.34,0,11.25-3.59,11.25-9.34,0-.72-.08-1.51-.16-2.23,2.24.88,7.34,4.7,8.54,11.48.16.8,3.43,1.52,5.5,1.52,2.88,0,6.55-1.2,7.11-5.9,9.58-.8,16.05-6.46,17.4-13.65,3.43,1.12,7.34,4.23,8.3,5.83,1.36-.48,2.95-.72,4.79-.72,2.55,0,5.43.48,8.86,1.52.16-1.04.32-2.32,1.92-2.32,2.39,0,1.75,2.64,2.55,4.15.4.8,2.4,1.28,2.4,2.88s-1.29,2.08-2.08,2.08c-.32,0-.72-.08-.96-.16-1.59.56-1.67,12.05-8.38,12.05-4.95,0-9.5-4.07-11.49-9.17-.56-1.52-1.75-2.48-2.87-2.48-1.27,0-1.99.24-3.51,1.92-4.31,4.7-11.5,8.77-20.35,8.77-2.72,0-4.87-.24-5.43-.24-.32,0-.32.08-.32.16,0,.56,2.71,2.72,8.62,2.72,14.05,0,17.48-7.9,19.71-7.9.32,0,1.27,0,1.83,1.28,3.27,7.65,10.42,9.41,14.89,9.41h0ZM629.19,209.7c-1.68,0-10.95,12.37-16.92,12.37-1.44,0-2.63-2.72-2.63-4.78,0-1.12.72-1.92,3.28-2.48,13.72-3.11,10.69-13.41,22.41-13.41,6.47,0,13.66,4.39,13.66,14.29,0,10.54-15,23.62-17.23,23.62-1.84,0-3.84-2.63-3.84-4.39,0-.56.24-1.28,1.84-1.91,7.65-3.04,12.04-10.06,12.04-13.65,0-.8-.4-1.59-1.44-1.59-1.35,0-7.17,13.24-13.64,13.24-4.48,0-9.03-4.06-9.03-5.98,0-3.2,12.94-9.1,12.94-13.57,0-1.68-.8-1.76-1.44-1.76h0ZM637.8,204.76c-1.12,0-2.31.88-2.31,3.04,0,2.39,1.84,3.91,2.87,4.38.56.32,1.44.64,2.31.64,2.32,0,4.16-.64,4.16-2.56,0-2.47-3.6-5.5-7.03-5.5h0ZM488.71,112.33c0,1.76,1.44,3.2,3.2,3.2s3.19-1.44,3.19-3.2-1.44-3.19-3.19-3.19-3.2,1.44-3.2,3.19h0ZM484.56,105.15c0,1.75,1.44,3.19,3.19,3.19s3.19-1.44,3.19-3.19-1.44-3.2-3.19-3.2-3.19,1.44-3.19,3.2h0ZM481.69,127.02c-1.84.48-5.67,2.71-5.67,6.7,0,2.87,2.23,4.71,5.03,4.71,1.44,0,2.47-.32,3.11-.8-2.23-2.15-3.03-4.55-3.03-6.94,0-1.68.24-2.71.56-3.67h0ZM462.13,128.14c-.08.4-.08.8-.08,1.2,0,3.75,1.99,5.83,4.63,5.83,1.99,0,4.31-1.2,6.38-3.83-.87.16-1.91.24-2.87.24-2.95,0-6.14-.79-8.06-3.43h0ZM459.34,135.24c0,6.06,1.84,8.94,5.11,8.94,2.55,0,5.98-1.84,10.05-5.35-3.11.72-5.51,1.2-7.66,1.2-2.87,0-5.1-1.12-7.5-4.79h0ZM480.01,103.31c.4-1.28.72-2.87.72-4.63,0-3.83-1.76-9.66-7.19-9.66-3.11,0-5.35,2.47-5.35,5.43,0,6.31,6.31,8.86,11.82,8.86h0ZM473.22,123.43c-2.63,0-5.5-3.27-5.5-6.23,0-1.59,1.2-3.59,2.07-3.59.32,0,.48.24.56.8.48,3.91,3.03,6.15,5.43,7.26.24.16.4.24.4.4,0,.56-1.52,1.36-2.96,1.36h0ZM480.57,113.69c.55.75,2.08,1.68,2.08,2.24,0,1.11-.64,2.55-1.92,2.55-2.8,0-5.03-4.23-5.03-6.63,0-1.51.88-1.67,2.07-1.67.56,0,.8.08,1.2.32.72.4.72,1.99,1.6,3.19h0ZM461.81,123.59c-.15.25-.24.56-.24.88,0,.72.8,1.52,1.51,1.52.64,0,1.04-.16,1.36-.16,1.91,0,4.07,1.35,7.18,1.35,1.83,0,3.99-.56,6.7-1.91,5.75-2.88,7.98-9.98,7.98-11.18,0-1.52-1.22-1.32-2.24-2.72-1.02-1.39-.63-2.62-1.28-3.27-.37-.37-1.51-.4-2.95-.56-.48-.05-1.12-.08-1.76-.08-2.63,0-5.75.32-9.26,2.56-6.92,4.42-5.91,11.73-7.02,13.57h0ZM488.31,120.39c-1.76,2.07-3.59,5.59-3.59,9.18,0,4.31,2.64,7.9,6.71,7.9s5.75-3.35,5.75-6.78c0-5.35-4.87-9.1-8.86-10.3h0ZM471.23,105.07s-2.32,1.75-5.19,1.75c-3.43,0-6.15-2.55-6.15-6.14,0-2.48,1.28-5.03,4.23-6.31-.08.48-.08.88-.08,1.36,0,4.55,2.55,7.98,7.18,9.34h0ZM611.95,131.56c0,1.84,1.52,3.36,3.34,3.36s3.36-1.52,3.36-3.36-1.52-3.35-3.36-3.35-3.34,1.52-3.34,3.35h0ZM612.19,141.62c0,2.08,1.68,3.76,3.74,3.76s3.76-1.68,3.76-3.76-1.68-3.75-3.76-3.75-3.74,1.68-3.74,3.75h0ZM600.69,148.41c0,3.03,2.47,5.51,5.51,5.51s5.51-2.48,5.51-5.51-2.48-5.51-5.51-5.51-5.51,2.48-5.51,5.51h0ZM603.65,137.15c0,1.76,1.44,3.19,3.2,3.19s3.19-1.44,3.19-3.19-1.44-3.19-3.19-3.19-3.2,1.44-3.2,3.19h0ZM593.2,143.54c0,1.76,1.44,3.19,3.18,3.19s3.2-1.43,3.2-3.19-1.44-3.19-3.2-3.19-3.18,1.44-3.18,3.19h0ZM601.41,124.86c0,2.79,2.32,5.11,5.11,5.11s5.11-2.31,5.11-5.11-2.32-5.11-5.11-5.11-5.11,2.31-5.11,5.11h0ZM607.4,115.05c0,1.67,1.36,3.03,3.04,3.03s3.04-1.36,3.04-3.03-1.36-3.04-3.04-3.04-3.04,1.36-3.04,3.04h0ZM592.96,122.71c0,1.68,1.36,3.04,3.02,3.04s3.04-1.36,3.04-3.04-1.36-3.03-3.04-3.03-3.02,1.36-3.02,3.03h0ZM592.56,133.08c0,2.72,2.16,4.87,4.86,4.87s4.88-2.15,4.88-4.87-2.16-4.87-4.88-4.87-4.86,2.15-4.86,4.87h0ZM582.5,138.19c0,2.48,2.07,4.55,4.55,4.55s4.55-2.07,4.55-4.55-2.08-4.55-4.55-4.55-4.55,2.08-4.55,4.55h0ZM585.21,126.94c0,1.75,1.44,3.19,3.19,3.19s3.2-1.44,3.2-3.19-1.44-3.19-3.2-3.19-3.19,1.44-3.19,3.19h0ZM613.23,151.52c0-1.59,1.44-2.95,3.02-2.95,1.76,0,3.12,1.36,3.12,2.95,0,1.84-1.36,3.12-3.12,3.12-1.58,0-3.02-1.28-3.02-3.12h0ZM615.29,243.31c.4,0,.88.24.88,1.68,0,1.76-.8,4.07-3.65,5.9-2,1.36-4.71,2.48-8.71,2.55.64-1.91,1.12-3.91,1.12-5.81,0-.64-.08-1.12-.16-1.84h1.04c6.31,0,9.03-2.48,9.49-2.48h0ZM615.93,235.41c.65-.55.8-1.44.8-2.32v-1.84c0-2.32-3.5-3.67-8.29-3.67-5.83,0-8.95,2.63-8.95,3.75v3.67c0,1.52,3.52,3.04,7.83,3.04,3.44,0,6.55-.88,8.61-2.64h0ZM620.08,236.29c-2.08,1.6-6.93,5.18-15,5.18-4.31,0-6.23-1.36-6.87-1.36-.8,0-1.68.8-2.56,1.84-1.9,2.24-4.37,6.39-4.37,10.93,0,3.19,2.48,6.38,7.09,6.38,14.94,0,26.11-9.33,26.11-16.91,0-4.31-2.55-6.06-4.39-6.06h0ZM622.88,169.16c0,1.99.64,4.31,2.64,4.31,1.68,0,3.12-2.55,3.12-5.35,0-3.19-.56-5.67-.56-6.95,0-.56.24-.79.56-.79,1.2.08,2.32,3.35,3.6,3.35,1.44,0,3.58-2.64,4.46-2.64.24,0,.32.32.32.4,0,1.2-1.84,3.84-1.84,4.87,0,.88,4.63,1.04,4.63,1.84,0,1.2-4.86,1.2-7.17,2.24-2.24.96-3.6,2.15-3.6,3.75s1.6,1.91,3.84,1.91c5.34,0,9.08-2.87,10.28-2.87.24,0,.4.16.4.4,0,.8-2.71,3.43-2.71,4.63,0,1.36,4.95,2.95,4.87,3.75-.08.24-.4.32-.96.32-.88,0-2.24-.24-3.28-.24-.64,0-1.2.08-1.44.4-.55.64.16,4.87-.95,4.87-1.04,0-3.76-9.42-9.89-9.42-.88,0-1.52.72-1.52,1.92,0,3.19,3.12,6.86,6.07,8.62,1.34.88,3.58,1.76,3.58,2.24,0,.95-5.1.08-5.1,1.67,0,1.44.64,3.6.64,4.87,0,.4-.08.88-.56.88-.96,0-3.28-4.39-4.39-4.39-.96,0-3.03,2.63-3.92,2.63-.24,0-.4-.24-.4-.47,0-1.84,2.96-5.99,2.96-10.06,0-1.92-.24-6.07-2.56-6.07-1.91,0-4.07,3.03-5.03,6.07-.56,1.75-.16,8.54-1.44,8.54-1.2,0-.88-4.55-2.48-4.55-1.18,0-3.74,2.15-4.61,2.15-.16,0-.32-.08-.32-.24,0-.96,2.32-4.07,2.32-4.71,0-1.2-5.27-1.35-5.27-2.31,0-.56,2.08-.96,3.99-1.28,4.06-.72,10.05-3.67,10.05-7.82,0-4.63-4.47-6.63-7.41-8.54-1.52-.96-3.2-1.75-3.2-2.39s1.92-.64,2.72-.64c1.2,0,2.38-.08,2.38-1.04,0-.72-.16-2.15-.16-3.27,0-.8.08-1.44.4-1.44,1.2,0,2.88,3.91,3.68,3.91,1.28,0,3.03-3.19,4.23-3.19.4,0,.56.24.56.96,0,2.95-1.52,6.3-1.52,9.18h0ZM584.81,145.78c.88,6.78,9.99,3.35,9.99,11.57,0,1.2-.32,2.96-.32,4.47,0,1.76.16,3.28,1.5,3.28s1.68-.96,1.68-2.24-.32-2.87-.32-3.75c0-2.8,2-3.43,3.2-3.43,3.04,0,5.35,3.11,9.91,3.11-1.04,5.11-11.58,3.75-11.58,9.34,0,2.8,2.8,3.43,4.63,3.43,1.68,0,2.24-.24,2.24-1.67,0-.8-.16-1.68-.16-2.24,0-.32.24-.64.64-.64,1.76,0,10.37,6.55,10.37,8.54,0,1.83-9.09,3.67-11.72,3.67-.8,0-.96-.56-.96-.88,0-.56,1.36-2.24,1.36-3.19,0-.72-1.2-1.2-4.39-1.2-1.52,0-2.64.16-2.64,1.36,0,2.15,3.52,4.79,3.52,6.78,0,1.6-.96,2.56-3.52,2.56-2.16,0-5.42-1.68-5.42-4.47,0-2.23,2.3-4.47,2.3-5.82,0-.4-.3-1.04-1.26-1.04-2.96,0-3.76,7.82-14.22,8.7,1.68-1.51,3.11-3.19,3.11-6.62,0-1.68-.4-3.04-.4-4.87,0-2.4,1.11-3.6,2.71-3.6,2.95,0,4.39,4.15,6.31,4.15,1.04,0,2.16-.95,2.16-2.39,0-6.07-11.66-5.19-11.66-13.73,0-2.32.79-5.19,2.95-9.18h0ZM599.97,197.66c0,1.12.8,2,1.92,2,1.28,0,2.08-1.12,2.08-2.4,0-1.67-1.52-3.99-2.96-3.99-.64,0-.4.96-.56,2-.08.8-.48,1.75-.48,2.39h0ZM595.82,187.04c8.39,1.6,12.94,7.9,12.94,13.81,0,4.07-2.55,7.82-7.03,7.82-4.07,0-7.01-2.79-7.01-7.26,0-3.35,2.62-6.86,2.62-10.3,0-1.35-.4-2.71-1.51-4.07h0ZM585.21,200.61c.8.79,1.04,1.59,1.04,2.39,0,1.2-.56,2.48-.56,3.83,0,1.91,1.44,3.59,3.51,3.59,2.24,0,3.76-1.76,3.76-3.83,0-3.04-3.12-5.99-7.75-5.99h0ZM611.63,195.5c.56.87.8,1.75.8,2.55,0,2.24-1.52,4.31-1.52,6.63,0,2.64,2,4.79,5.02,4.79,3.28,0,5.51-2.63,5.51-5.74,0-4.23-3.84-7.82-9.81-8.22h0ZM587.12,191.27c3.68.48,4.56,1.76,4.56,2.8,0,1.76-1.6,2.31-3.12,2.31-1.12,0-2.39-.24-3.75-.24-1.76,0-3.51.4-4.95,2.08,1.04.16,2.56.88,2.56,2.48,0,4.63-12.85.79-12.85,12.69,0,6.3,6.55,13.17,16.44,13.17,5.11,0,8.39-1.68,8.39-3.59,0-1.52-2.71-.48-2.71-1.76,0-.56.96-1.6.96-2.48,0-.39-.32-1.11-.96-1.11-1.44,0-4.16,2.31-9.67,2.31-4.31,0-8.54-2.47-8.54-5.82,0-.72.32-1.12.8-1.12s1.12.32,1.68.32c.48,0,.56-.32.56-1.2s0-3.36,1.51-3.36,4.39,5.59,15.42,5.59c3.66,0,10.77-.72,13.4-3.11-.08,8.78-6.95,20.35-21.31,20.35s-22.91-11.97-22.91-22.99c0-12.21,9.97-23.3,23.63-23.3,3.51,0,6.47,1.19,6.47,2.71,0,2.08-5.19.8-5.59,3.27h0ZM535.48,100.12c5.27,0,7.66,4.55,7.66,9.66,0,2.23-.63,5.51-1.67,5.51s-.88-1.84-1.04-3.52c-.16-2.15-.56-2.63-1.28-2.63-1.36,0-2.23,3.19-2.23,6.15,0,1.83.32,3.91,1.75,3.91.8,0,1.52-.4,2-.88-.32,3.67-3.04,6.87-6.86,6.87-7.02,0-9.66-8.22-10.46-13.01-4.23,4.47-8.14,7.74-15.16,7.74-6.54,0-9.5-4.79-9.5-9.34,0-1.36.48-4.87,2.16-4.87,1.99,0,.24,6.54,4.15,6.54.96,0,2.71-.8,3.67-3.43.56-1.6.88-3.27.88-4.71,0-2.16-.48-3.51-2.07-3.51-1.36,0-3.04,1.03-3.6,1.59,1.92-5.75,6.55-8.7,11.65-8.7,6.31,0,9.66,5.59,9.66,11.81,0,.88-.08,1.83-.24,2.71,2.71-4.47,6.47-7.9,10.54-7.9h0ZM529.34,109.54c0-1.36-.32-1.68-.64-1.68-.8,0-1.67.96-2.95,3.12.16,2.87.64,4.15,1.44,4.15.88,0,2.15-2.8,2.15-5.59h0ZM518.4,112.81c.88,0,2-.96,4.08-3.27.16-1.04.16-2,.16-3.2,0-1.59-.64-3.35-1.6-3.35-2.4,0-3.59,6.39-3.59,8.06,0,.95.48,1.75.95,1.75h0ZM531.41,119.92c1.99,0,4.23-7.66,4.23-12.45,0-1.04-.16-2.15-.64-2.15-1.68,0-4.47,7.9-4.47,12.21,0,1.68.4,2.4.88,2.4h0ZM511.86,115.53c2.71,0,5.82-14.69,5.82-17.16,0-.64-.24-1.12-.79-1.12-2.47,0-5.91,13.97-5.91,17.08,0,.56.16,1.2.88,1.2h0ZM520.55,121.59c-3.43,0-3.59,4.16-3.59,12.53-2.55-5.51-6.78-11.41-11.73-11.41-3.35,0-4.63,2.24-4.63,6.14,0,.8.08,2,.24,2.71.4-1.35,1.68-1.91,3.27-1.91,3.44,0,7.58,2.63,10.3,6.23-3.11-.56-6.15-1.12-8.7-1.12-1.6,0-3.04.16-4.23.72-2.32,1.03-5.43,4.47-5.43,9.66,0,.8.08,1.67.24,2.63,2.79-6.23,10.22-9.02,15.01-9.02.96,0,1.67.08,2.23.16-2.47,2.23-3.03,6.15-3.19,8.78-.08,1.28-.56,1.36-1.44,1.36,0,2.63,2.08,6.55,2.08,8.54,0,.72-.4,1.36-.8,1.52,0,3.51,3.51,6.07,3.51,8.3,0,.56-.16,1.04-.4,1.28.24,1.44,4.1,3.85,4.6,5.06.61,1.47,1.3,1.72,1.7,1.72,1.36,0,3.51-1.6,3.51-3.04,0-.48-.4-1.04-.71-1.28-1.52-1.11-2.32-3.51-2.96-5.1-.56,0-1.28-.24-1.53-1.18-.44-1.65-.46-4.73-1.1-6.57-1.04-.24-1.52-.64-1.52-2.79,0-1.04.64-5.11.64-6.55-.48,0-1.12-.32-1.12-1.28,0-2.55,2.55-4.55,3.27-7.82,4.55,3.35,5.67,6.78,5.67,9.82,0,1.59-.24,3.11-.56,4.55,3.36-1.68,8.38-4.15,8.38-9.18,0-2.96-1.36-6.23-10.38-7.51,2.79-1.04,6.31-1.59,9.26-1.59,5.11,0,8.06,1.59,8.7,5.18,1.04-1.59,1.84-3.43,1.84-5.1,0-3.91-3.28-6.47-7.42-6.47-4.87,0-9.18,2.55-13.81,5.67,2.08-4.31,3.51-6.86,6.07-6.86.4,0,.8.08,1.2.16-.96-3.51-4.55-6.95-6.47-6.95h0ZM655.04,179.14c3.99,0,7.19,5.19,7.19,11.26,0,6.46-3.04,13.49-8.45,18.27-.08-10.77-13.27-7.34-13.27-15.16,0-3.35,2.4-5.59,5.28-5.59,2.56,0,4.55.72,5.99,2.16-1.44-1.36-2.16-3.28-2.16-5.11,0-3.04,1.92-5.83,5.42-5.83h0ZM595.82,97.48c-.64-1.04-3.02-1.59-4.14-1.59-3.52,0-5.91,2.47-6.39,4.71-.32-.8-.56-1.76-.56-2.72,0-3.51,2.4-7.82,8.23-7.82,5.1,0,7.09,2.71,7.81,2.71.8,0,1.6-.8,2.24-.8.88,0,.88,1.36.88,2.32,0,3.19-1.44,8.7-5.03,10.7-.64-1.36-1.92-2.88-3.98-3.83-.56-.24-.8-.72-.8-1.2,0-.88.8-2,1.74-2.48h0ZM583.77,103.31c2.08,2,3.91,2.87,6.15,2.87.88,0,1.92-.24,2.48-.24.72,0,1.2.32,1.2.87,0,.88-.8,2.32-1.76,3.12.96.4,2,.56,3.12.56,4.54,0,9.73-2.88,9.73-10.06.96,1.27,1.52,3.91,1.52,5.11,0,8.7-6.39,12.05-12.29,12.05-3.84,0-5.76-1.28-6.24-1.28-1.51,0-1.43,3.04-2.47,2.96-1.84-.32-3.51-4.39-3.51-8.7,0-2.56.64-5.27,2.07-7.27h0ZM515.45,52.55c0-.48-2.39-.96-5.67-.96-5.19,0-4.47,4.32-8.46,4.32s-3.12-4.47-8.38-4.47c-3.19,0-6.14.56-6.14,1.28,0,.96,3.75.56,3.75,3.2,0,2.79-8.06,3.59-8.06,5.27,0,.56.63.8,1.43.8,1.76,0,4.55-.8,6.55-.8,1.12,0,2.16.24,2.16,1.28,0,2-4.31,5.59-4.31,7.18,0,.48.4.64.8.64,1.6,0,4.31-4.07,6.87-4.07,4.23,0,1.44,9.02,3.75,9.02s1.36-8.86,4.79-8.86c2.8,0,4.87,6.15,6.79,6.15.48,0,.88-.4.88-.96,0-1.67-2.4-5.11-2.4-7.34,0-1.36.96-2,2.24-2,1.83,0,4.31,1.12,5.66,1.12.48,0,.96-.16.96-.72,0-1.91-7.1-3.99-7.1-6.46s3.91-2.48,3.91-3.59h0ZM534.2,60.69c0,1.43,5.03,4.55,7.35,4.55,1.35,0,1.75-1.84,1.75-3.76,0-2.39-1.03-2.47-3.11-2.47-2.63,0-5.99.72-5.99,1.68h0ZM542.51,76.49c0-4.79-12.95-13.49-13.09-17.24-.01-.34.17-.68.46-.99,2.22-2.34,11.43-4.04,11.43-6.04,0-1.04-1.92-1.04-2.88-1.04-7.42,0-18.28,2.71-18.28,5.35s9.74,9.34,9.74,12.61c0,.88-.56,1.2-1.44,1.2-2.71,0-8.62-3.28-11.41-3.28-1.28,0-1.76.88-1.76,2.16,0,3.83,4.55,11.09,4.55,13.24,0,.24-.08.56-.4.56-1.44,0-8.22-7.98-10.61-7.98-.88,0-.96,1.19-.96,2.95v2.71c0,1.83-.08,2.95-.95,2.95-2.08,0-3.04-5.83-5.03-5.83s-2.48,10.38-4.47,10.38c-2.32,0-.32-11.41-2.56-11.41-2.47,0-5.27,7.58-7.03,7.58-.64,0-.8-.64-.8-1.2,0-2.31,1.35-6.06,1.35-8.3,0-1.12-.32-1.76-1.28-1.76-2.48,0-7.9,3.99-9.98,3.99-.32,0-.72-.16-.72-.48,0-1.91,8.7-7.98,8.7-10.69s-11.98-.88-11.98-3.92c0-2.55,8.55-5.19,8.55-7.82,0-2.32-10.14-3.35-14.05-3.35-4.71,0-7.26.55-7.26,1.91,0,2.08,10.69,2.72,10.69,4.55s-11.09,6.47-11.09,9.18c0,2.4,15.64.16,15.64,2.64,0,2.71-13.65,14.44-13.65,18.35,0,.88.64,1.28,1.51,1.28,4.15,0,14.92-7.9,17.88-7.9,1.04,0,1.12,1.27,1.12,2.39,0,2.08-.72,5.27-.72,7.58,0,1.83.48,3.11,2.07,3.11,2.96,0,5.67-5.03,7.66-5.03,2.55,0,1.04,14.77,4.87,14.77,3.27,0,4.63-15.96,6.7-15.96s3.76,4.63,5.67,4.63c2.4,0,1.28-8.06,3.83-8.06,2.79,0,10.77,9.58,14.36,9.58,1.11,0,1.51-.88,1.51-2,0-4.23-5.9-13.8-5.9-16.84,0-.8.24-1.04,1.11-1.04,3.12,0,12.22,4.31,16.52,4.31,1.44,0,2.32-.8,2.32-1.84h0ZM469.63,71.86c0,1.6-6.06,6.94-8.22,6.94-.8,0-1.04-.96-1.04-1.83,0-1.59.72-3.83,1.6-4.55,1.03-.96,3.43-1.43,5.27-1.43,1.11,0,2.39.24,2.39.87h0ZM528.3,80.09c0,2.79,9.98,16.44,11.89,16.44,1.6,0,2.79-2.79,2.79-5.19,0-.63-.16-1.27-.47-1.75-1.44-2-11.58-9.98-13.81-9.98-.24,0-.4.24-.4.48h0ZM656.48,55.9c0,1.11.88,1.99,2,1.99s2-.88,2-1.99-.88-2-2-2-2,.88-2,2h0ZM643.47,73.54c0-5.67-13.56-7.1-13.56-8.38,0-1.04,7.57-2.8,11.48-2.87-5.99-7.66-14.52-6.86-14.52-8.22,0-.8,6.39-2.4,12.29-2.4,4.95,0,9.58,1.12,9.58,4.87,0,2.08-1.68,4.24-1.68,7.43,0,1.76.88,3.27,3.2,3.27,2.48,0,3.04-2.63,3.04-5.43,0-2.31-.4-4.07-.4-5.19,0-3.35,2.3-5.58,5.58-5.58,2.72,0,3.36,1.19,7.35,1.19-2.16,1.28-2.96,3.6-2.96,4.71,0,3.36,2.16,5.67,2.16,12.53,0,12.61-11.81,17.08-26.26,17.08-3.97,0-8.21-.32-12.37-.95-.64-.08-.8-.24-.8-.64,0-1.04,5.67-1.6,5.67-6.7,0-2-.64-3.91-.64-4.63,0-.4.32-.64.64-.64,1.2,0,3.6,4.63,8.05,4.63,1.19,0,4.15-.4,4.15-4.07h0ZM656.95,65.48c0,7.1-5.17,12.53-14.53,14.04,1.04.08,2,.08,2.96.08,10.93,0,14.92-4.95,14.92-9.09,0-2.32-1.28-4.39-3.36-5.03h0ZM651.46,168.36c1.28-3.99,2.88-6.79,5.49-11.1-2.62-1.35-9.57-4.23-9.57-8.94,0-5.51,6.87-9.82,8.29-9.82.64,0,.8.56.8,1.6,0,2.87-1.36,7.5-1.36,9.98,0,2.23,1.44,4.39,2.72,4.39,1.36,0,5.11-4.79,5.11-9.5,0-8.46-7.43-11.02-9.73-11.02-2.16,0-6.07,3.51-15.25,3.51-17.16,0-21.07-17-21.07-24.42,0-.32.08-.4.16-.4.4,0,2.08,2.08,7.51,2.08,2.8,0,5.35-.72,9.43-.72,9.56,0,13.8,6.63,19.71,15.08,3.58,2.23,12.12,5.83,12.12,15.96,0,8.94-9.51,13.89-11.81,23.47,3.66-.4,5.81-6.95,9.57-6.95,1.92,0,2.8,1.52,2.8,3.92,0,3.51-2,8.78-5.83,12.05.08-.32.08-.72.08-1.2,0-2.23-.88-5.42-3.44-5.42-3.98,0-5.26,4.31-7.49,7.9-2.32-8.14-5.43-15.48-11.02-19.95-5.65-4.55-15.4-2.08-15.4-10.38,0-2.24,1.44-5.43,1.44-7.98,0-.88-.16-1.68-.64-2.32,7.67,2.88,4.95,7.98,9.67,13.25,2.94,3.36,11.08,6.55,15.8,20.35.08-.4.16-1.43.16-2.15,0-11.81-15.64-23.39-16.99-28.18,9.08,1.04,10.68,3.28,15,15.25.88,2.48,3.76,8.63,3.76,11.66h0ZM649.38,129.65c0-1.68-4.24-1.83-4.63-6.54-.08-.72-.32-1.99-1.2-1.99-1.44,0-.32,4.39-1.92,4.39-3.67,0-4.87-7.19-6.22-7.19-.32,0-.7.24-.7,1.2,0,.88.16,1.44.16,2.47s-.24,1.76-1.2,1.76c-2.16,0-4.07-5.03-5.91-5.03-.4,0-.8.24-.8.64,0,.96,1.6,2.71,1.6,3.59,0,1.92-5.19.88-5.19,2.48,0,.72.72.96,1.67.96,1.68,0,4.32-.71,5.67-.71.8,0,2,.16,2,1.19,0,1.12-2.88,2.55-2.88,3.59,0,.48.48.72.88.72,2.16,0,5.98-3.75,8.69-3.75.48,0,1.67.24,1.67.96,0,1.03-2.71,2.87-2.71,4.39,0,.4.24.88.72.88,1.43,0,3.35-3.75,6.06-3.75,1.04,0,2.56.4,3.36.4.64,0,.88-.4.88-.64h0ZM589.92,81.84c1.28,0,1.52,3.12,1.76,4.95.16.96.32,1.04.72,1.04.96,0,2.47-3.67,3.5-3.67,1.51,0,5.59,4.23,12.38,4.23,9.65,0,18.76-6.79,18.76-18.76s-8.15-18.36-19.4-18.36c-5.35,0-9.27,2.63-11.34,2.63-1.26.08-3.18-3.11-4.14-3.11-.4,0-.8.79-.8,2.15,0,.88,0,3.67-.96,3.67-1.92,0-9.34-5.5-9.34-3.51,0,1.84,4.95,7.43,4.95,8.86s-4.87,2.8-4.87,3.75c0,1.75,5.19,2.07,5.19,4.31s-5.43,3.99-5.43,5.67c0,1.35,5.43.4,5.43,2.07s-3.99,7.26-3.99,8.86c0,.4.08.4.4.4,1.52,0,6.06-5.19,7.18-5.19h0ZM592.24,68.75c0-.88-3.12-2.55-3.12-3.51,0-.16.16-.24.4-.24.88,0,2.4.32,3.6.32,1.04,0,1.2-4.47,1.98-4.47.56,0,1.51,4.23,2.4,4.23,1.04,0,2.95-1.2,3.75-1.2.16,0,.32.08.32.24,0,.56-2,2.71-2,3.35,0,.72,4.47,1.6,4.47,2.24,0,.8-4.55.72-4.55,1.44,0,.55,1.68,2.79,1.68,3.51,0,.16-.08.24-.24.24-.64,0-3.12-1.12-3.84-1.12-.88,0-2.3,3.27-3.02,3.27-.24,0-.4-.32-.4-.72l-.16-3.19c0-.32-.16-.64-.56-.64-.96,0-2.8-.08-3.36-.08-.4,0-.56-.08-.56-.24,0-.64,3.2-2.87,3.2-3.43h0ZM607.8,83.92c-5.59,0-9.27-2.79-9.27-4.23,0-.72.48-1.19,1.12-1.19,1.76,0,5.59,2.71,6.87,2.71.32,0,.56-.16.56-.64,0-1.44-1.36-3.83-1.36-5.03,0-.32.24-.56.72-.56,2.15,0,5.35.88,7.03.88.56,0,.72-.32.72-.64,0-1.76-5.19-5.19-5.19-6.23,0-.96,6.46-2.4,6.46-3.91,0-1.6-8.77-.48-8.77-2,0-1.12,1.68-3.03,1.68-3.91,0-.4-.32-.56-.88-.56-.72,0-4.55,1.52-6.15,1.52-.8,0-1.76-.16-1.76-1.28,0-1.84,3.12-3.83,7.99-3.83,7.89,0,12.61,5.43,12.61,14.53,0,11.49-8.05,14.36-12.37,14.36h0ZM553.76,222c0,.72-.24,1.52-.88,2.32-.87-1.6-3.35-2.4-4.47-2.4-8.22,0-5.11,11.89-13.89,11.89-3.67,0-3.99-.48-5.35-.48-.56,0-.88.24-.88.72,0,2.08,2.95,7.18,11.17,7.18s16.13-5.02,16.13-11.26c0-1.04-.24-2.15-.72-3.27.32-.48,1.12-.8,1.84-.8,1.27,0,1.99,1.44,3.19,1.44,1.28,0,2.24-.96,2.24-2.24,0-1.04-.56-1.76-1.52-2.24.64-.48,1.12-1.28,1.12-2.16,0-1.36-.96-2.63-2.56-2.63-.72,0-1.2.24-1.75.79-.16-1.43-.96-2.79-2.48-2.79-1.2,0-2.08.88-2.08,2.24,0,1.27.88,2.31.88,3.67h0ZM532.29,225.04c-2.4,0-5.99-2.56-5.99-4,0-1.2,1.12-1.84,1.99-1.84,2,0,5.59,2.48,5.59,4.55,0,.56-.4,1.28-1.59,1.28h0ZM510.02,207.16c6.38,1.59,9.58,5.02,10.22,9.1.64,3.91,1.44,7.1,2.95,8.7,2,2.24,5.91,4.23,9.34,4.23,2.87,0,5.18-.95,5.18-3.59,0-2.88-3.91-9.34-9.66-9.34-.55,0-1.27.08-2.07.08-.72,0-1.76-.16-2.4-.72-1.27-1.12-1.67-7.11-4.07-10.7-2.63-3.99-5.5-5.11-9.42-5.11-2.79,0-5.91,1.51-5.91,3.75,0,1.36.72,2.32,5.83,3.6h0ZM550.09,197.41c0-3.59-7.43-3.67-7.43-9.1,0-1.36.88-3.67,2.64-6.15.72,4.15,2.39,6.31,5.99,7.67,7.1,2.63,8.06,6.62,8.06,10.86,0,7.19-5.03,16.12-17.96,16.12-10.38,0-17.8-9.26-17.8-17.08,0-2.16.56-4.55,1.92-4.55,1.2,0,1.6.95,2.55,1.91,3.6,3.59,7.5,4.55,13.17,4.55,5.11,0,8.86-2.07,8.86-4.23h0ZM550.41,203.16c-2.74,1.25-3.83,1.04-3.83,3.84,0,1.04-.24,2.39-.24,3.11,0,.96.16,1.52,1.28,1.52,2.87,0,7.42-4.87,7.42-9.02,0-1.12-.64-1.59-1.36-1.59-.64,0-1.35,1.27-3.27,2.15h0ZM524.95,162.86c0-5.11,12.14-7.82,12.14-14.13,0-1.04-.4-2.87-1.12-4.23,4.23,2.31,7.34,6.23,7.34,9.42,0,5.51-5.74,8.06-5.74,11.5,0,3.99,6.14,4.63,6.14,9.58,0,4.07-5.83,8.78-5.83,14.05,0,4.07,2.87,7.42,7.26,7.98-1.44.32-2.71.56-4.07.56-8.06,0-16.36-6.62-16.36-14.53,0-3.91,1.68-7.34,4.23-9.81,2.24,1.92,4.47,3.19,5.91,3.19,1.28,0,1.84-.64,1.84-1.59,0-2.96-11.74-5.67-11.74-11.98h0ZM478.65,202.28c.34,2.73,2.88,4.79,5.75,4.47,1.03-.11,2-.4,2.64-.8.64,2.55,2.78,4.19,5.68,3.82,2.94-.38,4.94-2.7,4.62-5.65-.09-.79-.24-1.28-.48-1.84,0,0,.39-.04.68-.1,2.88-.54,4.82-2.86,4.58-5.65-.32-2.87-2.9-5.01-5.58-4.68-1.04.13-2,.52-2.64,1.08-.72-2.39-2.97-4.47-6.04-3.96-2.78.46-4.61,2.81-4.33,5.8.04.49.16,1.04.4,1.59,0,0-.47.07-.79.12-2.33.35-4.86,2.69-4.48,5.79h0ZM493.57,199.15c.19,1.67-1,3.17-2.66,3.37-1.67.19-3.18-1-3.37-2.66-.19-1.67,1-3.18,2.66-3.37,1.67-.19,3.17,1,3.37,2.67h0ZM541.41,333.62c2.25,0,6.13-.73,9.18-5.62-1.74-3.88-2.99-11.71-3.16-14.56-.9-14.58,4.72-28.3,10.87-28.68,4.51-.27,8.12,4,8.53,10.91,1.11,18.17-4.94,25.76-7.97,32.3.51,2.54,4.81,6.86,8.87,6.86,1.5,0,3.32-.75,3.77-1.36-.3-1.05-.61-2.4-.61-4.36,0-10.53,6.77-19.41,12.64-19.41,4.66,0,7.37,6.17,7.37,10.24,0,4.81-4.06,8.73-10.08,12.49,1.06,1.05,3,1.81,4.67,1.81,8.58,0,13.07-10.38,16.39-19.86.6-1.81,1.66-4.36,3.76-4.36,3.61,0,5.12,23.77,11.12,23.77,2.56,0,4.67-5.27,4.67-9.32,0-3.01-1.05-3.31-1.05-7.68,0-4.81,2.56-8.87,6.03-8.87,2.1,0,2.86,2.1,2.86,4.65,0,9.63-6.93,27.53-17.14,27.53-7.68,0-7.08-13.24-9.79-13.24-3.02,0-7.23,13.39-22.11,13.39-2.42,0-4.97-1.2-7.07-3.61-3.61,2.41-6.62,3.46-10.08,3.46-5.56,0-7.97-5.72-10.22-5.72-2.71,0-5.71,5.87-14.75,5.87-7.22,0-8.42-9.62-10.98-9.62-2.26,0-5.72,9.62-9.48,9.62-6.33,0-7.67-16.69-13.24-16.69-4.36,0-18.14,16.96-21.89,16.57-1.51-.16-2.14-1.28-1.98-2.79.21-2.08,2-7.65,2.73-10.29,1.22-4.58,2.33-9.59,2.96-11.19.62-1.61,2.29-2.76,3.63-2.64.68.06.88,1.32,1.09,2.36.76,3.72,1.82,7.51,3.02,7.51,2.11,0,9.09-13.39,13.15-13.39,4.97,0,5.57,21.07,12.33,21.07,2.26,0,3.92-2.7,5.42-6.02.15-5.58,1.65-13.53,6.17-13.53,3.16,0,4.67,7.06,2.4,13.24,0,7.37,4.81,9.17,7.97,9.17h0ZM661.75,315.57c-1.86,7.73-7.52,19.11-15.95,19.11-1.95,0-5.41-.76-5.41-2.71,0-2.11,13.25-2.4,13.25-12.48,0-3.75-3.46-9.03-8.58-9.03-6.77,0-13.37,7.38-13.37,17.61,0,9.17,5.7,12.18,11.41,12.18,9.93,0,15.95-8.13,19.1-14.9,1.51,4.52,2.4,14.9,6.17,14.9,1.5,0,2.56-.75,4.37-4.81,4.5-10.09,8.87-21.66,14.89-21.66,2.25,0,.9,4.07,6.31,4.07,2.55,0,4.35-2.1,4.35-4.52,0-3.46-3.15-6.16-7.96-6.16-14.14,0-17.14,21.21-19.4,21.21-3.76,0-2.56-17-5.27-17-2.41,0-3.59,2.87-3.91,4.21h0ZM561.96,299.73c-.26-4.2-1.28-6.1-3.54-5.95-3,.18-4.38,9.61-3.77,19.51.39,6.46,1.35,7.46,2.25,7.4,1.66-.1,5.63-11.65,5.06-20.96h0ZM537.49,290.9c-.21-2.41-2.1-4.06-4.66-4.06-2.86,0-5.54,3-5.26,6.76.18,2.48,1.65,4.52,4.52,4.52,3.3,0,5.7-3.76,5.4-7.23h0ZM584.28,321.58c0-2.55-1.36-4.66-3-4.66-1.37,0-4.52,1.5-4.52,6.31,0,3.77,1.34,5.56,1.95,6.33,4.35-1.36,5.56-4.97,5.56-7.98h0ZM643.09,316.48c3.16,0,4.07,3.74,3.32,6.01-.76,2.25-3.46,4.82-7.67,5.57-.91-2.26-1.36-11.58,4.35-11.58h0ZM469.88,305.8c-.43-1.37-1.68-4.44-2.02-6.71-.75-5.02,1.87-8.33,4.29-9.09,2.71-.76,3.76.6,4.81,3.77,1.36,4.81,1.51,11.12,1.05,20.15-.59,12.34-6.76,27.23-22.1,26.92-13.24-.29-19.1-8.87-19.71-21.95-.29-6.17.15-12.33,2.71-21.06,1.35-4.67,2.56-6.33,6.77-7.23,3.31-.6,3.01,2.85,2.26,6.93-1.65,9.02-2.41,13.38-1.8,23.61.59,10.83,5.57,15.04,10.98,15.04,8.12.16,11.73-6.61,13.24-16.4,1.2-7.82.3-11.58-.46-13.98h0ZM897.24,321.53c0-2.55-1.36-4.66-3-4.66-1.37,0-4.52,1.5-4.52,6.31,0,3.77,1.34,5.56,1.95,6.33,4.35-1.36,5.56-4.97,5.56-7.98h0ZM917.88,326.88c.54-2.8,2.72-8.41,5.47-10.32,1.47-1.02,3.92-.41,4.7,1.12.78,1.53.88,6.32-.29,9.8-1.17,3.49-3.38,6.57-6.9,7.06-3.52.48-3.52-4.87-2.98-7.67h0ZM950.66,334.25c-2.05,3.31-8,7.2-12.2,5.95-4.2-1.24-6.38-5.92-6.96-7.38-.58-1.47-1.35-.64-1.96.36-2.05,3.35-4.46,5.22-7.16,6.59-2.7,1.36-6.04,1.21-7.39.71-1.74-.64-2.74-1.75-3.52-3.22-.31-.59-.9-1.92-1.09-3.32-.12-.87-.61-1.59-1.49-.72-3.47,3.42-7.61,7.03-15.72,6.98-2.42,0-4.97-1-7.07-3.41-2.52,1.93-5.7,3.63-9.62,3.8-4.89.21-8.96-3.91-10.31-7.57-.78-2.12-2.58,1.68-4.31,3.56-1.74,1.88-4.22,3.93-7.62,3.93-7.22,0-7.9-10.69-9.68-8.87-2.77,2.84-10.96,9.55-15.37,9.01-6.13-.75-1.8-17.02-7.33-17.02-4.36,0-13.2,17.28-16.94,16.9-1.51-.16-2.14-1.28-1.98-2.79.05-.48,1.03-11.2-.26-13.15-3.31-5-17.63,16.39-22,15.94-1.51-.16-2.14-1.28-1.98-2.79.04-.42.15-.98.3-1.63-2.8,2.47-5.1,4.4-7.51,4.4-7.22,0-7.83-10.47-9.68-8.72-1.29,1.22-2.93,3.24-8.11,5.46-7.46,3.2-20.84,4.88-24.02,1.71-7.37-7.34-4.04-33.54-1.43-47.14,1.17-6.11,12.45-5.57,10.32.5-4.95,14.09-4.03,36.95-1.68,39.9,2.35,2.95,12.76,1.08,17.24-1.05s5.33-4.14,5.87-6.04c.15-5.58,1.65-13.53,6.17-13.53,3.16,0,4.67,7.06,2.4,13.24,0,7.37,2.4,9.06,5.55,8.93,3.15-.13,5.98-3.18,7.06-5.45.09-.31.17-.6.24-.86,1.22-4.58,2.33-9.59,2.96-11.19.62-1.61,2.29-2.76,3.63-2.64.68.06.88,1.32,1.09,2.36.76,3.72,1.49,7.51,2.69,7.51,2.11,0,8.36-13.29,12.42-13.29s4.22,11.25,6.25,12.95c2.04,1.7,11.15-13.39,15.21-13.39,5.3,0,6.1,19.24,6.86,21.42.76,2.17,2.72,2.15,4.88.92,4.32-2.46,4.8-5.1,5.34-6.99.15-5.58,1.65-13.53,6.17-13.53,3.16,0,4.67,7.06,2.4,13.24,0,7.37,3.21,9.02,5.55,8.93,2.34-.1,4.04-1.84,5.41-4.06,1.4-2.26,2.15-4.32,2.56-6.11.77-3.4,1.15-10.64,2.88-18.4-1.53-.11-12.26.18-8.62-4.82.88-1.21,5.26-1.05,9.27-1.17.66-2.2,2-7.81,3.59-10.9.57-1.11,4.89-.33,5.21,1.2.32,1.55-.73,8.17-.95,9.82,3.19.12,6.21-.55,9.24.47,2.81.95,2.8,4.48-.71,5.08-3.14.54-6.52.12-9.71.24-1.15,5.11-2.67,13.9-2.06,19.52.62,5.62,3.12,8.49,4.91,9.26,2.11.91,4.7.46,6.6-.77-.24-.96-.65-2.46-.65-4.06,0-10.53,6.77-19.41,12.64-19.41,4.66,0,7.37,6.17,7.37,10.24,0,4.81-4.06,8.73-10.08,12.49,1.06,1.05,3,1.81,4.67,1.81,5.75,0,10.26-5.3,12.54-11.02,2.29-5.72,5.77-12.14,10.99-13.07,3.41-.61,5.09,2.8,5.77,1.46.35-5.2,1.13-17.84,2.08-22.92.56-1.87,6.61-.11,6.51,1.8-.64,11.48-.69,24.78.5,31.41,1.19,6.63,3.5,13.54,9.15,10.94,1.65-.76,2.91-2.18,3.62-2.9.84-.85,2.3,2.36,1.06,4.36h0ZM854.86,291.93c-.21-2.41-2.1-4.06-4.66-4.06-2.86,0-5.54,3-5.26,6.76.18,2.48,1.65,4.52,4.52,4.52,3.3,0,5.7-3.76,5.4-7.23h0ZM771.93,291.94c-.21-2.41-2.1-4.06-4.66-4.06-2.86,0-5.54,3-5.26,6.76.18,2.48,1.65,4.52,4.52,4.52,3.3,0,5.7-3.76,5.4-7.23h0Z"/>
</svg>