<?xml version="1.0" encoding="utf-8"?>
<!-- Generator: Adobe Illustrator 26.0.3, SVG Export Plug-In . SVG Version: 6.00 Build 0)  -->
<svg version="1.0" id="Layer_1" xmlns="http://www.w3.org/2000/svg" xmlns:xlink="http://www.w3.org/1999/xlink" x="0px" y="0px"
	 viewBox="0 0 1041 748.8" style="enable-background:new 0 0 1041 748.8;" xml:space="preserve">
<style type="text/css">
	.st0{fill:#007FC7;}
</style>
<path class="st0" d="M678,646h124.8V447.6H898V322.8h-95.1c0-52.5,42.6-95.1,95.1-95.1V102.8c-121.5,0-220,98.5-220,220L678,646z
	 M363,646h124.8V447.6h95.1V322.8h-95.1c0-52.5,42.6-95.1,95.1-95.1V102.8c-121.5,0-220,98.5-220,220L363,646z M172.7,322.8h95.1
	V646H143V124.4h124.8v103.2C215.3,227.6,172.7,270.2,172.7,322.8"/>
</svg>
