<?xml version="1.0" encoding="UTF-8"?>
<svg id="Layer_1" xmlns="http://www.w3.org/2000/svg" version="1.1" viewBox="0 0 2500 2500">
  <!-- Generator: Adobe Illustrator 29.4.0, SVG Export Plug-In . SVG Version: 2.1.0 Build 60)  -->
  <defs>
    <style>
      .st0 {
        fill: #782d43;
        fill-rule: evenodd;
      }
    </style>
  </defs>
  <path class="st0" d="M1966.5,67.39h292.03v1643.66h-292.03V67.39ZM1966.5,2457v-44.03c6.37.06,12.74-.5,19-1.67l-10.34-11.56c-2.79-2.53-5.68-4.94-8.66-7.22v-40.88l45.95-13.48c15.15-5.77,31.74,5.77,45.47,18.52l.23.26c25.51-44.03,36.33-109.94,36.33-183.55,0-131.8-34.88-239.59-127.97-239.59v-42.55c201.59,0,324.98,126.99,324.98,282.88,0,111.36-59.66,207.81-169.59,254.03l13,14.67c21.66,16.59,34.66,18.29,61.84,11.56l5.29,16.11-118.83,22.59c-20.44,4.33-32.96-9.86-45.24-22.59l-14.89-16.85c-18.07,2.14-36.83,3.36-56.57,3.36h0ZM1669.44,67.39h297.06v1643.66h-297.06v-262.66h19.48v-95.5h-19.48v-115.7h224.18V323.11h-224.18V67.39h0ZM1966.5,1891.24v42.55c-93.32,0-128.21,107.79-128.21,239.59s34.88,239.59,128.21,239.59v44.03c-145.3,0-249.93-65.91-297.06-160.93v-243.92c47.15-95.03,151.76-160.92,297.06-160.92h0ZM1966.5,2351.64l-50.02,14.67,9.38,12.04c14.92-.71,29.1,6,40.66,14.19v-40.89h-.01ZM1669.44,2440.63c7.68.48,15.15,1.22,22.85,1.7l5.29-42.58c-10.84-.96-20.22-2.15-28.14-4.07v44.95ZM1669.44,1046.18h24.53v-515h-24.53v515h0ZM1436.82,67.39h232.63v255.71h-232.63V67.39ZM1669.44,1711.05h-232.63v-262.66h232.63v262.66ZM1669.44,531.18v515h-174.88v191.01h174.88v115.7h-232.63v-821.71h232.63ZM1669.44,2052.14v243.92c-18.29-37.03-27.91-78.4-27.91-121.94s9.62-85.17,27.91-121.98ZM1669.44,2395.68c-21.89-5.29-34.18-15.41-41.39-33.44l-191.23-447.43v521.27c77.57-2.33,155.21-.81,232.63,4.57v-44.97h-.01,0ZM1282.15,67.39h154.66v255.71h-154.66V67.39ZM1436.82,1711.05h-154.66v-262.66h154.66v262.66ZM1436.82,531.18v821.71h-154.66v-115.7h96.7v-191.01h-96.7v-515h154.66ZM1436.82,1914.8v521.27c-30.51.96-60.98,2.64-91.41,5.05v-40.15l42.83-4.1c35.84-3.85,34.63-34.63,27.9-51.96l-43.05-102.72h-90.93v-37.29h75.29l-74.82-178.97-.48,1.44v-120.27h151.31l3.37,7.7h0ZM1017.08,67.39h265.08v255.71h-265.08V67.39ZM1282.15,1711.05h-265.08v-473.86h265.08v115.7h-97.66v95.5h97.66v262.66ZM1282.15,531.18v515h-102.95v-515h102.95ZM1282.15,1907.1v120.27l-75.54,177.53h75.54v37.29h-91.41l-41.62,97.43c-9.14,23.58,1.44,59.17,33.44,58.69h44.03v39.92c-69.76-7.22-139.52-6.48-209.51-.48v-40.88h18.75c26.7-1.67,38.73-15.41,48.1-33.19l180.16-404.37-24.05-52.2h42.1ZM1017.08,2323.98c5.68-16.88,8.37-34.63,7.94-52.44-.42-15.54-3.1-30.94-7.94-45.72v98.16h0ZM614.87,67.39h402.19v255.71h-37.29v914.08h37.29v473.88h-402.19V67.39ZM1017.08,2225.82v98.16c-22.14,68.55-91.64,129.65-216.26,129.17-47.62-1.44-93.81-12.04-138.79-28.14l-10.58,16.11-41.36,3.85-18.77-164.04,38.73-1.44c22.85,63.25,56.04,127.73,157.56,128.21,39.45-1.92,69.76-28.86,66.64-70.7.48-43.54-68.56-85.87-114.74-106.82-89-49.78-139.27-102.21-142.89-177.53-4.33-110.65,111.37-160.2,185.7-160.2,56.52,0,110.17,12.04,154.66,32l13.48-22.62h32l17.31,150.83h-41.37c-33.44-81.06-63.98-111.12-152.02-114.73-28.14.48-53.41,19.48-53.41,41.36,4.33,56.54,63.5,78.17,121.47,110.65,60.61,31.52,121.23,71.22,142.64,135.91h0ZM1017.08,2396.86h-7.94v41.36c2.65-.23,5.29-.48,7.94-.48v-40.88Z"/>
</svg>