<?xml version="1.0" encoding="utf-8"?>
<!-- Generator: Adobe Illustrator 22.1.0, SVG Export Plug-In . SVG Version: 6.00 Build 0)  -->
<svg version="1.1" id="Calque_1" xmlns="http://www.w3.org/2000/svg" xmlns:xlink="http://www.w3.org/1999/xlink" x="0px" y="0px"
	 viewBox="0 0 1161.1 295.8" style="enable-background:new 0 0 1161.1 295.8;" xml:space="preserve">
<style type="text/css">
	.st0{fill:#1B213F;}
	.st1{fill:url(#SVGID_1_);}
	.st2{fill:url(#SVGID_2_);}
	.st3{fill:url(#SVGID_3_);}
	.st4{fill:url(#SVGID_4_);}
	.st5{fill:url(#SVGID_5_);}
	.st6{fill:url(#SVGID_6_);}
	.st7{fill:url(#SVGID_7_);}
	.st8{fill:url(#SVGID_8_);}
	.st9{fill:url(#SVGID_9_);}
</style>
<g>
	<path class="st0" d="M31.5,31.5h1098.2v232.8H31.5L31.5,31.5L31.5,31.5z M0,295.8h1161.1V0H0L0,295.8L0,295.8z"/>
	<g>
		
			<radialGradient id="SVGID_1_" cx="691.0341" cy="93.4377" r="460.7041" gradientTransform="matrix(2.0898 0 0 -2.0898 -1354.0731 324.0913)" gradientUnits="userSpaceOnUse">
			<stop  offset="0" style="stop-color:#1B213F"/>
			<stop  offset="0.5028" style="stop-color:#3F5DA3"/>
			<stop  offset="1" style="stop-color:#0084C9"/>
		</radialGradient>
		<path class="st1" d="M545.2,78.5h-56.5v139.7h37.4v-40h19.1c35.5,0,55.3-20.9,55.3-49.5C600.5,100,580.7,78.5,545.2,78.5z
			 M543.4,146.9h-17.3v-36.8h17.3c12.7,0,19.5,7,19.5,18.5S556.1,146.9,543.4,146.9z"/>
		
			<radialGradient id="SVGID_2_" cx="691.0281" cy="93.4377" r="460.7121" gradientTransform="matrix(2.0898 0 0 -2.0898 -1354.0731 324.0913)" gradientUnits="userSpaceOnUse">
			<stop  offset="0" style="stop-color:#1B213F"/>
			<stop  offset="0.5028" style="stop-color:#3F5DA3"/>
			<stop  offset="1" style="stop-color:#0084C9"/>
		</radialGradient>
		<path class="st2" d="M694.8,78.5h-56.5v139.7h37.4v-40h19.1c35.5,0,55.3-20.9,55.3-49.5C750,100,730.3,78.5,694.8,78.5z
			 M692.9,146.9h-17.3v-36.8h17.3c12.7,0,19.5,7,19.5,18.5S705.6,146.9,692.9,146.9z"/>
		
			<radialGradient id="SVGID_3_" cx="5162.8091" cy="-4758.4307" r="785.1044" gradientTransform="matrix(1.2263 0 0 -1.2263 -6241.0991 -5706.4385)" gradientUnits="userSpaceOnUse">
			<stop  offset="0" style="stop-color:#1B213F"/>
			<stop  offset="0.5028" style="stop-color:#3F5DA3"/>
			<stop  offset="1" style="stop-color:#0084C9"/>
		</radialGradient>
		<polygon class="st3" points="883.4,132.6 824.7,132.6 824.7,132.8 824.7,162.3 883.4,162.3 		"/>
		
			<radialGradient id="SVGID_4_" cx="5162.7949" cy="-4758.4336" r="785.124" gradientTransform="matrix(1.2263 0 0 -1.2263 -6241.0991 -5706.4385)" gradientUnits="userSpaceOnUse">
			<stop  offset="0" style="stop-color:#1B213F"/>
			<stop  offset="0.5028" style="stop-color:#3F5DA3"/>
			<stop  offset="1" style="stop-color:#0084C9"/>
		</radialGradient>
		<polygon class="st4" points="824.7,186.1 824.7,162.3 824.7,162.3 824.6,162.3 824.6,162.3 787.4,162.3 787.4,186.1 787.4,217.5 
			824.7,217.5 887.9,217.5 887.9,186.2 824.7,186.2 		"/>
		
			<radialGradient id="SVGID_5_" cx="5162.7964" cy="-4758.4297" r="785.1247" gradientTransform="matrix(1.2263 0 0 -1.2263 -6241.0991 -5706.4385)" gradientUnits="userSpaceOnUse">
			<stop  offset="0" style="stop-color:#1B213F"/>
			<stop  offset="0.5028" style="stop-color:#3F5DA3"/>
			<stop  offset="1" style="stop-color:#0084C9"/>
		</radialGradient>
		<polygon class="st5" points="824.7,109.6 828.5,109.6 885,109.6 885,78.3 824.7,78.3 787.4,78.3 787.4,109.6 824.6,109.6 		"/>
		
			<radialGradient id="SVGID_6_" cx="5162.8042" cy="-4758.4307" r="785.1135" gradientTransform="matrix(1.2263 0 0 -1.2263 -6241.0991 -5706.4385)" gradientUnits="userSpaceOnUse">
			<stop  offset="0" style="stop-color:#1B213F"/>
			<stop  offset="0.5028" style="stop-color:#3F5DA3"/>
			<stop  offset="1" style="stop-color:#0084C9"/>
		</radialGradient>
		<polygon class="st6" points="322.8,131.5 274.3,131.5 274.3,77.9 236.9,77.9 236.9,217.5 274.3,217.5 274.3,162.9 322.8,162.9 
			322.8,217.5 360.1,217.5 360.1,77.9 322.8,77.9 		"/>
		
			<radialGradient id="SVGID_7_" cx="691.0338" cy="93.4387" r="460.7044" gradientTransform="matrix(2.0898 0 0 -2.0898 -1354.0731 324.0913)" gradientUnits="userSpaceOnUse">
			<stop  offset="0" style="stop-color:#1B213F"/>
			<stop  offset="0.5028" style="stop-color:#3F5DA3"/>
			<stop  offset="1" style="stop-color:#0084C9"/>
		</radialGradient>
		<path class="st7" d="M993.4,76.2c-40.3,0-75,29.4-75,71.5s34.7,71.7,75,71.7s75-29.6,75-71.7C1068.4,105.6,1033.7,76.2,993.4,76.2
			z M993.4,186.9c-23.4,0-36.8-17.3-36.8-39.2c0-22,13.3-39,36.8-39c23.4,0,36.8,17,36.8,39C1030.2,169.7,1016.8,186.9,993.4,186.9z
			"/>
		
			<radialGradient id="SVGID_8_" cx="5162.8081" cy="-4758.4302" r="785.1022" gradientTransform="matrix(1.2263 0 0 -1.2263 -6241.0991 -5706.4385)" gradientUnits="userSpaceOnUse">
			<stop  offset="0" style="stop-color:#1B213F"/>
			<stop  offset="0.5028" style="stop-color:#3F5DA3"/>
			<stop  offset="1" style="stop-color:#0084C9"/>
		</radialGradient>
		<polygon class="st8" points="422.1,110 400.9,110 400.9,217.5 438.6,217.5 438.6,110 441.4,110 459.9,110 459.9,77.9 422.1,77.9 
					"/>
		
			<radialGradient id="SVGID_9_" cx="5162.8037" cy="-4758.4302" r="785.1055" gradientTransform="matrix(1.2263 0 0 -1.2263 -6241.0991 -5706.4385)" gradientUnits="userSpaceOnUse">
			<stop  offset="0" style="stop-color:#1B213F"/>
			<stop  offset="0.5028" style="stop-color:#3F5DA3"/>
			<stop  offset="1" style="stop-color:#0084C9"/>
		</radialGradient>
		<path class="st9" d="M161.9,133.1l-7.6-2.5l-10.9-3.6c-6.8-2.3-9.9-4.9-9.9-10.3c0-5.6,4.5-9.7,13.6-9.7c9.5,0,16.2,3,21.6,7.6
			l20.9-23.2c-8.6-8.3-22.7-15.2-44.6-15.2c-24.9,0-47.7,14.2-47.7,41.7c0,21.7,12.8,33.9,31.4,40.9c1.1,0.4,2.2,0.8,3.4,1.2
			l16.4,5.6c9.2,3.1,13.8,6,13.8,11.9c0,7.8-6.6,11.1-17.7,11.1c-13.9,0-22.3-6.7-29.1-15.1l-22.9,25.3
			c9.7,10.3,26.7,20.8,53.6,20.8c37,0,53-18.5,53-44.2C199.3,155.7,189.9,142.3,161.9,133.1z"/>
	</g>
</g>
</svg>
