<?xml version="1.0" encoding="UTF-8" standalone="no"?>
<svg
   xmlns:dc="http://purl.org/dc/elements/1.1/"
   xmlns:cc="http://creativecommons.org/ns#"
   xmlns:rdf="http://www.w3.org/1999/02/22-rdf-syntax-ns#"
   xmlns:svg="http://www.w3.org/2000/svg"
   xmlns="http://www.w3.org/2000/svg"
   height="112.85036"
   width="400"
   id="svg3803"
   version="1.1"
   viewBox="2092 39 400 112.85037">
  <metadata
     id="metadata3807">
    <rdf:RDF>
      <cc:Work
         rdf:about="">
        <dc:format>image/svg+xml</dc:format>
        <dc:type
           rdf:resource="http://purl.org/dc/dcmitype/StillImage" />
        <dc:title></dc:title>
      </cc:Work>
    </rdf:RDF>
  </metadata>
  <defs
     id="defs3784">
    <style
       id="style3780">
      .cls-1 {
        clip-path: url(#clip-path);
      }

      .cls-2 {
        fill: #e1091d;
      }

      .cls-3 {
        fill: #002469;
      }
    </style>
    <clipPath
       id="clip-path">
      <rect
         y="0"
         x="0"
         height="34.452"
         width="122"
         data-name="Rectangle 1"
         id="Rectangle_1" />
    </clipPath>
  </defs>
  <path
     style="fill:#e1091d;stroke-width:3.27558231"
     d="m 2175.642,148.86303 c 0,2.6565 3.6523,2.98733 5.6438,2.98733 h 1.6607 c 4.9789,-0.32756 4.9789,-2.32239 4.9789,-2.98733 V 41.987331 C 2188.253,39.327558 2184.604,39 2182.2816,39 h -0.9827 c -2.0046,0 -5.6569,0.327558 -5.6569,2.987331 z"
     class="cls-2"
     data-name="Path 1"
     id="Path_1" />
  <path
     style="fill:#e1091d;stroke-width:3.27558231"
     d="m 2108.9282,148.86303 c 0,2.6565 3.6523,2.98733 5.6438,2.98733 h 1.6608 c 4.9788,-0.32756 4.9788,-2.32239 4.9788,-2.98733 V 41.987331 C 2121.2116,39.327558 2117.8902,39 2115.5678,39 h -0.9827 c -2.3387,0 -5.6569,0.327558 -5.6569,2.987331 z"
     class="cls-2"
     data-name="Path 2"
     id="Path_2" />
  <path
     style="fill:#e1091d;stroke-width:3.27558231"
     d="m 2131.1661,148.86303 c 0,2.6565 3.6523,2.98733 5.6439,2.98733 h 1.9915 c 4.9789,-0.32756 4.9789,-2.32239 4.9789,-2.98733 V 41.987331 C 2143.7804,39.327558 2140.1281,39 2138.1366,39 h -1.3266 c -1.9916,0 -5.6439,0.327558 -5.6439,2.987331 z"
     class="cls-2"
     data-name="Path 3"
     id="Path_3" />
  <path
     style="fill:#e1091d;stroke-width:3.27558231"
     d="m 2153.4041,148.86303 c 0,2.6565 3.6522,2.98733 5.6438,2.98733 h 1.6607 c 4.9789,-0.32756 4.9789,-2.32239 4.9789,-2.98733 V 41.987331 C 2165.6875,39.327558 2162.0352,39 2160.0437,39 h -0.9827 c -2.0047,0 -5.6569,0.327558 -5.6569,2.987331 z"
     class="cls-2"
     data-name="Path 4"
     id="Path_4" />
  <path
     style="fill:#e1091d;stroke-width:3.27558231"
     d="m 2094.9873,89.119685 c -2.6597,0 -2.9873,3.652274 -2.9873,5.643828 v 1.991554 c 0.3276,4.978883 2.3224,4.978883 2.9873,4.978883 h 106.8757 c 2.6565,0 2.9874,-3.652272 2.9874,-5.643826 v -1.326611 c 0,-1.991554 -0.3276,-5.643828 -2.9874,-5.643828 z"
     class="cls-2"
     data-name="Path 5"
     id="Path_5" />
  <path
     style="fill:#002469;stroke-width:3.27558231"
     d="m 2360.5159,129.27832 v 0 c -17.5899,0 -24.2394,-9.62693 -24.2394,-34.518083 0,-24.566867 6.3055,-33.522309 23.9118,-33.522309 h 0.6551 c 17.2591,0 23.9118,8.961993 23.9118,33.522309 -0.3276,24.894423 -6.9705,34.518083 -24.2393,34.518083 m 0,-81.98127 c -29.8734,0 -43.4801,14.936655 -43.4801,47.794021 0,32.526529 13.9409,48.128129 42.4843,48.458959 h 1.3266 c 28.8775,0 42.8151,-15.93243 42.8151,-48.458959 0,-33.191475 -13.2726,-47.794021 -43.1459,-47.794021"
     class="cls-3"
     data-name="Path 6"
     id="Path_6" />
  <path
     style="fill:#002469;stroke-width:3.27558231"
     d="m 2240.0334,136.24876 c 5.9747,4.64805 14.2717,6.63961 27.5476,6.63961 h 0.6552 c 13.2759,0 21.5729,-1.99156 27.8817,-6.63961 8.6279,-6.63633 10.2984,-14.58617 10.2984,-29.5392 V 52.610045 a 3.3476451,3.3476451 0 0 0 -0.9826,-2.656498 c -1.343,-1.336437 -4.3304,-1.991554 -9.3092,-1.991554 a 13.547808,13.547808 0 0 0 -8.962,1.991554 3.3476451,3.3476451 0 0 0 -0.9827,2.656498 v 56.425175 c 0,9.29283 0,11.28439 -4.3139,14.93666 a 24.239309,24.239309 0 0 1 -14.2718,3.65227 22.034842,22.034842 0 0 1 -14.2749,-3.66865 c -4.314,-3.31816 -4.314,-5.30972 -4.314,-14.60254 V 52.610045 a 3.3476451,3.3476451 0 0 0 -0.9827,-2.656498 13.547808,13.547808 0 0 0 -8.9849,-1.991554 13.547808,13.547808 0 0 0 -8.962,1.991554 3.3476451,3.3476451 0 0 0 -0.9827,2.656498 v 54.099515 c 0.6552,14.93666 1.9916,22.90287 10.9536,29.5392"
     class="cls-3"
     data-name="Path 7"
     id="Path_7" />
  <path
     style="fill:#002469;stroke-width:3.27558231"
     d="m 2455.1081,128.95076 h -21.2421 v -28.21259 h 22.5687 c 12.6143,0 14.9367,5.30972 14.9367,14.27172 0.3275,11.94932 -3.9831,13.94087 -16.2633,13.94087 M 2433.866,61.572038 h 21.573 c 11.2843,0 11.9493,5.643828 11.9493,12.945101 0,8.961993 -3.9831,12.610992 -13.6068,12.610992 h -19.9155 z m 44.8099,-7.966216 c -4.9788,-3.652275 -10.9535,-4.978886 -22.5687,-4.978886 h -38.5045 a 3.324716,3.324716 0 0 0 -3.3182,3.318165 V 139.5702 a 3.324716,3.324716 0 0 0 3.3182,3.31817 h 40.4928 c 10.9535,0 18.5856,-0.32756 25.2219,-5.30972 7.3013,-5.64383 8.6312,-14.60255 8.6312,-21.24215 a 23.630051,23.630051 0 0 0 -8.2971,-19.581433 32.303792,32.303792 0 0 0 -7.6353,-3.652274 l -1.6608,-0.655117 1.6608,-0.655116 c 7.9662,-3.652274 10.6227,-8.961993 10.6227,-19.250597 -0.3276,-5.309719 -1.3266,-14.271712 -7.9662,-18.919764"
     class="cls-3"
     data-name="Path 8"
     id="Path_8" />
</svg>
