<svg xmlns="http://www.w3.org/2000/svg" width="356" height="163.196" viewBox="0 0 356 163.196">
  <g id="Group_3" data-name="Group 3" transform="translate(-122 -128.804)">
    <text id="B_etl" data-name="B’etl" transform="translate(271 247)" fill="#fff" font-size="84" font-family="FiraSans-Bold, Fira Sans" font-weight="700"><tspan x="0" y="0">B’etl</tspan></text>
    <g id="Group_2" data-name="Group 2" transform="translate(-585.954 -366.867)">
      <g id="Logo" transform="translate(713.643 495.671)">
        <path id="Path_1" data-name="Path 1" d="M823.218,548.145l-11.24,11.177A54.414,54.414,0,0,0,798,547.876h4.373a2.9,2.9,0,0,0,2.8-2.149l7.49-27.65c.988-3.669-4.6-5.178-5.589-1.493l-6.908,25.5H792.9l-.43-11.749c-.141-3.864-1.116-6.706-2.736-8.747.363-2.933,1.027-6,.454-8.671a22.8,22.8,0,0,0-11.8-16.872c-3.347-1.788-6.07,3.3-2.717,5.092a16.966,16.966,0,0,1,6.337,5.907q-.852-.345-1.734-.619c-3.632-1.133-5.355,4.386-1.719,5.52a16.955,16.955,0,0,1,6.048,3.373l-.094,2.8c-3.025-.908-8.478-.611-11.925-.611h0c-3.447,0-8.9-.3-11.925.611l-.092-2.8a16.939,16.939,0,0,1,6.048-3.373c3.634-1.133,1.911-6.653-1.721-5.52-.587.183-1.167.389-1.733.619a16.945,16.945,0,0,1,6.335-5.907c3.355-1.793.63-6.879-2.715-5.092A22.742,22.742,0,0,0,758,504.42c-1.872,3.125-3.471,7.963-3.241,11.69l.68,5.479c-1.621,2.041-2.6,4.883-2.736,8.747l-.43,11.749H745l-6.911-25.5c-.992-3.685-6.575-2.176-5.588,1.493L740,545.727a2.9,2.9,0,0,0,2.8,2.149h4.371a54.438,54.438,0,0,0-13.972,11.446l-11.242-11.177c-2.7-2.681-6.769,1.414-4.072,4.1l11.731,11.666a54.293,54.293,0,0,0,16,77.162,2.893,2.893,0,0,0,4.31-1.709l2.485-9.27a104.057,104.057,0,0,0,18.7,13.289,3.359,3.359,0,0,0,2.952,0,104.123,104.123,0,0,0,18.7-13.289l2.483,9.27a2.894,2.894,0,0,0,4.312,1.709,54.292,54.292,0,0,0,16-77.162l11.733-11.666C829.987,549.56,825.915,545.464,823.218,548.145Zm-64.75-17.608c.19-5.213,2.051-7.243,6.787-7.243h14.658c4.736,0,6.6,2.029,6.789,7.243l.46,12.611a46.836,46.836,0,0,0-29.154,0Zm17.154,35.589a9.5,9.5,0,0,1-6.078,0l3.039-11.342Zm-30.241,67.832a48.461,48.461,0,0,1,23.362-87.188h0Zm27.328,3.585-.126.067-.124-.067a108.669,108.669,0,0,1-18.384-13.687l13.97-52.137h0c5.412.984,3.663.984,9.075,0l13.97,52.137A108.66,108.66,0,0,1,772.709,637.544Zm45.154-55.156a48.439,48.439,0,0,1-18.076,51.571L776.426,546.77h0A48.918,48.918,0,0,1,817.863,582.387Z" transform="translate(-716.992 -495.671)" fill="#fff"/>
      </g>
      <g id="Group_1" data-name="Group 1" transform="translate(709 647.132)">
        <text id="Covert._Validate._Accelerate" data-name="Covert. Validate. Accelerate" transform="translate(58.954 8.735)" fill="#fff" font-size="9" font-family="Space Grotesk" style="isolation: isolate"><tspan x="-59.254" y="0">Covert. Validate. Accelerate</tspan></text>
      </g>
    </g>
    <text id="Migrate_Smarter_Not_Harder" data-name="Migrate Smarter, Not Harder" transform="translate(271 250)" fill="#fff" font-size="15" font-family="FiraSans-Light, Fira Sans" font-weight="300"><tspan x="0" y="14">Migrate Smarter, Not Harder</tspan></text>
  </g>
</svg>
