<?xml version="1.0" encoding="utf-8"?>
<!-- Generator: Adobe Illustrator 19.0.0, SVG Export Plug-In . SVG Version: 6.00 Build 0)  -->
<svg version="1.1" id="layer" xmlns="http://www.w3.org/2000/svg" xmlns:xlink="http://www.w3.org/1999/xlink" x="0px" y="0px"
	 viewBox="-153 -46 652 652" style="enable-background:new -153 -46 652 652;" xml:space="preserve">
<style type="text/css">
	.st0{fill:#682874;}
	.st1{fill:#A47EAC;}
</style>
<title>ecclesia_group_db</title>
<path class="st0" d="M11.1,298c23.3,0,42.2-18.9,42.2-42.2v-57.1v-35.2v-3.1c0-23.3-18.9-42.7-42.2-42.7h-141.9v180.6h32.3v49.2
	l50.6-49.2h35.8L11.1,298z M16.9,266.9H-98.5v-118H16.9l0.3,0c2.7,0,4.9,2.2,4.9,4.9l0,0.2v107.9l0,0.2c0,2.7-2.2,4.9-4.9,4.9H16.9z
	 M436.6,153.8l0-0.2c0-2.7-2.2-4.8-4.9-4.8l-0.1,0h-83.2h-4.9h-26l-0.1,0c-2.7,0-4.9,2.2-4.9,4.9l0,0.1V262l0,0.1
	c0,2.7,2.2,4.9,4.9,4.9l0.1,0h28.3h4.9H399h32.6l0.2,0c2.7,0,4.9-2.2,4.9-4.9v-0.1v-40.4h0l31.2,0.1l0.2,49.6
	c0,14.9-12.2,27.1-27.1,27.1h-0.1h-42.4h-49.3h-5.6l-21.8,0.1c-23.9,0.4-39.2-18.7-40.6-39.1V158.3c1-22.5,19.4-40.4,42.2-40.4
	h121.4c13.2,1.8,23.4,13.1,23.4,26.8v24.2l-31.4,0V153.8z M223.5,298.5h37.6l-44.5-73.1h11.8c14.9,0,27-12.1,27-27v-18.2l-0.1-0.5
	V145c0-14.9-12.1-27-27-27h-41.8l-1,0l-105.3,0.1v180.4l32.2,0v-73.1h67.1L223.5,298.5z M224.2,154v35.1l0,0.1
	c0,2.7-2.2,4.9-4.9,4.9l0,0H112.1v-45h107.1l0.1,0c2.7,0,4.9,2.2,4.9,4.9L224.2,154z"/>
<path class="st1" d="M440.8,197h-21.9l-1.2,0h-12h-0.9h-30.7l0-15.2L339,212.7l35.1,30.6l0-15.2h31.8h2h9.7l1.2,0h21.9
	c15,0,27.1,12.1,27.1,27.1v-31.1C467.9,209.1,455.8,197,440.8,197"/>
<path d="M-131.9,374.5h17.3c3,0,5.8,0.3,8.2,0.8c2.4,0.6,4.5,1.4,6.3,2.7c1.7,1.2,3.1,2.8,4,4.8c0.9,1.9,1.4,4.3,1.4,7
	c0,2.9-0.5,5.4-1.6,7.4c-1.1,2-2.6,3.6-4.5,4.8c-1.9,1.2-4.1,2.1-6.6,2.7c-2.5,0.6-5.1,0.8-7.9,0.8h-7.3v21.9h-9.4V374.5z
	 M-115.9,397.7c1.5,0,3-0.1,4.4-0.3c1.4-0.2,2.6-0.6,3.7-1.2c1.1-0.6,2-1.4,2.6-2.4c0.6-1,1-2.3,1-3.9c0-1.5-0.3-2.8-1-3.8
	c-0.7-1-1.5-1.7-2.6-2.3c-1.1-0.5-2.3-0.9-3.7-1.1c-1.4-0.2-2.8-0.3-4.2-0.3h-6.9v15.2H-115.9z M-68.6,423h-0.2
	c-0.9,1.6-2.3,2.9-4.3,3.9c-2,1-4.3,1.5-6.8,1.5c-1.4,0-3-0.2-4.5-0.6c-1.6-0.4-3-1-4.3-1.9c-1.3-0.9-2.4-2-3.3-3.4
	c-0.9-1.4-1.3-3.2-1.3-5.3c0-2.7,0.8-4.8,2.3-6.4s3.5-2.8,5.9-3.7s5.1-1.4,8-1.7c2.9-0.3,5.8-0.4,8.6-0.4v-0.9c0-2.2-0.8-3.9-2.4-5
	c-1.6-1.1-3.6-1.6-5.8-1.6c-1.9,0-3.7,0.4-5.5,1.2c-1.7,0.8-3.2,1.8-4.3,2.9l-4.6-5.5c2-1.9,4.4-3.3,7.1-4.3
	c2.7-0.9,5.4-1.4,8.1-1.4c3.2,0,5.8,0.5,7.9,1.3c2.1,0.9,3.7,2.1,4.9,3.5c1.2,1.4,2,3.1,2.5,4.9c0.5,1.8,0.7,3.6,0.7,5.4v21.9h-8.4
	V423z M-68.8,411.1h-2c-1.4,0-3,0.1-4.6,0.2c-1.6,0.1-3.1,0.4-4.4,0.8c-1.3,0.4-2.5,1-3.4,1.8c-0.9,0.8-1.3,1.8-1.3,3.2
	c0,0.9,0.2,1.6,0.6,2.1c0.4,0.6,0.9,1,1.5,1.4c0.6,0.4,1.3,0.6,2,0.7c0.7,0.2,1.5,0.2,2.2,0.2c3.1,0,5.4-0.8,7-2.5
	c1.6-1.6,2.4-3.9,2.4-6.7V411.1z M-49.7,391.6h8.6v6h0.1c1-2.1,2.4-3.8,4.2-5.1c1.8-1.3,3.9-1.9,6.3-1.9c0.3,0,0.7,0,1.1,0
	c0.4,0,0.7,0.1,1,0.2v8.2c-0.6-0.2-1.1-0.3-1.5-0.3c-0.4-0.1-0.8-0.1-1.2-0.1c-2,0-3.7,0.4-4.9,1.1c-1.2,0.7-2.2,1.6-2.9,2.7
	c-0.7,1-1.2,2.1-1.4,3.2c-0.3,1.1-0.4,2-0.4,2.6v19.2h-9V391.6z M-28.6,398.8v-7.2h6.3v-10.4h8.8v10.4h9v7.2h-9v16.7
	c0,1.6,0.3,2.9,0.9,4c0.6,1,1.9,1.6,3.9,1.6c0.6,0,1.2-0.1,1.9-0.2c0.7-0.1,1.3-0.3,1.9-0.6l0.3,7c-0.8,0.3-1.7,0.5-2.8,0.7
	c-1.1,0.2-2.1,0.3-3.1,0.3c-2.4,0-4.3-0.3-5.8-1c-1.5-0.7-2.7-1.6-3.6-2.8c-0.9-1.2-1.5-2.5-1.8-4c-0.3-1.5-0.5-3.2-0.5-4.9v-16.8
	H-28.6z M18.7,409.4c0-2.8,0.5-5.4,1.5-7.7c1-2.3,2.4-4.3,4.2-6s3.8-2.9,6.2-3.8c2.4-0.9,4.9-1.3,7.6-1.3s5.2,0.5,7.6,1.3
	c2.4,0.9,4.5,2.2,6.2,3.8c1.7,1.6,3.1,3.6,4.2,6c1,2.3,1.5,4.9,1.5,7.7c0,2.8-0.5,5.4-1.5,7.8c-1,2.3-2.4,4.4-4.2,6
	c-1.7,1.7-3.8,3-6.2,3.9c-2.4,0.9-4.9,1.4-7.6,1.4s-5.2-0.5-7.6-1.4c-2.4-0.9-4.5-2.3-6.2-3.9s-3.1-3.7-4.2-6
	C19.2,414.9,18.7,412.3,18.7,409.4z M27.8,409.4c0,1.4,0.2,2.8,0.6,4.2c0.4,1.4,1.1,2.6,1.9,3.7c0.8,1.1,1.9,2,3.2,2.7
	c1.3,0.7,2.8,1,4.6,1c1.8,0,3.3-0.4,4.6-1c1.3-0.7,2.4-1.6,3.2-2.7c0.8-1.1,1.5-2.3,1.9-3.7c0.4-1.4,0.6-2.8,0.6-4.2
	c0-1.4-0.2-2.8-0.6-4.2c-0.4-1.4-1.1-2.6-1.9-3.7c-0.8-1.1-1.9-2-3.2-2.7c-1.3-0.7-2.8-1-4.6-1c-1.8,0-3.3,0.3-4.6,1
	c-1.3,0.7-2.4,1.6-3.2,2.7c-0.8,1.1-1.5,2.3-1.9,3.7C28,406.6,27.8,408,27.8,409.4z M67.9,398.8H61v-7.2h6.8v-5.3
	c0-2.1,0.2-4.2,0.7-6.2c0.5-2,1.3-3.7,2.4-5.2c1.1-1.5,2.6-2.7,4.5-3.6s4.2-1.3,7-1.3c1,0,1.8,0,2.5,0.1c0.7,0.1,1.4,0.2,2.1,0.4
	l-0.6,7.6c-0.5-0.2-1-0.3-1.6-0.4c-0.6-0.1-1.2-0.1-1.8-0.1c-1.3,0-2.3,0.3-3.1,0.7c-0.8,0.5-1.4,1.1-1.8,1.9
	c-0.4,0.8-0.7,1.7-0.9,2.6c-0.2,0.9-0.2,1.9-0.2,2.8v5.8h8.3v7.2h-8.3v28.7h-9V398.8z"/>
<path d="M135.6,419.9c7.6,0.4,14.5-4.4,16.7-11.7h13.4c-3.4,13.8-15.9,23.3-30.1,22.9c-17.2,0.5-31.5-12.9-32-30.1
	c0-0.6,0-1.1,0-1.7c-0.4-17.2,13.2-31.4,30.4-31.8c0.6,0,1.1,0,1.7,0c14.2-0.4,26.7,9.2,30.1,22.9h-13.4
	c-2.2-7.3-9.1-12.1-16.7-11.7c-11.6,0-19.3,8.8-19.3,20.5S124,419.9,135.6,419.9z M183.3,430.1H172v-61.5h11.3V430.1z M214.8,403.3
	c0-2.9-2.3-4.7-6.7-4.7c-4.3,0.3-8.4,1.6-12.1,3.8l-4.5-8.6c5.2-3.1,11.1-4.8,17.2-4.9c9.1,0,17.5,4.2,17.5,14.8v26.4h-11.4v-3.8
	c-2.8,3.3-6.9,5.1-11.2,4.8c-7.3,0.5-13.5-5-14-12.3c0-0.1,0-0.2,0-0.4c0-7.6,5.6-12.4,14.6-12.4h7.9c1.9,0,2.8-0.9,2.8-2.4
	L214.8,403.3z M214.8,415.7v-2.9c-1,0.7-2.3,1-3.5,0.9H207c-3.6,0-5.7,1.6-5.7,4.4c0,2.7,2.2,4.7,5.7,4.7c3.8,0.5,7.3-2.2,7.8-6
	C214.8,416.4,214.8,416.1,214.8,415.7z M257.6,401.1h-4.8c-5.8,0-8.4,2.7-8.4,9.7v19.2H233v-40.2H244v6.4c1.6-4.3,5.8-7.2,10.5-6.9
	c1.1,0,2.1,0.1,3.2,0.4V401.1z M280,430.1h-11.4v-30.6H263v-9.7h17V430.1z M273.8,368.7c4.1,0,7.4,3.3,7.4,7.4c0,0,0,0,0,0
	c0,4-3.3,7.3-7.4,7.3c-4,0-7.3-3.3-7.3-7.3C266.5,372,269.8,368.7,273.8,368.7z M305.7,417.8l9.1-27.9h12l-14.3,40.2h-14.1
	l-13.7-40.2h12.4L305.7,417.8z M352.7,403.3c0-2.9-2.3-4.7-6.7-4.7c-4.3,0.3-8.4,1.6-12.1,3.8l-4.5-8.6c5.2-3.1,11.1-4.8,17.2-4.9
	c9.1,0,17.5,4.2,17.5,14.8v26.4h-11.4v-3.8c-2.8,3.3-6.9,5.1-11.2,4.8c-7.3,0.5-13.5-5-14-12.3c0-0.1,0-0.2,0-0.4
	c0-7.6,5.6-12.4,14.6-12.4h7.9c1.9,0,2.8-0.9,2.8-2.4L352.7,403.3z M352.7,415.7v-2.9c-1,0.7-2.3,1-3.5,0.9h-4.3
	c-3.6,0-5.7,1.6-5.7,4.4c0,2.7,2.2,4.7,5.7,4.7c3.8,0.5,7.3-2.2,7.8-6C352.7,416.4,352.7,416.1,352.7,415.7z M386.1,374.6v15.3h8.7
	v9.7h-8.7v18.2c0,2.5,2,2.9,3.8,2.9c2.9,0,5.3-0.3,5.3-0.3v9.7c0,0-5.5,0.5-8.9,0.5c-5.7,0-11.6-1-11.6-9v-22h-6.3v-9.7h6.3v-15.3
	H386.1z M440.4,413.4h-29.9c0.8,5.2,5.7,8.8,10.9,8c2.6-0.4,4.9-1.9,6.4-4l11.9,1.2c-4.9,10.8-17.7,15.6-28.5,10.7
	c-7.6-3.4-12.5-10.9-12.6-19.2c-0.4-11.2,8.3-20.7,19.6-21.2c0.4,0,0.9,0,1.3,0c11.1,0,21.1,7.2,21.1,24.1L440.4,413.4z
	 M410.2,405.7h18c-0.7-4.3-4.5-7.5-8.9-7.4C414.9,398.2,411,401.3,410.2,405.7z"/>
</svg>
