<?xml version="1.0" encoding="utf-8"?>
<!-- Generator: Adobe Illustrator 24.3.0, SVG Export Plug-In . SVG Version: 6.00 Build 0)  -->
<svg version="1.2" baseProfile="tiny" id="Layer_1" xmlns="http://www.w3.org/2000/svg" xmlns:xlink="http://www.w3.org/1999/xlink"
	 x="0px" y="0px" viewBox="0 0 359.2 81.3" overflow="visible" xml:space="preserve">
<g>
	<path fill="#F5693C" d="M336.5,16.9l-23.8,23.8l-11.5-11.5c-6.4-6.4-7.1-16.7-1.2-23.4c6.5-7.4,17.8-7.7,24.6-0.8L336.5,16.9"/>
	<path fill="#6450C8" d="M336.5,64.6L336.5,64.6L325,76.1c-6.4,6.4-16.7,7.1-23.4,1.2c-7.4-6.5-7.7-17.8-0.8-24.6l11.9-11.9l0,0l0,0
		L336.5,64.6z"/>
	<path fill="#4B236E" d="M358.4,42.7l-21.9,21.9l-23.8-23.8l0,0l23.8-23.8l21.9,21.9C359.5,39.8,359.5,41.6,358.4,42.7z"/>
	<g>
		<polygon fill="#6450C8" points="11.2,25 33.8,25 33.8,15 0,15 0,64.7 11.2,64.7 11.2,45.1 26.3,45.1 26.3,35 11.2,35 		"/>
		<path fill="#6450C8" d="M60.1,30.1c-2.9-2.1-6.5-3.8-10.3-3.8c-10.4,0-18.5,8.6-18.5,19.6c0,4.9,1.7,9.6,4.8,13.2
			c3.4,4,8.7,6.4,14.2,6.4c3.7,0,6.9-1.4,9.7-3.5v2.8h10.4V27H60.1V30.1z M51.6,55.4c-5.3,0-9.6-4.3-9.6-9.6s4.3-9.6,9.6-9.6
			s9.6,4.3,9.6,9.6S56.9,55.4,51.6,55.4z"/>
		<polygon fill="#6450C8" points="163.6,42.1 146,15 138.1,15 138.1,64.7 149.2,64.7 149.2,40.4 159.7,55.8 159.8,56 167.4,56 
			178,40.4 178,64.7 189.2,64.7 189.2,15 181.3,15 		"/>
		<path fill="#6450C8" d="M212.4,26.3c-10.5,0-18.3,8.4-18.3,19.6c0,11.5,8.1,19.6,19.7,19.6c6,0,11.9-2.6,15.4-6.8l0.3-0.3
			l-6.3-6.3l-0.3,0.4c-0.9,1-4.1,4.1-8.9,4.1c-4.9,0-8.7-3.2-9.4-7.8h25.3l0.1-0.4c0.2-0.8,0.2-1.8,0.2-2.9
			C230.2,34.7,222.3,26.3,212.4,26.3z M204.6,41.6c0.8-3.2,3.7-6.4,8.1-6.4c4.2,0,6.8,3.2,7.5,6.4H204.6z"/>
		<path fill="#6450C8" d="M262.5,13.9v15.3c-2.8-2-6.1-3.3-9.9-3.3c-10.4,0-18.5,8.6-18.5,19.6c0,4.9,1.7,9.6,4.8,13.2
			c3.4,4,8.7,6.4,14.2,6.4c3.7,0,6.9-1.4,9.7-3.5v2.8h10.4V13.9H262.5z M254.4,55.2c-5.3,0-9.5-4.3-9.5-9.5s4.3-9.5,9.5-9.5
			c5.3,0,9.5,4.3,9.5,9.5S259.7,55.2,254.4,55.2z"/>
		<path fill="#6450C8" d="M122.2,13.9h-10.8v34.8c0,5.3,0.8,8.7,2.8,11.3c2.7,3.6,7.2,5.5,13.1,5.5c1.4,0,3.3-0.2,4.7-0.4l0.4-0.1
			v-9.7l-0.6,0.1c-0.7,0.1-2.5,0.4-3.9,0.4c-2.1,0-3.7-0.6-4.6-1.6c-0.8-0.9-1.1-2.2-1.1-4.3V36.3h10.2V27h-10.2V13.9z"/>
		<path fill="#6450C8" d="M97.3,42.9l-6.4-1.7c-2.1-0.5-3.3-1.6-3.4-3c0-0.7,0.2-1.3,0.7-1.8c0.7-0.8,2-1.2,3.5-1.2
			c2.8,0,4.3,1.1,4.4,3.3h10.3c-0.2-9-8.1-12.3-15.4-12.3c-7.7,0-14.5,5-14.6,10.6c-0.1,3.2-0.2,9.1,11.2,12.2l4.9,1.3
			c2.8,0.7,3.8,1.7,3.8,3.4c0,1.9-1.9,3.2-4.8,3.3c-2.6,0-5.5-1.8-5.7-4.4H75.6c0.2,8.3,8.2,12.7,15.7,12.7c4.1,0,8.2-1.1,11.1-2.9
			c3.4-2.1,5.1-5.2,5.1-8.8C107.5,51.9,106.7,45.5,97.3,42.9z"/>
	</g>
	<g>
		<polygon fill="#6450C8" points="11.2,25 33.8,25 33.8,15 0,15 0,64.7 11.2,64.7 11.2,45.1 26.3,45.1 26.3,35 11.2,35 		"/>
		<path fill="#6450C8" d="M60.1,30.1c-2.9-2.1-6.5-3.8-10.3-3.8c-10.4,0-18.5,8.6-18.5,19.6c0,4.9,1.7,9.6,4.8,13.2
			c3.4,4,8.7,6.4,14.2,6.4c3.7,0,6.9-1.4,9.7-3.5v2.8h10.4V27H60.1V30.1z M51.6,55.4c-5.3,0-9.6-4.3-9.6-9.6s4.3-9.6,9.6-9.6
			s9.6,4.3,9.6,9.6S56.9,55.4,51.6,55.4z"/>
		<polygon fill="#6450C8" points="163.6,42.1 146,15 138.1,15 138.1,64.7 149.2,64.7 149.2,40.4 159.7,55.8 159.8,56 167.4,56 
			178,40.4 178,64.7 189.2,64.7 189.2,15 181.3,15 		"/>
		<path fill="#6450C8" d="M212.4,26.3c-10.5,0-18.3,8.4-18.3,19.6c0,11.5,8.1,19.6,19.7,19.6c6,0,11.9-2.6,15.4-6.8l0.3-0.3
			l-6.3-6.3l-0.3,0.4c-0.9,1-4.1,4.1-8.9,4.1c-4.9,0-8.7-3.2-9.4-7.8h25.3l0.1-0.4c0.2-0.8,0.2-1.8,0.2-2.9
			C230.2,34.7,222.3,26.3,212.4,26.3z M204.6,41.6c0.8-3.2,3.7-6.4,8.1-6.4c4.2,0,6.8,3.2,7.5,6.4H204.6z"/>
		<path fill="#6450C8" d="M262.5,13.9v15.3c-2.8-2-6.1-3.3-9.9-3.3c-10.4,0-18.5,8.6-18.5,19.6c0,4.9,1.7,9.6,4.8,13.2
			c3.4,4,8.7,6.4,14.2,6.4c3.7,0,6.9-1.4,9.7-3.5v2.8h10.4V13.9H262.5z M254.4,55.2c-5.3,0-9.5-4.3-9.5-9.5s4.3-9.5,9.5-9.5
			c5.3,0,9.5,4.3,9.5,9.5S259.7,55.2,254.4,55.2z"/>
		<path fill="#6450C8" d="M122.2,13.9h-10.8v34.8c0,5.3,0.8,8.7,2.8,11.3c2.7,3.6,7.2,5.5,13.1,5.5c1.4,0,3.3-0.2,4.7-0.4l0.4-0.1
			v-9.7l-0.6,0.1c-0.7,0.1-2.5,0.4-3.9,0.4c-2.1,0-3.7-0.6-4.6-1.6c-0.8-0.9-1.1-2.2-1.1-4.3V36.3h10.2V27h-10.2V13.9z"/>
		<path fill="#6450C8" d="M97.3,42.9l-6.4-1.7c-2.1-0.5-3.3-1.6-3.4-3c0-0.7,0.2-1.3,0.7-1.8c0.7-0.8,2-1.2,3.5-1.2
			c2.8,0,4.3,1.1,4.4,3.3h10.3c-0.2-9-8.1-12.3-15.4-12.3c-7.7,0-14.5,5-14.6,10.6c-0.1,3.2-0.2,9.1,11.2,12.2l4.9,1.3
			c2.8,0.7,3.8,1.7,3.8,3.4c0,1.9-1.9,3.2-4.8,3.3c-2.6,0-5.5-1.8-5.7-4.4H75.6c0.2,8.3,8.2,12.7,15.7,12.7c4.1,0,8.2-1.1,11.1-2.9
			c3.4-2.1,5.1-5.2,5.1-8.8C107.5,51.9,106.7,45.5,97.3,42.9z"/>
	</g>
</g>
<g>
	<path fill="#6450C8" d="M277.2,60.2h2.9v0.6h-1.1v3.6h-0.6v-3.6h-1.1V60.2z"/>
	<path fill="#6450C8" d="M282.9,63.5h-0.4l-1.2-1.9v2.8h-0.6v-4.2h0.4l1.6,2.5l1.6-2.5h0.4v4.2h-0.6v-2.8L282.9,63.5z"/>
</g>
</svg>
