<?xml version="1.0" encoding="UTF-8"?>
<svg id="a" data-name="Layer 1" xmlns="http://www.w3.org/2000/svg" viewBox="0 0 252 90">
  <g>
    <path d="m66.01,39.82h7.17v24.45h-7.17v-24.45Z" style="fill: #13294b;"/>
    <path d="m199.56,52.04c0-6.98,5.24-12.6,13.09-12.6s13.13,5.62,13.13,12.6c0,7.05-5.28,12.68-13.13,12.68-7.85,0-13.09-5.62-13.09-12.68Zm18.75,0c0-3.55-2.34-6.11-5.66-6.11-3.09,0-5.62,2.57-5.62,6.11s2.34,6.19,5.62,6.19c3.32,0,5.66-2.57,5.66-6.19Z" style="fill: #13294b;"/>
    <path d="m108.78,45.9h-6.43v-6.07h20.04v6.07h-6.43s0,18.37,0,18.37h-7.17v-18.37Z" style="fill: #13294b;"/>
    <path d="m175.87,39.82h8.96c8.19,0,13.32,5.55,13.32,12.22,0,6.68-5.13,12.22-13.32,12.22h-8.96v-24.45Zm8.7,18.37c3.66,0,6-2.6,6-6.15,0-3.51-2.34-6.15-6-6.15h-1.53s0,12.3,0,12.3h1.53Z" style="fill: #13294b;"/>
    <path d="m147.36,49.48c0-5.32-3.85-9.66-11.36-9.66h-10.79v24.45h7.17v-5.13h3.58c.18,0,.34-.01.52-.02l2.77,5.15h8.1l-4.25-6.93c2.82-1.75,4.25-4.62,4.25-7.86Zm-14.98-3.58h3.81c2.08,0,3.58,1.58,3.58,3.58s-1.51,3.58-3.62,3.58h-3.77v-7.17Z" style="fill: #13294b;"/>
    <path d="m167.07,64.27h7.32l-8.72-24.45h-8.5l-8.72,24.45h7.32l.94-2.89h9.42l.94,2.89Zm-8.38-8.97l2.73-8.43,2.73,8.43h-5.47Z" style="fill: #13294b;"/>
    <polygon points="92.36 39.82 92.36 52.18 83.49 39.82 77.26 39.82 77.26 64.27 84.43 64.27 84.43 52.13 93.3 64.27 99.53 64.27 99.53 39.82 92.36 39.82" style="fill: #13294b;"/>
  </g>
  <g>
    <path d="m63.97,16.15s0,.02,0,.03l-5.44,37.23c-.16,1.11-.94,2.04-2,2.4,0,0-.01,0-.02,0l-8.59,2.86c.33-.97,5.42-16.45,5.92-17.93.58-1.75-.55-3.6-2.37-3.89l-25.48-4.04c-1.43-.23-1.72-2.15-.45-2.81L59.67,13.06c2.15-1.06,4.61.71,4.29,3.09Z" style="fill: #003b5c;"/>
    <path d="m47.92,58.67l-2.96,8.97h0c-.59,1.77-2.61,2.56-4.23,1.71-.02-.01-.03-.02-.04-.03l-6.62-4.1c-.8-.49-.67-1.69.21-2l13.64-4.55Z" style="fill: #8ce2d0;"/>
    <path d="m53.84,40.74c-.53,1.6-5.55,16.84-5.92,17.93l-13.64,4.55c-.88.32-1.01,1.51-.21,2l-1.58-.98c-.3-.18-.51-.46-.63-.79l-9.67-28.9c-.05-.15-.08-.29-.11-.43-.23-1.29.41-2.6,1.61-3.2l1.84-.91c-1.28.66-.98,2.57.45,2.81l25.48,4.04c1.82.29,2.95,2.14,2.37,3.89Z" style="fill: #00677f;"/>
  </g>
</svg>