<?xml version="1.0" encoding="UTF-8"?>
<svg xmlns="http://www.w3.org/2000/svg" xmlns:xlink="http://www.w3.org/1999/xlink" width="939.31pt" height="148.63pt" viewBox="0 0 939.31 148.63" version="1.1">
<defs>
<clipPath id="clip1">
  <path d="M 918 30 L 939.308594 30 L 939.308594 52 L 918 52 Z M 918 30 "/>
</clipPath>
<clipPath id="clip2">
  <path d="M 482 126 L 506 126 L 506 148.628906 L 482 148.628906 Z M 482 126 "/>
</clipPath>
<clipPath id="clip3">
  <path d="M 505 126 L 528 126 L 528 148.628906 L 505 148.628906 Z M 505 126 "/>
</clipPath>
<clipPath id="clip4">
  <path d="M 563 126 L 583 126 L 583 148.628906 L 563 148.628906 Z M 563 126 "/>
</clipPath>
<clipPath id="clip5">
  <path d="M 601 126 L 624 126 L 624 148.628906 L 601 148.628906 Z M 601 126 "/>
</clipPath>
<clipPath id="clip6">
  <path d="M 651 126 L 675 126 L 675 148.628906 L 651 148.628906 Z M 651 126 "/>
</clipPath>
<clipPath id="clip7">
  <path d="M 675 126 L 697 126 L 697 148.628906 L 675 148.628906 Z M 675 126 "/>
</clipPath>
<clipPath id="clip8">
  <path d="M 705 114 L 736 114 L 736 148.628906 L 705 148.628906 Z M 705 114 "/>
</clipPath>
<clipPath id="clip9">
  <path d="M 736 126 L 757 126 L 757 148.628906 L 736 148.628906 Z M 736 126 "/>
</clipPath>
<clipPath id="clip10">
  <path d="M 792 126 L 813 126 L 813 148.628906 L 792 148.628906 Z M 792 126 "/>
</clipPath>
<clipPath id="clip11">
  <path d="M 877 126 L 899 126 L 899 148.628906 L 877 148.628906 Z M 877 126 "/>
</clipPath>
<clipPath id="clip12">
  <path d="M 897 126 L 921 126 L 921 148.628906 L 897 148.628906 Z M 897 126 "/>
</clipPath>
</defs>
<g id="surface1">
<path style=" stroke:none;fill-rule:nonzero;fill:rgb(61.999512%,48.199463%,35.299683%);fill-opacity:1;" d="M 80.25 69.503906 L 82.625 70 L 74.375 96.128906 L 0 96.128906 L 0 93.503906 L 3.59375 93.503906 C 7.636719 93.503906 10.527344 92.191406 12.269531 89.558594 C 13.253906 88.054688 13.75 84.578125 13.75 79.128906 L 13.75 17.003906 C 13.75 11.007813 13.089844 7.257813 11.773438 5.746094 C 9.941406 3.667969 7.214844 2.628906 3.59375 2.628906 L 0 2.628906 L 0 0.00390625 L 43.5 0.00390625 L 43.5 2.628906 C 38.382813 2.582031 34.796875 3.050781 32.738281 4.035156 C 30.675781 5.019531 29.269531 6.261719 28.511719 7.757813 C 27.753906 9.257813 27.375 12.839844 27.375 18.503906 L 27.375 79 C 27.375 82.929688 27.753906 85.628906 28.507813 87.09375 C 29.078125 88.089844 29.949219 88.824219 31.128906 89.296875 C 32.3125 89.769531 35.996094 90.003906 42.1875 90.003906 L 49.207031 90.003906 C 56.578125 90.003906 61.75 89.460938 64.726563 88.375 C 67.703125 87.285156 70.421875 85.359375 72.878906 82.59375 C 75.335938 79.828125 77.792969 75.464844 80.25 69.503906 "/>
<path style=" stroke:none;fill-rule:nonzero;fill:rgb(61.999512%,48.199463%,35.299683%);fill-opacity:1;" d="M 109.253906 94.378906 L 109.253906 96.128906 L 82.003906 96.128906 L 82.003906 94.378906 L 84.257813 94.378906 C 86.894531 94.378906 88.804688 93.617188 89.996094 92.085938 C 90.75 91.089844 91.128906 88.6875 91.128906 84.878906 L 91.128906 43.816406 C 91.128906 40.605469 90.921875 38.484375 90.515625 37.453125 C 90.203125 36.675781 89.558594 36.003906 88.585938 35.441406 C 87.207031 34.691406 85.765625 34.316406 84.257813 34.316406 L 82.003906 34.316406 L 82.003906 32.566406 L 109.253906 32.566406 L 109.253906 34.316406 L 106.960938 34.316406 C 104.367188 34.316406 102.480469 35.082031 101.296875 36.609375 C 100.515625 37.609375 100.128906 40.011719 100.128906 43.816406 L 100.128906 84.878906 C 100.128906 88.09375 100.328125 90.214844 100.734375 91.246094 C 101.046875 92.023438 101.703125 92.695313 102.699219 93.257813 C 104.042969 94.007813 105.460938 94.378906 106.960938 94.378906 "/>
<path style=" stroke:none;fill-rule:nonzero;fill:rgb(61.999512%,48.199463%,35.299683%);fill-opacity:1;" d="M 130.0625 91.550781 C 133.703125 92.394531 137.300781 92.816406 140.847656 92.816406 C 146.527344 92.816406 150.855469 91.542969 153.839844 88.996094 C 156.820313 86.449219 158.3125 83.300781 158.3125 79.550781 C 158.3125 77.082031 157.621094 74.707031 156.234375 72.425781 C 154.851563 70.144531 152.640625 68.347656 149.609375 67.035156 C 146.578125 65.722656 142.828125 65.066406 138.359375 65.066406 C 136.421875 65.066406 134.765625 65.097656 133.390625 65.160156 C 132.015625 65.222656 130.90625 65.332031 130.0625 65.488281 Z M 130.0625 61.160156 C 131.21875 61.378906 132.539063 61.542969 134.023438 61.652344 C 135.507813 61.761719 137.140625 61.816406 138.921875 61.816406 C 143.484375 61.816406 146.914063 61.324219 149.210938 60.339844 C 151.507813 59.355469 153.265625 57.847656 154.484375 55.8125 C 155.703125 53.78125 156.3125 51.5625 156.3125 49.152344 C 156.3125 45.433594 154.796875 42.261719 151.765625 39.632813 C 148.734375 37.007813 144.3125 35.691406 138.5 35.691406 C 135.375 35.691406 132.5625 36.039063 130.0625 36.726563 Z M 154.625 63.703125 C 159.03125 64.640625 162.328125 66.140625 164.515625 68.199219 C 167.546875 71.074219 169.0625 74.589844 169.0625 78.746094 C 169.0625 81.902344 168.0625 84.921875 166.0625 87.8125 C 164.0625 90.703125 161.320313 92.8125 157.835938 94.140625 C 154.351563 95.46875 149.03125 96.128906 141.875 96.128906 L 111.875 96.128906 L 111.875 94.378906 L 114.265625 94.378906 C 116.921875 94.378906 118.828125 93.539063 119.984375 91.851563 C 120.703125 90.761719 121.0625 88.4375 121.0625 84.878906 L 121.0625 43.816406 C 121.0625 39.886719 120.609375 37.40625 119.703125 36.378906 C 118.484375 35.003906 116.671875 34.316406 114.265625 34.316406 L 111.875 34.316406 L 111.875 32.566406 L 139.351563 32.566406 C 144.480469 32.566406 148.589844 32.941406 151.683594 33.691406 C 156.371094 34.820313 159.953125 36.8125 162.421875 39.671875 C 164.890625 42.53125 166.125 45.820313 166.125 49.539063 C 166.125 52.730469 165.15625 55.582031 163.214844 58.097656 C 161.273438 60.613281 158.410156 62.484375 154.625 63.703125 "/>
<path style=" stroke:none;fill-rule:nonzero;fill:rgb(61.999512%,48.199463%,35.299683%);fill-opacity:1;" d="M 186.378906 36.066406 L 186.378906 61.066406 L 200.316406 61.066406 C 203.945313 61.066406 206.371094 60.519531 207.59375 59.425781 C 209.21875 57.984375 210.128906 55.449219 210.316406 51.816406 L 212.066406 51.816406 L 212.066406 74.066406 L 210.316406 74.066406 C 209.875 70.964844 209.4375 68.972656 209 68.09375 C 208.4375 66.996094 207.511719 66.136719 206.230469 65.507813 C 204.945313 64.882813 202.976563 64.566406 200.316406 64.566406 L 186.378906 64.566406 L 186.378906 85.507813 C 186.378906 88.320313 186.503906 90.03125 186.753906 90.640625 C 187.003906 91.25 187.441406 91.734375 188.066406 92.09375 C 188.691406 92.453125 189.878906 92.628906 191.628906 92.628906 L 202.40625 92.628906 C 206.003906 92.628906 208.609375 92.382813 210.234375 91.882813 C 211.859375 91.382813 213.425781 90.402344 214.925781 88.9375 C 216.859375 87.003906 218.847656 84.089844 220.878906 80.191406 L 222.753906 80.191406 L 217.269531 96.128906 L 168.253906 96.128906 L 168.253906 94.378906 L 170.511719 94.378906 C 172.015625 94.378906 173.441406 94.019531 174.789063 93.296875 C 175.792969 92.796875 176.476563 92.046875 176.835938 91.042969 C 177.195313 90.039063 177.378906 87.984375 177.378906 84.878906 L 177.378906 43.628906 C 177.378906 39.605469 176.96875 37.125 176.152344 36.191406 C 175.023438 34.941406 173.144531 34.316406 170.511719 34.316406 L 168.253906 34.316406 L 168.253906 32.566406 L 217.253906 32.566406 L 217.941406 46.566406 L 216.128906 46.566406 C 215.472656 43.210938 214.746094 40.902344 213.949219 39.648438 C 213.152344 38.390625 211.972656 37.433594 210.410156 36.773438 C 209.160156 36.304688 206.960938 36.066406 203.804688 36.066406 "/>
<path style=" stroke:none;fill-rule:nonzero;fill:rgb(61.999512%,48.199463%,35.299683%);fill-opacity:1;" d="M 241.214844 63.441406 C 241.800781 63.441406 242.308594 63.449219 242.742188 63.464844 C 243.171875 63.480469 243.527344 63.488281 243.808594 63.488281 C 249.792969 63.488281 254.304688 62.179688 257.34375 59.554688 C 260.382813 56.933594 261.902344 53.589844 261.902344 49.527344 C 261.902344 45.5625 260.675781 42.339844 258.222656 39.855469 C 255.769531 37.371094 252.523438 36.128906 248.480469 36.128906 C 246.691406 36.128906 244.269531 36.421875 241.214844 37.003906 Z M 286.332031 96.128906 L 269.320313 96.128906 L 247.753906 66.378906 C 246.1875 66.441406 244.914063 66.472656 243.929688 66.472656 C 243.53125 66.472656 243.101563 66.464844 242.640625 66.449219 C 242.179688 66.433594 241.707031 66.410156 241.214844 66.378906 L 241.214844 84.878906 C 241.214844 88.875 241.652344 91.355469 242.527344 92.320313 C 243.710938 93.695313 245.488281 94.378906 247.859375 94.378906 L 250.339844 94.378906 L 250.339844 96.128906 L 223.089844 96.128906 L 223.089844 94.378906 L 225.476563 94.378906 C 228.160156 94.378906 230.078125 93.507813 231.234375 91.757813 C 231.886719 90.792969 232.214844 88.5 232.214844 84.878906 L 232.214844 43.816406 C 232.214844 39.824219 231.777344 37.34375 230.90625 36.378906 C 229.6875 35.003906 227.878906 34.316406 225.476563 34.316406 L 223.089844 34.316406 L 223.089844 32.566406 L 246.230469 32.566406 C 252.976563 32.566406 257.949219 33.058594 261.152344 34.042969 C 264.351563 35.027344 267.070313 36.835938 269.304688 39.476563 C 271.535156 42.113281 272.652344 45.257813 272.652344 48.910156 C 272.652344 52.816406 271.378906 56.203125 268.828125 59.074219 C 266.277344 61.949219 262.328125 63.976563 256.980469 65.164063 L 270.160156 83.386719 C 273.160156 87.585938 275.738281 90.371094 277.894531 91.75 C 280.050781 93.128906 282.863281 94.003906 286.332031 94.378906 "/>
<path style=" stroke:none;fill-rule:nonzero;fill:rgb(61.999512%,48.199463%,35.299683%);fill-opacity:1;" d="M 331.488281 32.566406 L 332.175781 47.488281 L 330.394531 47.488281 C 330.050781 44.863281 329.578125 42.988281 328.984375 41.863281 C 328.015625 40.050781 326.726563 38.714844 325.117188 37.855469 C 323.503906 36.996094 321.386719 36.566406 318.757813 36.566406 L 309.800781 36.566406 L 309.800781 85.128906 C 309.800781 89.023438 310.21875 91.453125 311.0625 92.417969 C 312.25 93.726563 314.074219 94.378906 316.539063 94.378906 L 318.738281 94.378906 L 318.738281 96.128906 L 291.800781 96.128906 L 291.800781 94.378906 L 294.050781 94.378906 C 296.738281 94.378906 298.644531 93.570313 299.769531 91.949219 C 300.457031 90.953125 300.800781 88.679688 300.800781 85.128906 L 300.800781 36.566406 L 293.152344 36.566406 C 290.179688 36.566406 288.070313 36.785156 286.820313 37.222656 C 285.191406 37.816406 283.800781 38.957031 282.644531 40.644531 C 281.488281 42.332031 280.800781 44.613281 280.582031 47.488281 L 278.800781 47.488281 L 279.550781 32.566406 "/>
<path style=" stroke:none;fill-rule:nonzero;fill:rgb(61.999512%,48.199463%,35.299683%);fill-opacity:1;" d="M 380.789063 32.566406 L 402.980469 32.566406 L 402.980469 34.316406 L 401.761719 34.316406 C 400.949219 34.316406 399.761719 34.675781 398.199219 35.394531 C 396.636719 36.113281 395.214844 37.144531 393.933594 38.488281 C 392.652344 39.832031 391.074219 42.019531 389.199219 45.050781 L 373.859375 69.203125 L 373.859375 85.128906 C 373.859375 89.023438 374.296875 91.453125 375.171875 92.417969 C 376.359375 93.726563 378.234375 94.378906 380.796875 94.378906 L 382.859375 94.378906 L 382.859375 96.128906 L 355.859375 96.128906 L 355.859375 94.378906 L 358.109375 94.378906 C 360.796875 94.378906 362.703125 93.570313 363.828125 91.949219 C 364.515625 90.953125 364.859375 88.679688 364.859375 85.128906 L 364.859375 70.042969 L 347.449219 43.425781 C 345.386719 40.3125 343.988281 38.367188 343.253906 37.585938 C 342.519531 36.808594 340.996094 35.875 338.683594 34.785156 C 338.058594 34.472656 337.152344 34.316406 335.964844 34.316406 L 335.964844 32.566406 L 363.125 32.566406 L 363.125 34.316406 L 361.71875 34.316406 C 360.25 34.316406 358.898438 34.660156 357.664063 35.347656 C 356.429688 36.035156 355.8125 37.0625 355.8125 38.4375 C 355.8125 39.558594 356.765625 41.589844 358.671875 44.519531 L 371.953125 65.003906 L 384.398438 45.410156 C 386.273438 42.476563 387.210938 40.292969 387.210938 38.859375 C 387.210938 37.984375 386.984375 37.203125 386.53125 36.519531 C 386.078125 35.832031 385.429688 35.292969 384.585938 34.902344 C 383.742188 34.511719 382.476563 34.316406 380.789063 34.316406 "/>
<path style=" stroke:none;fill-rule:nonzero;fill:rgb(52.89917%,46.299744%,38.798523%);fill-opacity:1;" d="M 445.390625 44.628906 L 490.015625 44.628906 L 490.015625 17.003906 C 490.015625 12.121094 489.703125 8.902344 489.09375 7.351563 C 488.617188 6.175781 487.628906 5.167969 486.113281 4.320313 C 484.085938 3.195313 481.933594 2.628906 479.664063 2.628906 L 476.265625 2.628906 L 476.265625 0.00390625 L 517.390625 0.00390625 L 517.390625 2.628906 L 513.984375 2.628906 C 511.71875 2.628906 509.566406 3.171875 507.535156 4.25 C 506.023438 5.003906 504.996094 6.140625 504.453125 7.667969 C 503.910156 9.195313 503.640625 12.308594 503.640625 17.003906 L 503.640625 79.128906 C 503.640625 83.992188 503.945313 87.203125 504.5625 88.761719 C 505.03125 89.941406 506.003906 90.957031 507.46875 91.804688 C 509.546875 92.9375 511.71875 93.503906 513.984375 93.503906 L 517.390625 93.503906 L 517.390625 96.128906 L 476.265625 96.128906 L 476.265625 93.503906 L 479.664063 93.503906 C 483.589844 93.503906 486.445313 92.347656 488.242188 90.035156 C 489.421875 88.523438 490.015625 84.890625 490.015625 79.128906 L 490.015625 49.878906 L 445.390625 49.878906 L 445.390625 79.128906 C 445.390625 83.992188 445.695313 87.203125 446.304688 88.761719 C 446.773438 89.941406 447.761719 90.957031 449.269531 91.804688 C 451.289063 92.9375 453.425781 93.503906 455.683594 93.503906 L 459.140625 93.503906 L 459.140625 96.128906 L 418.015625 96.128906 L 418.015625 93.503906 L 421.417969 93.503906 C 425.386719 93.503906 428.265625 92.347656 430.0625 90.035156 C 431.195313 88.523438 431.765625 84.890625 431.765625 79.128906 L 431.765625 17.003906 C 431.765625 12.121094 431.457031 8.902344 430.84375 7.351563 C 430.371094 6.175781 429.402344 5.167969 427.9375 4.320313 C 425.859375 3.195313 423.683594 2.628906 421.417969 2.628906 L 418.015625 2.628906 L 418.015625 0.00390625 L 459.140625 0.00390625 L 459.140625 2.628906 L 455.683594 2.628906 C 453.425781 2.628906 451.289063 3.171875 449.269531 4.25 C 447.808594 5.003906 446.796875 6.140625 446.234375 7.667969 C 445.671875 9.195313 445.390625 12.308594 445.390625 17.003906 "/>
<path style=" stroke:none;fill-rule:nonzero;fill:rgb(52.89917%,46.299744%,38.798523%);fill-opacity:1;" d="M 553.210938 71.378906 L 542.503906 45.691406 L 531.460938 71.378906 Z M 554.671875 74.878906 L 529.957031 74.878906 L 525.65625 84.878906 C 524.597656 87.34375 524.066406 89.183594 524.066406 90.402344 C 524.066406 91.367188 524.523438 92.21875 525.445313 92.953125 C 526.367188 93.6875 528.359375 94.160156 531.425781 94.378906 L 531.425781 96.128906 L 511.355469 96.128906 L 511.355469 94.378906 C 514.011719 93.910156 515.730469 93.300781 516.511719 92.550781 C 518.105469 91.050781 519.867188 88.003906 521.808594 83.410156 L 544.210938 31.128906 L 545.863281 31.128906 L 568.03125 83.988281 C 569.816406 88.234375 571.433594 90.984375 572.886719 92.25 C 574.339844 93.515625 576.359375 94.222656 578.953125 94.378906 L 578.953125 96.128906 L 553.875 96.128906 L 553.875 94.378906 C 556.40625 94.253906 558.117188 93.832031 559.007813 93.117188 C 559.898438 92.398438 560.34375 91.523438 560.34375 90.496094 C 560.34375 89.121094 559.71875 86.953125 558.46875 83.988281 "/>
<path style=" stroke:none;fill-rule:nonzero;fill:rgb(52.89917%,46.299744%,38.798523%);fill-opacity:1;" d="M 588.664063 63.441406 C 589.25 63.441406 589.757813 63.449219 590.191406 63.464844 C 590.621094 63.480469 590.976563 63.488281 591.253906 63.488281 C 597.238281 63.488281 601.753906 62.179688 604.792969 59.554688 C 607.832031 56.933594 609.351563 53.589844 609.351563 49.527344 C 609.351563 45.5625 608.125 42.339844 605.671875 39.855469 C 603.21875 37.371094 599.972656 36.128906 595.929688 36.128906 C 594.140625 36.128906 591.71875 36.421875 588.664063 37.003906 Z M 633.777344 96.128906 L 616.769531 96.128906 L 595.199219 66.378906 C 593.636719 66.441406 592.359375 66.472656 591.378906 66.472656 C 590.980469 66.472656 590.550781 66.464844 590.089844 66.449219 C 589.628906 66.433594 589.152344 66.410156 588.664063 66.378906 L 588.664063 84.878906 C 588.664063 88.875 589.101563 91.351563 589.972656 92.320313 C 591.160156 93.691406 592.9375 94.378906 595.308594 94.378906 L 597.789063 94.378906 L 597.789063 96.128906 L 570.539063 96.128906 L 570.539063 94.378906 L 572.925781 94.378906 C 575.605469 94.378906 577.527344 93.507813 578.679688 91.757813 C 579.335938 90.792969 579.664063 88.5 579.664063 84.878906 L 579.664063 43.816406 C 579.664063 39.824219 579.226563 37.34375 578.351563 36.378906 C 577.136719 35.003906 575.324219 34.316406 572.925781 34.316406 L 570.539063 34.316406 L 570.539063 32.566406 L 593.679688 32.566406 C 600.425781 32.566406 605.398438 33.058594 608.601563 34.042969 C 611.800781 35.027344 614.519531 36.835938 616.75 39.476563 C 618.984375 42.113281 620.101563 45.257813 620.101563 48.910156 C 620.101563 52.8125 618.824219 56.203125 616.273438 59.074219 C 613.726563 61.945313 609.777344 63.976563 604.425781 65.160156 L 617.605469 83.386719 C 620.605469 87.585938 623.1875 90.371094 625.34375 91.75 C 627.496094 93.128906 630.3125 94.003906 633.777344 94.378906 "/>
<path style=" stroke:none;fill-rule:nonzero;fill:rgb(52.89917%,46.299744%,38.798523%);fill-opacity:1;" d="M 642.421875 91.503906 C 646.375 92.378906 649.691406 92.816406 652.367188 92.816406 C 659.589844 92.816406 665.578125 90.273438 670.34375 85.183594 C 675.105469 80.089844 677.484375 73.1875 677.484375 64.472656 C 677.484375 55.695313 675.105469 48.777344 670.34375 43.71875 C 665.578125 38.660156 659.464844 36.128906 651.992188 36.128906 C 649.191406 36.128906 646.003906 36.582031 642.421875 37.488281 Z M 624.296875 96.128906 L 624.296875 94.378906 L 626.683594 94.378906 C 629.367188 94.378906 631.269531 93.523438 632.394531 91.804688 C 633.078125 90.777344 633.421875 88.46875 633.421875 84.878906 L 633.421875 43.816406 C 633.421875 39.855469 632.984375 37.375 632.109375 36.378906 C 630.894531 35.003906 629.085938 34.316406 626.683594 34.316406 L 624.296875 34.316406 L 624.296875 32.566406 L 650.136719 32.566406 C 659.621094 32.566406 666.835938 33.644531 671.78125 35.800781 C 676.730469 37.957031 680.707031 41.550781 683.71875 46.582031 C 686.730469 51.613281 688.234375 57.425781 688.234375 64.019531 C 688.234375 72.863281 685.550781 80.253906 680.183594 86.191406 C 674.160156 92.816406 664.988281 96.128906 652.660156 96.128906 "/>
<path style=" stroke:none;fill-rule:nonzero;fill:rgb(52.89917%,46.299744%,38.798523%);fill-opacity:1;" d="M 770.996094 32.566406 L 770.996094 34.316406 C 769.34375 34.316406 767.996094 34.613281 766.96875 35.207031 C 765.9375 35.800781 764.949219 36.910156 764.015625 38.535156 C 763.390625 39.628906 762.402344 42.234375 761.0625 46.359375 L 743.40625 97.566406 L 741.511719 97.566406 L 727.015625 56.898438 L 712.671875 97.566406 L 710.96875 97.566406 L 692.097656 44.789063 C 690.691406 40.863281 689.800781 38.539063 689.425781 37.824219 C 688.800781 36.640625 687.949219 35.757813 686.871094 35.183594 C 685.792969 34.605469 684.332031 34.316406 682.488281 34.316406 L 682.488281 32.566406 L 705.980469 32.566406 L 705.980469 34.316406 L 704.855469 34.316406 C 703.199219 34.316406 701.9375 34.6875 701.0625 35.433594 C 700.1875 36.179688 699.746094 37.078125 699.746094 38.132813 C 699.746094 39.214844 700.4375 41.710938 701.8125 45.617188 L 714.34375 81.246094 L 724.882813 50.917969 L 723.019531 45.683594 L 721.515625 41.429688 C 720.855469 39.867188 720.121094 38.496094 719.308594 37.3125 C 718.898438 36.71875 718.398438 36.222656 717.804688 35.8125 C 717.023438 35.253906 716.238281 34.847656 715.457031 34.597656 C 714.859375 34.410156 713.921875 34.316406 712.640625 34.316406 L 712.640625 32.566406 L 737.382813 32.566406 L 737.382813 34.316406 L 735.695313 34.316406 C 733.945313 34.316406 732.664063 34.691406 731.851563 35.441406 C 731.039063 36.191406 730.632813 37.203125 730.632813 38.484375 C 730.632813 40.078125 731.335938 42.855469 732.742188 46.820313 L 744.9375 81.367188 L 757.003906 46.351563 C 758.378906 42.480469 759.066406 39.796875 759.066406 38.296875 C 759.066406 37.578125 758.839844 36.910156 758.386719 36.285156 C 757.933594 35.660156 757.363281 35.222656 756.675781 34.972656 C 755.488281 34.535156 753.941406 34.316406 752.035156 34.316406 L 752.035156 32.566406 "/>
<path style=" stroke:none;fill-rule:nonzero;fill:rgb(52.89917%,46.299744%,38.798523%);fill-opacity:1;" d="M 792.089844 71.378906 L 781.382813 45.691406 L 770.34375 71.378906 Z M 793.550781 74.878906 L 768.835938 74.878906 L 764.539063 84.878906 C 763.476563 87.34375 762.945313 89.183594 762.945313 90.402344 C 762.945313 91.367188 763.40625 92.21875 764.328125 92.953125 C 765.25 93.6875 767.242188 94.160156 770.304688 94.378906 L 770.304688 96.128906 L 750.234375 96.128906 L 750.234375 94.378906 C 752.890625 93.910156 754.609375 93.300781 755.390625 92.550781 C 756.984375 91.050781 758.75 88.003906 760.6875 83.410156 L 783.09375 31.128906 L 784.742188 31.128906 L 806.914063 83.988281 C 808.695313 88.234375 810.3125 90.984375 811.765625 92.25 C 813.21875 93.515625 815.242188 94.222656 817.835938 94.378906 L 817.835938 96.128906 L 792.753906 96.128906 L 792.753906 94.378906 C 795.285156 94.253906 796.996094 93.832031 797.886719 93.117188 C 798.777344 92.398438 799.222656 91.523438 799.222656 90.496094 C 799.222656 89.121094 798.597656 86.953125 797.347656 83.988281 "/>
<path style=" stroke:none;fill-rule:nonzero;fill:rgb(52.89917%,46.299744%,38.798523%);fill-opacity:1;" d="M 829.753906 63.441406 C 830.339844 63.441406 830.847656 63.449219 831.277344 63.464844 C 831.710938 63.480469 832.066406 63.488281 832.34375 63.488281 C 838.328125 63.488281 842.84375 62.179688 845.882813 59.554688 C 848.921875 56.933594 850.441406 53.589844 850.441406 49.527344 C 850.441406 45.5625 849.214844 42.339844 846.761719 39.855469 C 844.308594 37.371094 841.058594 36.128906 837.019531 36.128906 C 835.230469 36.128906 832.808594 36.421875 829.753906 37.003906 Z M 874.867188 96.128906 L 857.855469 96.128906 L 836.289063 66.378906 C 834.722656 66.441406 833.449219 66.472656 832.46875 66.472656 C 832.066406 66.472656 831.640625 66.464844 831.179688 66.449219 C 830.71875 66.433594 830.242188 66.410156 829.753906 66.378906 L 829.753906 84.878906 C 829.753906 88.875 830.1875 91.351563 831.0625 92.320313 C 832.246094 93.691406 834.023438 94.378906 836.398438 94.378906 L 838.878906 94.378906 L 838.878906 96.128906 L 811.628906 96.128906 L 811.628906 94.378906 L 814.015625 94.378906 C 816.695313 94.378906 818.613281 93.507813 819.769531 91.757813 C 820.425781 90.792969 820.753906 88.5 820.753906 84.878906 L 820.753906 43.816406 C 820.753906 39.824219 820.316406 37.34375 819.441406 36.378906 C 818.226563 35.003906 816.414063 34.316406 814.015625 34.316406 L 811.628906 34.316406 L 811.628906 32.566406 L 834.769531 32.566406 C 841.515625 32.566406 846.484375 33.058594 849.6875 34.042969 C 852.890625 35.027344 855.605469 36.835938 857.839844 39.476563 C 860.070313 42.113281 861.191406 45.257813 861.191406 48.910156 C 861.191406 52.8125 859.914063 56.203125 857.363281 59.074219 C 854.816406 61.945313 850.863281 63.976563 845.515625 65.160156 L 858.695313 83.386719 C 861.695313 87.585938 864.273438 90.371094 866.429688 91.75 C 868.585938 93.128906 871.398438 94.003906 874.867188 94.378906 "/>
<path style=" stroke:none;fill-rule:nonzero;fill:rgb(52.89917%,46.299744%,38.798523%);fill-opacity:1;" d="M 883.566406 36.066406 L 883.566406 61.066406 L 897.507813 61.066406 C 901.136719 61.066406 903.5625 60.519531 904.78125 59.425781 C 906.410156 57.984375 907.316406 55.449219 907.507813 51.816406 L 909.257813 51.816406 L 909.257813 74.066406 L 907.507813 74.066406 C 907.066406 70.964844 906.628906 68.972656 906.191406 68.09375 C 905.628906 66.996094 904.703125 66.136719 903.421875 65.507813 C 902.140625 64.878906 900.164063 64.566406 897.507813 64.566406 L 883.566406 64.566406 L 883.566406 85.507813 C 883.566406 88.320313 883.691406 90.03125 883.941406 90.640625 C 884.191406 91.25 884.632813 91.730469 885.257813 92.09375 C 885.882813 92.449219 887.066406 92.628906 888.816406 92.628906 L 899.601563 92.628906 C 903.191406 92.628906 905.804688 92.378906 907.429688 91.882813 C 909.054688 91.382813 910.613281 90.402344 912.113281 88.9375 C 914.054688 87.003906 916.035156 84.089844 918.066406 80.191406 L 919.941406 80.191406 L 914.460938 96.128906 L 865.441406 96.128906 L 865.441406 94.378906 L 867.699219 94.378906 C 869.207031 94.378906 870.632813 94.019531 871.980469 93.296875 C 872.984375 92.796875 873.664063 92.042969 874.027344 91.039063 C 874.390625 90.039063 874.566406 87.984375 874.566406 84.878906 L 874.566406 43.628906 C 874.566406 39.605469 874.160156 37.125 873.347656 36.1875 C 872.21875 34.941406 870.335938 34.316406 867.699219 34.316406 L 865.441406 34.316406 L 865.441406 32.566406 L 914.441406 32.566406 L 915.132813 46.566406 L 913.316406 46.566406 C 912.660156 43.210938 911.9375 40.902344 911.140625 39.644531 C 910.34375 38.390625 909.164063 37.433594 907.605469 36.773438 C 906.355469 36.304688 904.152344 36.066406 900.996094 36.066406 "/>
<g clip-path="url(#clip1)" clip-rule="nonzero">
<path style=" stroke:none;fill-rule:nonzero;fill:rgb(52.89917%,46.299744%,38.798523%);fill-opacity:1;" d="M 925.992188 39.96875 L 928.21875 39.96875 C 929.28125 39.96875 930.007813 39.8125 930.394531 39.492188 C 930.78125 39.179688 930.976563 38.757813 930.976563 38.238281 C 930.976563 37.902344 930.882813 37.601563 930.695313 37.335938 C 930.511719 37.070313 930.25 36.871094 929.921875 36.742188 C 929.589844 36.613281 928.976563 36.546875 928.078125 36.546875 L 925.992188 36.546875 Z M 924.164063 46.359375 L 924.164063 35.015625 L 928.066406 35.015625 C 929.398438 35.015625 930.359375 35.121094 930.957031 35.328125 C 931.554688 35.539063 932.027344 35.902344 932.382813 36.425781 C 932.734375 36.945313 932.914063 37.5 932.914063 38.085938 C 932.914063 38.914063 932.617188 39.636719 932.023438 40.25 C 931.429688 40.863281 930.644531 41.207031 929.660156 41.28125 C 930.0625 41.449219 930.382813 41.648438 930.625 41.882813 C 931.078125 42.332031 931.640625 43.082031 932.300781 44.136719 L 933.679688 46.359375 L 931.453125 46.359375 L 930.445313 44.570313 C 929.65625 43.160156 929.015625 42.277344 928.53125 41.925781 C 928.195313 41.664063 927.707031 41.53125 927.066406 41.53125 L 925.992188 41.53125 L 925.992188 46.359375 Z M 928.789063 31.75 C 927.3125 31.75 925.871094 32.128906 924.476563 32.886719 C 923.074219 33.644531 921.980469 34.726563 921.191406 36.136719 C 920.402344 37.546875 920.007813 39.015625 920.007813 40.539063 C 920.007813 42.054688 920.394531 43.507813 921.171875 44.898438 C 921.945313 46.289063 923.03125 47.371094 924.425781 48.148438 C 925.820313 48.925781 927.273438 49.3125 928.789063 49.3125 C 930.304688 49.3125 931.757813 48.925781 933.148438 48.148438 C 934.546875 47.371094 935.628906 46.289063 936.398438 44.898438 C 937.167969 43.507813 937.554688 42.054688 937.554688 40.539063 C 937.554688 39.015625 937.160156 37.546875 936.378906 36.136719 C 935.59375 34.726563 934.496094 33.644531 933.09375 32.886719 C 931.691406 32.128906 930.257813 31.75 928.789063 31.75 M 928.789063 30 C 930.554688 30 932.277344 30.453125 933.964844 31.359375 C 935.648438 32.269531 936.957031 33.566406 937.898438 35.257813 C 938.835938 36.945313 939.304688 38.707031 939.304688 40.539063 C 939.304688 42.351563 938.84375 44.097656 937.914063 45.773438 C 936.992188 47.449219 935.695313 48.746094 934.023438 49.675781 C 932.355469 50.601563 930.609375 51.0625 928.789063 51.0625 C 926.964844 51.0625 925.21875 50.601563 923.550781 49.675781 C 921.882813 48.746094 920.582031 47.449219 919.652344 45.773438 C 918.722656 44.097656 918.257813 42.351563 918.257813 40.539063 C 918.257813 38.707031 918.730469 36.945313 919.675781 35.257813 C 920.617188 33.566406 921.929688 32.269531 923.613281 31.359375 C 925.296875 30.453125 927.023438 30 928.789063 30 "/>
</g>
<path style=" stroke:none;fill-rule:nonzero;fill:rgb(52.89917%,46.299744%,38.798523%);fill-opacity:1;" d="M 439.484375 147.878906 L 426.703125 120.03125 L 426.703125 142.128906 C 426.703125 144.167969 426.921875 145.441406 427.359375 145.945313 C 427.964844 146.632813 428.914063 146.972656 430.21875 146.972656 L 431.390625 146.972656 L 431.390625 147.878906 L 419.859375 147.878906 L 419.859375 146.972656 L 421.03125 146.972656 C 422.429688 146.972656 423.421875 146.550781 424.007813 145.703125 C 424.367188 145.179688 424.546875 143.988281 424.546875 142.128906 L 424.546875 120.535156 C 424.546875 119.066406 424.382813 118.007813 424.058594 117.355469 C 423.828125 116.882813 423.410156 116.488281 422.800781 116.167969 C 422.191406 115.851563 421.210938 115.691406 419.859375 115.691406 L 419.859375 114.785156 L 429.253906 114.785156 L 441.234375 140.660156 L 453.046875 114.785156 L 462.421875 114.785156 L 462.421875 115.691406 L 461.273438 115.691406 C 459.855469 115.691406 458.855469 116.117188 458.269531 116.964844 C 457.910156 117.484375 457.734375 118.675781 457.734375 120.535156 L 457.734375 142.128906 C 457.734375 144.167969 457.960938 145.441406 458.417969 145.945313 C 459.019531 146.632813 459.972656 146.972656 461.273438 146.972656 L 462.421875 146.972656 L 462.421875 147.878906 L 448.359375 147.878906 L 448.359375 146.972656 L 449.53125 146.972656 C 450.945313 146.972656 451.9375 146.550781 452.507813 145.703125 C 452.867188 145.179688 453.046875 143.988281 453.046875 142.128906 L 453.046875 120.03125 L 440.296875 147.878906 "/>
<path style=" stroke:none;fill-rule:nonzero;fill:rgb(52.89917%,46.299744%,38.798523%);fill-opacity:1;" d="M 475.632813 139.628906 L 472.0625 131.066406 L 468.386719 139.628906 Z M 476.117188 140.785156 L 467.890625 140.785156 L 466.453125 144.128906 C 466.097656 144.949219 465.921875 145.558594 465.921875 145.964844 C 465.921875 146.285156 466.074219 146.570313 466.382813 146.8125 C 466.691406 147.054688 467.355469 147.214844 468.375 147.285156 L 468.375 147.878906 L 461.683594 147.878906 L 461.683594 147.285156 C 462.570313 147.128906 463.144531 146.929688 463.402344 146.679688 C 463.933594 146.179688 464.523438 145.167969 465.167969 143.644531 L 472.617188 126.222656 L 473.199219 126.222656 L 480.578125 143.832031 C 481.171875 145.242188 481.710938 146.160156 482.195313 146.578125 C 482.679688 147 483.355469 147.234375 484.21875 147.285156 L 484.21875 147.878906 L 475.855469 147.878906 L 475.855469 147.285156 C 476.699219 147.246094 477.273438 147.105469 477.566406 146.867188 C 477.863281 146.628906 478.015625 146.335938 478.015625 145.996094 C 478.015625 145.539063 477.804688 144.820313 477.390625 143.832031 "/>
<g clip-path="url(#clip2)" clip-rule="nonzero">
<path style=" stroke:none;fill-rule:nonzero;fill:rgb(52.89917%,46.299744%,38.798523%);fill-opacity:1;" d="M 482.796875 126.691406 L 488.539063 126.691406 L 501.5 142.582031 L 501.5 130.378906 C 501.5 129.078125 501.355469 128.265625 501.058594 127.941406 C 500.671875 127.503906 500.054688 127.285156 499.210938 127.285156 L 498.46875 127.285156 L 498.46875 126.691406 L 505.90625 126.691406 L 505.90625 127.285156 L 505.148438 127.285156 C 504.242188 127.285156 503.601563 127.558594 503.222656 128.097656 C 502.992188 128.433594 502.875 129.191406 502.875 130.378906 L 502.875 148.222656 L 502.3125 148.222656 L 488.34375 131.152344 L 488.34375 144.191406 C 488.34375 145.496094 488.484375 146.308594 488.773438 146.628906 C 489.171875 147.066406 489.785156 147.285156 490.617188 147.285156 L 491.375 147.285156 L 491.375 147.878906 L 483.9375 147.878906 L 483.9375 147.285156 L 484.679688 147.285156 C 485.597656 147.285156 486.242188 147.015625 486.621094 146.472656 C 486.855469 146.140625 486.96875 145.378906 486.96875 144.191406 L 486.96875 129.472656 C 486.355469 128.761719 485.890625 128.289063 485.570313 128.0625 C 485.253906 127.835938 484.785156 127.621094 484.171875 127.425781 C 483.871094 127.332031 483.410156 127.285156 482.796875 127.285156 "/>
</g>
<g clip-path="url(#clip3)" clip-rule="nonzero">
<path style=" stroke:none;fill-rule:nonzero;fill:rgb(52.89917%,46.299744%,38.798523%);fill-opacity:1;" d="M 520.328125 127.285156 L 520.328125 126.691406 L 527.769531 126.691406 L 527.769531 127.285156 L 526.976563 127.285156 C 526.144531 127.285156 525.507813 127.632813 525.0625 128.328125 C 524.84375 128.648438 524.734375 129.394531 524.734375 130.566406 L 524.734375 139.144531 C 524.734375 141.269531 524.523438 142.914063 524.105469 144.082031 C 523.683594 145.253906 522.855469 146.257813 521.617188 147.09375 C 520.386719 147.929688 518.703125 148.347656 516.578125 148.347656 C 514.269531 148.347656 512.511719 147.949219 511.316406 147.148438 C 510.113281 146.347656 509.269531 145.269531 508.769531 143.917969 C 508.433594 142.992188 508.269531 141.257813 508.269531 138.707031 L 508.269531 130.441406 C 508.269531 129.148438 508.085938 128.296875 507.726563 127.894531 C 507.363281 127.488281 506.78125 127.285156 505.976563 127.285156 L 505.175781 127.285156 L 505.175781 126.691406 L 514.359375 126.691406 L 514.359375 127.285156 L 513.546875 127.285156 C 512.664063 127.285156 512.035156 127.5625 511.660156 128.109375 C 511.398438 128.484375 511.269531 129.261719 511.269531 130.441406 L 511.269531 139.660156 C 511.269531 140.480469 511.34375 141.421875 511.492188 142.480469 C 511.644531 143.542969 511.921875 144.367188 512.316406 144.960938 C 512.714844 145.554688 513.285156 146.042969 514.03125 146.429688 C 514.777344 146.8125 515.695313 147.003906 516.78125 147.003906 C 518.171875 147.003906 519.414063 146.703125 520.511719 146.101563 C 521.605469 145.496094 522.355469 144.726563 522.757813 143.785156 C 523.160156 142.84375 523.359375 141.25 523.359375 139.003906 L 523.359375 130.441406 C 523.359375 129.125 523.214844 128.300781 522.925781 127.96875 C 522.523438 127.515625 521.921875 127.285156 521.121094 127.285156 "/>
</g>
<path style=" stroke:none;fill-rule:nonzero;fill:rgb(52.89917%,46.299744%,38.798523%);fill-opacity:1;" d="M 533.378906 127.847656 L 533.378906 136.160156 L 537.253906 136.160156 C 538.132813 136.160156 538.777344 135.96875 539.1875 135.578125 C 539.597656 135.191406 539.867188 134.414063 540.003906 133.253906 L 540.597656 133.253906 L 540.597656 140.441406 L 540.003906 140.441406 C 539.988281 139.621094 539.886719 139.015625 539.683594 138.628906 C 539.480469 138.246094 539.199219 137.957031 538.84375 137.761719 C 538.484375 137.570313 537.953125 137.472656 537.253906 137.472656 L 533.378906 137.472656 L 533.378906 144.128906 C 533.378906 145.199219 533.441406 145.902344 533.578125 146.246094 C 533.679688 146.503906 533.898438 146.726563 534.226563 146.914063 C 534.683594 147.160156 535.15625 147.285156 535.648438 147.285156 L 536.40625 147.285156 L 536.40625 147.878906 L 527.347656 147.878906 L 527.347656 147.285156 L 528.097656 147.285156 C 528.972656 147.285156 529.605469 147.03125 530.003906 146.523438 C 530.253906 146.191406 530.378906 145.394531 530.378906 144.128906 L 530.378906 130.441406 C 530.378906 129.375 530.308594 128.667969 530.175781 128.328125 C 530.070313 128.070313 529.855469 127.847656 529.53125 127.660156 C 529.085938 127.410156 528.605469 127.285156 528.097656 127.285156 L 527.347656 127.285156 L 527.347656 126.691406 L 543.128906 126.691406 L 543.347656 131.347656 L 542.78125 131.347656 C 542.511719 130.359375 542.191406 129.632813 541.828125 129.167969 C 541.46875 128.707031 541.023438 128.371094 540.496094 128.160156 C 539.972656 127.953125 539.15625 127.847656 538.050781 127.847656 "/>
<path style=" stroke:none;fill-rule:nonzero;fill:rgb(52.89917%,46.299744%,38.798523%);fill-opacity:1;" d="M 555.136719 139.628906 L 551.566406 131.066406 L 547.886719 139.628906 Z M 555.617188 140.785156 L 547.390625 140.785156 L 545.953125 144.128906 C 545.601563 144.949219 545.425781 145.558594 545.425781 145.964844 C 545.425781 146.285156 545.578125 146.570313 545.886719 146.8125 C 546.191406 147.054688 546.855469 147.214844 547.878906 147.285156 L 547.878906 147.878906 L 541.1875 147.878906 L 541.1875 147.285156 C 542.070313 147.128906 542.644531 146.929688 542.902344 146.679688 C 543.4375 146.179688 544.023438 145.167969 544.671875 143.644531 L 552.117188 126.222656 L 552.699219 126.222656 L 560.078125 143.832031 C 560.675781 145.242188 561.214844 146.160156 561.695313 146.578125 C 562.183594 147 562.855469 147.234375 563.722656 147.285156 L 563.722656 147.878906 L 555.359375 147.878906 L 555.359375 147.285156 C 556.203125 147.246094 556.773438 147.105469 557.070313 146.867188 C 557.367188 146.628906 557.515625 146.335938 557.515625 145.996094 C 557.515625 145.539063 557.308594 144.820313 556.890625 143.832031 "/>
<g clip-path="url(#clip4)" clip-rule="nonzero">
<path style=" stroke:none;fill-rule:nonzero;fill:rgb(52.89917%,46.299744%,38.798523%);fill-opacity:1;" d="M 581.941406 126.222656 L 582.441406 133.441406 L 581.941406 133.441406 C 581.300781 131.28125 580.382813 129.726563 579.195313 128.773438 C 578.007813 127.824219 576.578125 127.347656 574.914063 127.347656 C 573.519531 127.347656 572.257813 127.703125 571.132813 128.417969 C 570.003906 129.128906 569.117188 130.265625 568.472656 131.824219 C 567.824219 133.386719 567.503906 135.324219 567.503906 137.644531 C 567.503906 139.558594 567.808594 141.21875 568.421875 142.621094 C 569.03125 144.023438 569.949219 145.101563 571.179688 145.851563 C 572.40625 146.601563 573.808594 146.972656 575.382813 146.972656 C 576.75 146.972656 577.957031 146.679688 579.003906 146.085938 C 580.050781 145.496094 581.199219 144.324219 582.453125 142.566406 L 582.941406 142.878906 C 581.878906 144.769531 580.644531 146.15625 579.230469 147.03125 C 577.816406 147.910156 576.140625 148.347656 574.195313 148.347656 C 570.691406 148.347656 567.980469 147.046875 566.058594 144.449219 C 564.625 142.511719 563.90625 140.234375 563.90625 137.613281 C 563.90625 135.503906 564.378906 133.5625 565.320313 131.792969 C 566.261719 130.027344 567.558594 128.65625 569.207031 127.683594 C 570.855469 126.710938 572.65625 126.222656 574.613281 126.222656 C 576.132813 126.222656 577.632813 126.597656 579.109375 127.347656 C 579.546875 127.578125 579.855469 127.691406 580.042969 127.691406 C 580.320313 127.691406 580.566406 127.59375 580.773438 127.394531 C 581.039063 127.113281 581.230469 126.722656 581.347656 126.222656 "/>
</g>
<path style=" stroke:none;fill-rule:nonzero;fill:rgb(52.89917%,46.299744%,38.798523%);fill-opacity:1;" d="M 601.285156 126.691406 L 601.503906 131.675781 L 600.910156 131.675781 C 600.796875 130.800781 600.640625 130.175781 600.441406 129.800781 C 600.117188 129.199219 599.691406 128.753906 599.15625 128.464844 C 598.621094 128.179688 597.914063 128.035156 597.042969 128.035156 L 594.066406 128.035156 L 594.066406 144.191406 C 594.066406 145.496094 594.207031 146.308594 594.488281 146.628906 C 594.886719 147.066406 595.5 147.285156 596.328125 147.285156 L 597.066406 147.285156 L 597.066406 147.878906 L 588.035156 147.878906 L 588.035156 147.285156 L 588.792969 147.285156 C 589.695313 147.285156 590.339844 147.015625 590.71875 146.472656 C 590.949219 146.140625 591.066406 145.378906 591.066406 144.191406 L 591.066406 128.035156 L 588.515625 128.035156 C 587.523438 128.035156 586.816406 128.109375 586.398438 128.253906 C 585.855469 128.453125 585.390625 128.832031 585.003906 129.394531 C 584.617188 129.957031 584.390625 130.71875 584.316406 131.675781 L 583.722656 131.675781 L 583.941406 126.691406 "/>
<g clip-path="url(#clip5)" clip-rule="nonzero">
<path style=" stroke:none;fill-rule:nonzero;fill:rgb(52.89917%,46.299744%,38.798523%);fill-opacity:1;" d="M 616.300781 127.285156 L 616.300781 126.691406 L 623.738281 126.691406 L 623.738281 127.285156 L 622.945313 127.285156 C 622.113281 127.285156 621.480469 127.632813 621.03125 128.328125 C 620.816406 128.648438 620.707031 129.394531 620.707031 130.566406 L 620.707031 139.144531 C 620.707031 141.269531 620.496094 142.914063 620.074219 144.082031 C 619.652344 145.253906 618.824219 146.257813 617.589844 147.09375 C 616.355469 147.929688 614.675781 148.347656 612.550781 148.347656 C 610.238281 148.347656 608.480469 147.949219 607.285156 147.148438 C 606.085938 146.347656 605.238281 145.269531 604.738281 143.917969 C 604.402344 142.992188 604.238281 141.257813 604.238281 138.707031 L 604.238281 130.441406 C 604.238281 129.148438 604.058594 128.296875 603.695313 127.894531 C 603.335938 127.488281 602.75 127.285156 601.945313 127.285156 L 601.144531 127.285156 L 601.144531 126.691406 L 610.332031 126.691406 L 610.332031 127.285156 L 609.515625 127.285156 C 608.636719 127.285156 608.007813 127.5625 607.632813 128.109375 C 607.367188 128.484375 607.238281 129.261719 607.238281 130.441406 L 607.238281 139.660156 C 607.238281 140.480469 607.3125 141.421875 607.464844 142.480469 C 607.613281 143.542969 607.890625 144.367188 608.285156 144.960938 C 608.683594 145.554688 609.257813 146.042969 610.003906 146.429688 C 610.75 146.8125 611.664063 147.003906 612.753906 147.003906 C 614.140625 147.003906 615.382813 146.703125 616.480469 146.101563 C 617.574219 145.496094 618.324219 144.726563 618.730469 143.785156 C 619.132813 142.84375 619.332031 141.25 619.332031 139.003906 L 619.332031 130.441406 C 619.332031 129.125 619.1875 128.300781 618.898438 127.96875 C 618.492188 127.515625 617.890625 127.285156 617.09375 127.285156 "/>
</g>
<path style=" stroke:none;fill-rule:nonzero;fill:rgb(52.89917%,46.299744%,38.798523%);fill-opacity:1;" d="M 629.378906 136.972656 C 629.574219 136.972656 629.742188 136.976563 629.886719 136.980469 C 630.027344 136.988281 630.148438 136.988281 630.238281 136.988281 C 632.230469 136.988281 633.730469 136.554688 634.738281 135.679688 C 635.746094 134.804688 636.253906 133.691406 636.253906 132.339844 C 636.253906 131.019531 635.847656 129.945313 635.03125 129.121094 C 634.21875 128.292969 633.136719 127.878906 631.792969 127.878906 C 631.199219 127.878906 630.394531 127.984375 629.378906 128.191406 Z M 644.429688 147.878906 L 638.769531 147.878906 L 631.589844 137.972656 C 631.0625 137.996094 630.628906 138.003906 630.296875 138.003906 C 630.160156 138.003906 630.019531 138.003906 629.859375 137.996094 C 629.703125 137.992188 629.546875 137.984375 629.378906 137.972656 L 629.378906 144.128906 C 629.378906 145.457031 629.523438 146.28125 629.816406 146.601563 C 630.207031 147.058594 630.800781 147.285156 631.585938 147.285156 L 632.410156 147.285156 L 632.410156 147.878906 L 623.347656 147.878906 L 623.347656 147.285156 L 624.140625 147.285156 C 625.03125 147.285156 625.671875 146.996094 626.054688 146.414063 C 626.269531 146.09375 626.378906 145.332031 626.378906 144.128906 L 626.378906 130.441406 C 626.378906 129.117188 626.234375 128.292969 625.941406 127.96875 C 625.539063 127.515625 624.941406 127.285156 624.140625 127.285156 L 623.347656 127.285156 L 623.347656 126.691406 L 631.054688 126.691406 C 633.296875 126.691406 634.953125 126.855469 636.019531 127.183594 C 637.085938 127.511719 637.988281 128.117188 638.730469 128.996094 C 639.476563 129.875 639.847656 130.921875 639.847656 132.140625 C 639.847656 133.441406 639.425781 134.570313 638.574219 135.527344 C 637.730469 136.484375 636.414063 137.160156 634.636719 137.558594 L 639.035156 143.632813 C 640.035156 145.027344 640.898438 145.953125 641.613281 146.410156 C 642.335938 146.871094 643.273438 147.160156 644.429688 147.285156 "/>
<path style=" stroke:none;fill-rule:nonzero;fill:rgb(52.89917%,46.299744%,38.798523%);fill-opacity:1;" d="M 652.691406 147.285156 L 652.691406 147.878906 L 643.628906 147.878906 L 643.628906 147.285156 L 644.378906 147.285156 C 645.253906 147.285156 645.890625 147.03125 646.285156 146.523438 C 646.535156 146.191406 646.660156 145.394531 646.660156 144.128906 L 646.660156 130.441406 C 646.660156 129.375 646.59375 128.667969 646.457031 128.328125 C 646.355469 128.070313 646.140625 127.847656 645.816406 127.660156 C 645.355469 127.410156 644.878906 127.285156 644.378906 127.285156 L 643.628906 127.285156 L 643.628906 126.691406 L 652.691406 126.691406 L 652.691406 127.285156 L 651.929688 127.285156 C 651.070313 127.285156 650.441406 127.539063 650.050781 128.046875 C 649.789063 128.378906 649.660156 129.179688 649.660156 130.441406 L 649.660156 144.128906 C 649.660156 145.199219 649.730469 145.902344 649.863281 146.246094 C 649.96875 146.503906 650.183594 146.726563 650.515625 146.914063 C 650.960938 147.160156 651.433594 147.285156 651.929688 147.285156 "/>
<g clip-path="url(#clip6)" clip-rule="nonzero">
<path style=" stroke:none;fill-rule:nonzero;fill:rgb(52.89917%,46.299744%,38.798523%);fill-opacity:1;" d="M 651.738281 126.691406 L 657.480469 126.691406 L 670.441406 142.582031 L 670.441406 130.378906 C 670.441406 129.078125 670.296875 128.265625 670 127.941406 C 669.609375 127.503906 668.996094 127.285156 668.152344 127.285156 L 667.410156 127.285156 L 667.410156 126.691406 L 674.851563 126.691406 L 674.851563 127.285156 L 674.09375 127.285156 C 673.1875 127.285156 672.542969 127.558594 672.164063 128.097656 C 671.933594 128.433594 671.816406 129.191406 671.816406 130.378906 L 671.816406 148.222656 L 671.257813 148.222656 L 657.285156 131.152344 L 657.285156 144.191406 C 657.285156 145.496094 657.429688 146.308594 657.714844 146.628906 C 658.113281 147.066406 658.730469 147.285156 659.5625 147.285156 L 660.316406 147.285156 L 660.316406 147.878906 L 652.882813 147.878906 L 652.882813 147.285156 L 653.621094 147.285156 C 654.535156 147.285156 655.1875 147.015625 655.566406 146.472656 C 655.796875 146.140625 655.910156 145.378906 655.910156 144.191406 L 655.910156 129.472656 C 655.296875 128.761719 654.828125 128.289063 654.515625 128.0625 C 654.195313 127.835938 653.730469 127.621094 653.113281 127.425781 C 652.8125 127.332031 652.355469 127.285156 651.738281 127.285156 "/>
</g>
<g clip-path="url(#clip7)" clip-rule="nonzero">
<path style=" stroke:none;fill-rule:nonzero;fill:rgb(52.89917%,46.299744%,38.798523%);fill-opacity:1;" d="M 693.613281 126.222656 L 694.179688 132.910156 L 693.585938 132.910156 C 693.03125 131.253906 692.316406 130.003906 691.445313 129.167969 C 690.1875 127.953125 688.566406 127.347656 686.589844 127.347656 C 683.894531 127.347656 681.847656 128.414063 680.441406 130.542969 C 679.265625 132.339844 678.679688 134.476563 678.679688 136.957031 C 678.679688 138.972656 679.066406 140.8125 679.851563 142.472656 C 680.632813 144.136719 681.65625 145.351563 682.925781 146.125 C 684.191406 146.898438 685.492188 147.285156 686.828125 147.285156 C 687.609375 147.285156 688.363281 147.1875 689.097656 146.988281 C 689.824219 146.792969 690.527344 146.5 691.210938 146.117188 L 691.210938 140.003906 C 691.210938 138.941406 691.128906 138.246094 690.96875 137.917969 C 690.804688 137.589844 690.554688 137.339844 690.21875 137.167969 C 689.878906 136.996094 689.28125 136.910156 688.429688 136.910156 L 688.429688 136.316406 L 696.648438 136.316406 L 696.648438 136.910156 L 696.257813 136.910156 C 695.441406 136.910156 694.886719 137.183594 694.585938 137.722656 C 694.375 138.109375 694.273438 138.871094 694.273438 140.003906 L 694.273438 146.476563 C 693.070313 147.121094 691.886719 147.59375 690.71875 147.894531 C 689.550781 148.199219 688.25 148.347656 686.820313 148.347656 C 682.722656 148.347656 679.605469 147.039063 677.480469 144.417969 C 675.882813 142.449219 675.085938 140.183594 675.085938 137.613281 C 675.085938 135.75 675.53125 133.96875 676.429688 132.261719 C 677.488281 130.234375 678.945313 128.671875 680.804688 127.582031 C 682.355469 126.675781 684.1875 126.222656 686.304688 126.222656 C 687.070313 126.222656 687.773438 126.285156 688.402344 126.410156 C 689.03125 126.535156 689.929688 126.8125 691.085938 127.238281 C 691.664063 127.457031 692.058594 127.566406 692.257813 127.566406 C 692.453125 127.566406 692.621094 127.476563 692.765625 127.292969 C 692.902344 127.113281 692.988281 126.753906 693.023438 126.222656 "/>
</g>
<g clip-path="url(#clip8)" clip-rule="nonzero">
<path style=" stroke:none;fill-rule:nonzero;fill:rgb(52.89917%,46.299744%,38.798523%);fill-opacity:1;" d="M 733.882813 114.035156 L 734.632813 125.285156 L 733.882813 125.285156 C 732.871094 121.90625 731.4375 119.472656 729.566406 117.984375 C 727.699219 116.5 725.457031 115.753906 722.84375 115.753906 C 720.648438 115.753906 718.664063 116.3125 716.898438 117.429688 C 715.125 118.542969 713.730469 120.320313 712.71875 122.761719 C 711.699219 125.203125 711.191406 128.242188 711.191406 131.871094 C 711.191406 134.867188 711.671875 137.464844 712.632813 139.660156 C 713.589844 141.859375 715.027344 143.542969 716.953125 144.714844 C 718.878906 145.886719 721.074219 146.472656 723.542969 146.472656 C 725.6875 146.472656 727.574219 146.011719 729.21875 145.089844 C 730.855469 144.167969 732.660156 142.339844 734.625 139.597656 L 735.382813 140.097656 C 733.722656 143.046875 731.785156 145.207031 729.574219 146.578125 C 727.363281 147.945313 724.738281 148.628906 721.695313 148.628906 C 716.21875 148.628906 711.976563 146.597656 708.964844 142.53125 C 706.722656 139.503906 705.601563 135.945313 705.601563 131.84375 C 705.601563 128.542969 706.339844 125.511719 707.820313 122.746094 C 709.304688 119.980469 711.339844 117.835938 713.9375 116.316406 C 716.53125 114.796875 719.367188 114.035156 722.441406 114.035156 C 724.835938 114.035156 727.195313 114.617188 729.523438 115.785156 C 730.203125 116.140625 730.691406 116.316406 730.984375 116.316406 C 731.425781 116.316406 731.808594 116.164063 732.136719 115.855469 C 732.558594 115.417969 732.855469 114.8125 733.035156 114.035156 "/>
</g>
<g clip-path="url(#clip9)" clip-rule="nonzero">
<path style=" stroke:none;fill-rule:nonzero;fill:rgb(52.89917%,46.299744%,38.798523%);fill-opacity:1;" d="M 746.511719 127.347656 C 744.621094 127.347656 743.105469 128.050781 741.960938 129.453125 C 740.535156 131.203125 739.824219 133.761719 739.824219 137.128906 C 739.824219 140.582031 740.5625 143.242188 742.039063 145.101563 C 743.171875 146.515625 744.667969 147.222656 746.527344 147.222656 C 748.511719 147.222656 750.152344 146.449219 751.445313 144.898438 C 752.738281 143.351563 753.386719 140.90625 753.386719 137.566406 C 753.386719 133.949219 752.675781 131.25 751.253906 129.46875 C 750.105469 128.054688 748.527344 127.347656 746.511719 127.347656 M 746.808594 126.222656 C 749.558594 126.222656 751.941406 127.265625 753.957031 129.351563 C 755.972656 131.4375 756.980469 134.039063 756.980469 137.160156 C 756.980469 140.375 755.964844 143.042969 753.933594 145.164063 C 751.902344 147.289063 749.441406 148.347656 746.558594 148.347656 C 743.644531 148.347656 741.191406 147.3125 739.207031 145.242188 C 737.222656 143.175781 736.230469 140.496094 736.230469 137.207031 C 736.230469 133.847656 737.378906 131.105469 739.667969 128.984375 C 741.65625 127.144531 744.035156 126.222656 746.808594 126.222656 "/>
</g>
<path style=" stroke:none;fill-rule:nonzero;fill:rgb(52.89917%,46.299744%,38.798523%);fill-opacity:1;" d="M 762.472656 136.972656 C 762.667969 136.972656 762.835938 136.976563 762.980469 136.980469 C 763.121094 136.988281 763.242188 136.988281 763.335938 136.988281 C 765.324219 136.988281 766.820313 136.554688 767.832031 135.679688 C 768.84375 134.804688 769.347656 133.691406 769.347656 132.339844 C 769.347656 131.019531 768.941406 129.945313 768.125 129.121094 C 767.3125 128.292969 766.230469 127.878906 764.886719 127.878906 C 764.292969 127.878906 763.488281 127.984375 762.472656 128.191406 Z M 777.523438 147.878906 L 771.859375 147.878906 L 764.683594 137.972656 C 764.152344 137.996094 763.722656 138.003906 763.390625 138.003906 C 763.257813 138.003906 763.109375 138.003906 762.953125 137.996094 C 762.800781 137.992188 762.640625 137.984375 762.472656 137.972656 L 762.472656 144.128906 C 762.472656 145.457031 762.617188 146.28125 762.90625 146.601563 C 763.300781 147.058594 763.894531 147.285156 764.679688 147.285156 L 765.503906 147.285156 L 765.503906 147.878906 L 756.441406 147.878906 L 756.441406 147.285156 L 757.234375 147.285156 C 758.125 147.285156 758.765625 146.996094 759.148438 146.414063 C 759.363281 146.09375 759.472656 145.332031 759.472656 144.128906 L 759.472656 130.441406 C 759.472656 129.117188 759.328125 128.292969 759.035156 127.96875 C 758.632813 127.515625 758.03125 127.285156 757.234375 127.285156 L 756.441406 127.285156 L 756.441406 126.691406 L 764.148438 126.691406 C 766.390625 126.691406 768.046875 126.855469 769.113281 127.183594 C 770.179688 127.511719 771.085938 128.117188 771.824219 128.996094 C 772.570313 129.875 772.941406 130.921875 772.941406 132.140625 C 772.941406 133.441406 772.519531 134.570313 771.671875 135.527344 C 770.820313 136.484375 769.511719 137.160156 767.730469 137.558594 L 772.132813 143.632813 C 773.132813 145.027344 773.988281 145.953125 774.710938 146.410156 C 775.429688 146.871094 776.363281 147.160156 777.523438 147.285156 "/>
<path style=" stroke:none;fill-rule:nonzero;fill:rgb(52.89917%,46.299744%,38.798523%);fill-opacity:1;" d="M 781.800781 137.066406 C 782.351563 137.171875 782.839844 137.25 783.265625 137.300781 C 783.691406 137.355469 784.058594 137.378906 784.355469 137.378906 C 785.4375 137.378906 786.371094 136.960938 787.15625 136.125 C 787.941406 135.289063 788.332031 134.203125 788.332031 132.871094 C 788.332031 131.957031 788.144531 131.105469 787.773438 130.320313 C 787.398438 129.535156 786.867188 128.949219 786.183594 128.558594 C 785.496094 128.167969 784.71875 127.972656 783.84375 127.972656 C 783.3125 127.972656 782.632813 128.074219 781.800781 128.269531 Z M 781.800781 137.96875 L 781.800781 144.128906 C 781.800781 145.457031 781.945313 146.28125 782.234375 146.601563 C 782.628906 147.058594 783.226563 147.285156 784.023438 147.285156 L 784.832031 147.285156 L 784.832031 147.878906 L 775.769531 147.878906 L 775.769531 147.285156 L 776.566406 147.285156 C 777.464844 147.285156 778.105469 146.996094 778.488281 146.414063 C 778.695313 146.09375 778.800781 145.332031 778.800781 144.128906 L 778.800781 130.441406 C 778.800781 129.117188 778.660156 128.292969 778.378906 127.96875 C 777.972656 127.515625 777.367188 127.285156 776.566406 127.285156 L 775.769531 127.285156 L 775.769531 126.691406 L 783.542969 126.691406 C 785.441406 126.691406 786.9375 126.886719 788.03125 127.277344 C 789.128906 127.671875 790.050781 128.328125 790.800781 129.257813 C 791.550781 130.1875 791.925781 131.285156 791.925781 132.558594 C 791.925781 134.289063 791.355469 135.699219 790.214844 136.785156 C 789.070313 137.867188 787.453125 138.410156 785.367188 138.410156 C 784.855469 138.410156 784.304688 138.375 783.710938 138.300781 C 783.113281 138.226563 782.480469 138.113281 781.800781 137.96875 "/>
<g clip-path="url(#clip10)" clip-rule="nonzero">
<path style=" stroke:none;fill-rule:nonzero;fill:rgb(52.89917%,46.299744%,38.798523%);fill-opacity:1;" d="M 802.460938 127.347656 C 800.566406 127.347656 799.050781 128.050781 797.90625 129.453125 C 796.480469 131.203125 795.773438 133.761719 795.773438 137.128906 C 795.773438 140.582031 796.507813 143.242188 797.984375 145.101563 C 799.117188 146.515625 800.613281 147.222656 802.476563 147.222656 C 804.460938 147.222656 806.097656 146.449219 807.394531 144.898438 C 808.6875 143.351563 809.335938 140.90625 809.335938 137.566406 C 809.335938 133.949219 808.621094 131.25 807.195313 129.46875 C 806.054688 128.054688 804.476563 127.347656 802.460938 127.347656 M 802.757813 126.222656 C 805.507813 126.222656 807.890625 127.265625 809.902344 129.351563 C 811.921875 131.4375 812.929688 134.039063 812.929688 137.160156 C 812.929688 140.375 811.910156 143.042969 809.882813 145.164063 C 807.851563 147.289063 805.390625 148.347656 802.507813 148.347656 C 799.589844 148.347656 797.140625 147.3125 795.152344 145.242188 C 793.171875 143.175781 792.179688 140.496094 792.179688 137.207031 C 792.179688 133.847656 793.320313 131.105469 795.613281 128.984375 C 797.605469 127.144531 799.984375 126.222656 802.757813 126.222656 "/>
</g>
<path style=" stroke:none;fill-rule:nonzero;fill:rgb(52.89917%,46.299744%,38.798523%);fill-opacity:1;" d="M 819.984375 136.972656 C 820.183594 136.972656 820.351563 136.976563 820.492188 136.980469 C 820.636719 136.988281 820.757813 136.988281 820.847656 136.988281 C 822.839844 136.988281 824.335938 136.554688 825.347656 135.679688 C 826.355469 134.804688 826.859375 133.691406 826.859375 132.339844 C 826.859375 131.019531 826.453125 129.945313 825.640625 129.121094 C 824.824219 128.292969 823.742188 127.878906 822.398438 127.878906 C 821.808594 127.878906 821.003906 127.984375 819.984375 128.191406 Z M 835.035156 147.878906 L 829.375 147.878906 L 822.195313 137.972656 C 821.667969 137.996094 821.234375 138.003906 820.902344 138.003906 C 820.769531 138.003906 820.625 138.003906 820.46875 137.996094 C 820.3125 137.992188 820.152344 137.984375 819.984375 137.972656 L 819.984375 144.128906 C 819.984375 145.457031 820.132813 146.28125 820.421875 146.601563 C 820.816406 147.058594 821.40625 147.285156 822.191406 147.285156 L 823.019531 147.285156 L 823.019531 147.878906 L 813.953125 147.878906 L 813.953125 147.285156 L 814.746094 147.285156 C 815.640625 147.285156 816.277344 146.996094 816.660156 146.414063 C 816.878906 146.09375 816.984375 145.332031 816.984375 144.128906 L 816.984375 130.441406 C 816.984375 129.117188 816.84375 128.292969 816.550781 127.96875 C 816.148438 127.515625 815.546875 127.285156 814.746094 127.285156 L 813.953125 127.285156 L 813.953125 126.691406 L 821.660156 126.691406 C 823.902344 126.691406 825.5625 126.855469 826.628906 127.183594 C 827.691406 127.511719 828.597656 128.117188 829.339844 128.996094 C 830.085938 129.875 830.453125 130.921875 830.453125 132.140625 C 830.453125 133.441406 830.03125 134.570313 829.183594 135.527344 C 828.335938 136.484375 827.023438 137.160156 825.242188 137.558594 L 829.644531 143.632813 C 830.644531 145.027344 831.503906 145.953125 832.222656 146.410156 C 832.941406 146.871094 833.878906 147.160156 835.035156 147.285156 "/>
<path style=" stroke:none;fill-rule:nonzero;fill:rgb(52.89917%,46.299744%,38.798523%);fill-opacity:1;" d="M 846.964844 139.628906 L 843.394531 131.066406 L 839.71875 139.628906 Z M 847.445313 140.785156 L 839.222656 140.785156 L 837.785156 144.128906 C 837.429688 144.949219 837.253906 145.558594 837.253906 145.964844 C 837.253906 146.285156 837.40625 146.570313 837.714844 146.8125 C 838.023438 147.054688 838.6875 147.214844 839.707031 147.285156 L 839.707031 147.878906 L 833.015625 147.878906 L 833.015625 147.285156 C 833.898438 147.128906 834.472656 146.929688 834.734375 146.679688 C 835.265625 146.179688 835.855469 145.167969 836.5 143.644531 L 843.945313 126.222656 L 844.53125 126.222656 L 851.910156 143.832031 C 852.503906 145.242188 853.042969 146.160156 853.527344 146.578125 C 854.011719 147 854.6875 147.234375 855.550781 147.285156 L 855.550781 147.878906 L 847.1875 147.878906 L 847.1875 147.285156 C 848.03125 147.246094 848.601563 147.105469 848.898438 146.867188 C 849.195313 146.628906 849.34375 146.335938 849.34375 145.996094 C 849.34375 145.539063 849.136719 144.820313 848.71875 143.832031 "/>
<path style=" stroke:none;fill-rule:nonzero;fill:rgb(52.89917%,46.299744%,38.798523%);fill-opacity:1;" d="M 868.863281 126.691406 L 869.082031 131.675781 L 868.488281 131.675781 C 868.371094 130.800781 868.21875 130.175781 868.019531 129.800781 C 867.695313 129.199219 867.269531 128.753906 866.734375 128.464844 C 866.199219 128.179688 865.492188 128.035156 864.621094 128.035156 L 861.644531 128.035156 L 861.644531 144.191406 C 861.644531 145.496094 861.785156 146.308594 862.066406 146.628906 C 862.464844 147.066406 863.078125 147.285156 863.90625 147.285156 L 864.644531 147.285156 L 864.644531 147.878906 L 855.613281 147.878906 L 855.613281 147.285156 L 856.371094 147.285156 C 857.273438 147.285156 857.917969 147.015625 858.296875 146.472656 C 858.527344 146.140625 858.644531 145.378906 858.644531 144.191406 L 858.644531 128.035156 L 856.09375 128.035156 C 855.101563 128.035156 854.394531 128.109375 853.976563 128.253906 C 853.433594 128.453125 852.96875 128.832031 852.582031 129.394531 C 852.195313 129.957031 851.96875 130.71875 851.894531 131.675781 L 851.300781 131.675781 L 851.519531 126.691406 "/>
<path style=" stroke:none;fill-rule:nonzero;fill:rgb(52.89917%,46.299744%,38.798523%);fill-opacity:1;" d="M 877.769531 147.285156 L 877.769531 147.878906 L 868.707031 147.878906 L 868.707031 147.285156 L 869.457031 147.285156 C 870.332031 147.285156 870.96875 147.03125 871.363281 146.523438 C 871.613281 146.191406 871.738281 145.394531 871.738281 144.128906 L 871.738281 130.441406 C 871.738281 129.375 871.671875 128.667969 871.535156 128.328125 C 871.429688 128.070313 871.21875 127.847656 870.894531 127.660156 C 870.4375 127.410156 869.957031 127.285156 869.457031 127.285156 L 868.707031 127.285156 L 868.707031 126.691406 L 877.769531 126.691406 L 877.769531 127.285156 L 877.007813 127.285156 C 876.148438 127.285156 875.519531 127.539063 875.128906 128.046875 C 874.867188 128.378906 874.738281 129.179688 874.738281 130.441406 L 874.738281 144.128906 C 874.738281 145.199219 874.804688 145.902344 874.941406 146.246094 C 875.042969 146.503906 875.261719 146.726563 875.59375 146.914063 C 876.035156 147.160156 876.511719 147.285156 877.007813 147.285156 "/>
<g clip-path="url(#clip11)" clip-rule="nonzero">
<path style=" stroke:none;fill-rule:nonzero;fill:rgb(52.89917%,46.299744%,38.798523%);fill-opacity:1;" d="M 887.972656 127.347656 C 886.082031 127.347656 884.566406 128.050781 883.421875 129.453125 C 881.996094 131.203125 881.285156 133.761719 881.285156 137.128906 C 881.285156 140.582031 882.023438 143.242188 883.5 145.101563 C 884.632813 146.515625 886.128906 147.222656 887.988281 147.222656 C 889.972656 147.222656 891.613281 146.449219 892.90625 144.898438 C 894.199219 143.351563 894.847656 140.90625 894.847656 137.566406 C 894.847656 133.949219 894.136719 131.25 892.714844 129.46875 C 891.566406 128.054688 889.988281 127.347656 887.972656 127.347656 M 888.269531 126.222656 C 891.019531 126.222656 893.402344 127.265625 895.417969 129.351563 C 897.433594 131.4375 898.441406 134.039063 898.441406 137.160156 C 898.441406 140.375 897.425781 143.042969 895.394531 145.164063 C 893.363281 147.289063 890.902344 148.347656 888.019531 148.347656 C 885.105469 148.347656 882.652344 147.3125 880.667969 145.242188 C 878.683594 143.175781 877.691406 140.496094 877.691406 137.207031 C 877.691406 133.847656 878.839844 131.105469 881.128906 128.984375 C 883.117188 127.144531 885.496094 126.222656 888.269531 126.222656 "/>
</g>
<g clip-path="url(#clip12)" clip-rule="nonzero">
<path style=" stroke:none;fill-rule:nonzero;fill:rgb(52.89917%,46.299744%,38.798523%);fill-opacity:1;" d="M 897.269531 126.691406 L 903.011719 126.691406 L 915.972656 142.582031 L 915.972656 130.378906 C 915.972656 129.078125 915.824219 128.265625 915.53125 127.941406 C 915.140625 127.503906 914.523438 127.285156 913.683594 127.285156 L 912.941406 127.285156 L 912.941406 126.691406 L 920.378906 126.691406 L 920.378906 127.285156 L 919.621094 127.285156 C 918.71875 127.285156 918.074219 127.558594 917.695313 128.097656 C 917.464844 128.433594 917.347656 129.191406 917.347656 130.378906 L 917.347656 148.222656 L 916.785156 148.222656 L 902.816406 131.152344 L 902.816406 144.191406 C 902.816406 145.496094 902.960938 146.308594 903.242188 146.628906 C 903.644531 147.066406 904.257813 147.285156 905.089844 147.285156 L 905.847656 147.285156 L 905.847656 147.878906 L 898.410156 147.878906 L 898.410156 147.285156 L 899.152344 147.285156 C 900.066406 147.285156 900.714844 147.015625 901.09375 146.472656 C 901.324219 146.140625 901.441406 145.378906 901.441406 144.191406 L 901.441406 129.472656 C 900.824219 128.761719 900.359375 128.289063 900.042969 128.0625 C 899.726563 127.835938 899.261719 127.621094 898.644531 127.425781 C 898.34375 127.332031 897.886719 127.285156 897.269531 127.285156 "/>
</g>
</g>
</svg>
