<svg height="316.227766" viewBox="0 0 250 250" width="316.227766" xmlns="http://www.w3.org/2000/svg" xmlns:xlink="http://www.w3.org/1999/xlink"><linearGradient id="a" gradientTransform="matrix(.70710678 .70710678 -.70710678 .70710678 115.7 18.51)" gradientUnits="userSpaceOnUse" x1="42.73" x2="28.28" y1="156.14" y2="141.69"><stop offset="0" stop-color="#4a93cf"/><stop offset=".15" stop-color="#478bc7"/><stop offset=".37" stop-color="#3f78b4"/><stop offset=".63" stop-color="#335793"/><stop offset=".92" stop-color="#232a66"/><stop offset="1" stop-color="#1e1d59"/></linearGradient><linearGradient id="b" x1="35.51" x2="35.51" xlink:href="#a" y1="148.91" y2="105.56"/><linearGradient id="c" x1="35.51" x2="35.51" xlink:href="#a" y1="120.01" y2="76.67"/><g fill="#1f1646"><path d="m92.43 118.74-17.9 22.07h17.9v8.1h-29.24v-7.56l17.98-22.07h-17.28v-8.1h28.55v7.56z"/><path d="m136.26 111.18v37.73h-8.41v-3.78c-3.39 3.16-7.64 4.94-12.27 4.94-10.57.23-19.98-9.18-19.75-20.06-.23-10.72 9.18-20.21 19.75-19.98 4.63 0 8.87 1.77 12.27 4.94v-3.78h8.41zm-19.91 7.18c-6.33 0-11.5 5.17-11.5 11.65s5.17 11.65 11.5 11.65 11.5-5.17 11.5-11.65-5.17-11.65-11.5-11.65z"/><path d="m157.09 111.18h7.72v8.1h-7.72v29.63h-8.95v-29.63h-6.4v-8.1h6.4v-4.17c0-9.1 6.4-16.13 16.67-16.13v8.49c-4.63 0-7.72 3.16-7.72 7.79v4.01z"/></g><path d="m174.49 90.15c2.84 0 5.18 2.2 5.18 5.04s-2.34 5.04-5.18 5.04-5.18-2.2-5.18-5.04 2.34-5.04 5.18-5.04z" fill="#0071ce"/><path d="m169.97 111.18h9.03v37.73h-9.03z" fill="#1f1646"/><path d="m221.9 148.91h-9.03v-21.68c0-5.32-3.39-8.64-8.33-8.64s-8.33 3.47-8.33 8.64v21.68h-9.03v-37.73h8.41v3.7c2.7-3.09 6.64-4.78 11.34-4.78 8.56 0 14.97 6.33 14.97 15.12z" fill="#1f1646"/><path d="m25.29 138.7h20.44v20.44h-20.44z" fill="url(#a)" transform="matrix(.70710678 -.70710678 .70710678 .70710678 -94.9 68.72)"/><path d="m21.06 148.91v-28.9l14.45-14.45 14.45 14.45z" fill="url(#b)"/><path d="m49.96 120.01v-28.9l-14.45-14.44-14.45 14.44z" fill="url(#c)"/><path d="m228.24 110.89v.99h-1.06v3.01h-1.25v-3.01h-1.05v-.99h3.37z" fill="#1f1646"/><path d="m233.38 110.89v4h-1.25v-1.99l-.62 1.99h-1.07l-.62-1.99v1.99h-1.25v-4h1.54l.88 2.4.86-2.4z" fill="#1f1646"/></svg>